%TF.GenerationSoftware,KiCad,Pcbnew,(5.1.10-1-10_14)*%
%TF.CreationDate,2021-10-20T08:18:25-04:00*%
%TF.ProjectId,traffic-light,74726166-6669-4632-9d6c-696768742e6b,rev?*%
%TF.SameCoordinates,Original*%
%TF.FileFunction,Legend,Bot*%
%TF.FilePolarity,Positive*%
%FSLAX46Y46*%
G04 Gerber Fmt 4.6, Leading zero omitted, Abs format (unit mm)*
G04 Created by KiCad (PCBNEW (5.1.10-1-10_14)) date 2021-10-20 08:18:25*
%MOMM*%
%LPD*%
G01*
G04 APERTURE LIST*
%ADD10C,0.120000*%
%ADD11C,0.150000*%
G04 APERTURE END LIST*
D10*
%TO.C,J1*%
X111590000Y-82490000D02*
X111590000Y-92770000D01*
X111590000Y-92770000D02*
X108930000Y-92770000D01*
X108930000Y-92770000D02*
X108930000Y-82490000D01*
X108930000Y-82490000D02*
X111590000Y-82490000D01*
X108930000Y-83440000D02*
X102930000Y-83440000D01*
X102930000Y-83440000D02*
X102930000Y-84200000D01*
X102930000Y-84200000D02*
X108930000Y-84200000D01*
X108930000Y-83500000D02*
X102930000Y-83500000D01*
X108930000Y-83620000D02*
X102930000Y-83620000D01*
X108930000Y-83740000D02*
X102930000Y-83740000D01*
X108930000Y-83860000D02*
X102930000Y-83860000D01*
X108930000Y-83980000D02*
X102930000Y-83980000D01*
X108930000Y-84100000D02*
X102930000Y-84100000D01*
X111920000Y-83440000D02*
X111590000Y-83440000D01*
X111920000Y-84200000D02*
X111590000Y-84200000D01*
X111590000Y-85090000D02*
X108930000Y-85090000D01*
X108930000Y-85980000D02*
X102930000Y-85980000D01*
X102930000Y-85980000D02*
X102930000Y-86740000D01*
X102930000Y-86740000D02*
X108930000Y-86740000D01*
X111987071Y-85980000D02*
X111590000Y-85980000D01*
X111987071Y-86740000D02*
X111590000Y-86740000D01*
X111590000Y-87630000D02*
X108930000Y-87630000D01*
X108930000Y-88520000D02*
X102930000Y-88520000D01*
X102930000Y-88520000D02*
X102930000Y-89280000D01*
X102930000Y-89280000D02*
X108930000Y-89280000D01*
X111987071Y-88520000D02*
X111590000Y-88520000D01*
X111987071Y-89280000D02*
X111590000Y-89280000D01*
X111590000Y-90170000D02*
X108930000Y-90170000D01*
X108930000Y-91060000D02*
X102930000Y-91060000D01*
X102930000Y-91060000D02*
X102930000Y-91820000D01*
X102930000Y-91820000D02*
X108930000Y-91820000D01*
X111987071Y-91060000D02*
X111590000Y-91060000D01*
X111987071Y-91820000D02*
X111590000Y-91820000D01*
X114300000Y-83820000D02*
X114300000Y-82550000D01*
X114300000Y-82550000D02*
X113030000Y-82550000D01*
D11*
X108978333Y-81002380D02*
X108978333Y-81716666D01*
X109025952Y-81859523D01*
X109121190Y-81954761D01*
X109264047Y-82002380D01*
X109359285Y-82002380D01*
X107978333Y-82002380D02*
X108549761Y-82002380D01*
X108264047Y-82002380D02*
X108264047Y-81002380D01*
X108359285Y-81145238D01*
X108454523Y-81240476D01*
X108549761Y-81288095D01*
%TD*%
M02*
