%TF.GenerationSoftware,KiCad,Pcbnew,(5.1.10-1-10_14)*%
%TF.CreationDate,2021-10-20T08:18:25-04:00*%
%TF.ProjectId,traffic-light,74726166-6669-4632-9d6c-696768742e6b,rev?*%
%TF.SameCoordinates,Original*%
%TF.FileFunction,Legend,Top*%
%TF.FilePolarity,Positive*%
%FSLAX46Y46*%
G04 Gerber Fmt 4.6, Leading zero omitted, Abs format (unit mm)*
G04 Created by KiCad (PCBNEW (5.1.10-1-10_14)) date 2021-10-20 08:18:25*
%MOMM*%
%LPD*%
G01*
G04 APERTURE LIST*
%ADD10C,0.150000*%
%ADD11C,0.120000*%
G04 APERTURE END LIST*
D10*
X115117619Y-90701904D02*
X116117619Y-90701904D01*
X116117619Y-90940000D01*
X116070000Y-91082857D01*
X115974761Y-91178095D01*
X115879523Y-91225714D01*
X115689047Y-91273333D01*
X115546190Y-91273333D01*
X115355714Y-91225714D01*
X115260476Y-91178095D01*
X115165238Y-91082857D01*
X115117619Y-90940000D01*
X115117619Y-90701904D01*
X116117619Y-91606666D02*
X116117619Y-92225714D01*
X115736666Y-91892380D01*
X115736666Y-92035238D01*
X115689047Y-92130476D01*
X115641428Y-92178095D01*
X115546190Y-92225714D01*
X115308095Y-92225714D01*
X115212857Y-92178095D01*
X115165238Y-92130476D01*
X115117619Y-92035238D01*
X115117619Y-91749523D01*
X115165238Y-91654285D01*
X115212857Y-91606666D01*
X115117619Y-88161904D02*
X116117619Y-88161904D01*
X116117619Y-88400000D01*
X116070000Y-88542857D01*
X115974761Y-88638095D01*
X115879523Y-88685714D01*
X115689047Y-88733333D01*
X115546190Y-88733333D01*
X115355714Y-88685714D01*
X115260476Y-88638095D01*
X115165238Y-88542857D01*
X115117619Y-88400000D01*
X115117619Y-88161904D01*
X116022380Y-89114285D02*
X116070000Y-89161904D01*
X116117619Y-89257142D01*
X116117619Y-89495238D01*
X116070000Y-89590476D01*
X116022380Y-89638095D01*
X115927142Y-89685714D01*
X115831904Y-89685714D01*
X115689047Y-89638095D01*
X115117619Y-89066666D01*
X115117619Y-89685714D01*
X115117619Y-85621904D02*
X116117619Y-85621904D01*
X116117619Y-85860000D01*
X116070000Y-86002857D01*
X115974761Y-86098095D01*
X115879523Y-86145714D01*
X115689047Y-86193333D01*
X115546190Y-86193333D01*
X115355714Y-86145714D01*
X115260476Y-86098095D01*
X115165238Y-86002857D01*
X115117619Y-85860000D01*
X115117619Y-85621904D01*
X115117619Y-87145714D02*
X115117619Y-86574285D01*
X115117619Y-86860000D02*
X116117619Y-86860000D01*
X115974761Y-86764761D01*
X115879523Y-86669523D01*
X115831904Y-86574285D01*
X116070000Y-83058095D02*
X116117619Y-82962857D01*
X116117619Y-82820000D01*
X116070000Y-82677142D01*
X115974761Y-82581904D01*
X115879523Y-82534285D01*
X115689047Y-82486666D01*
X115546190Y-82486666D01*
X115355714Y-82534285D01*
X115260476Y-82581904D01*
X115165238Y-82677142D01*
X115117619Y-82820000D01*
X115117619Y-82915238D01*
X115165238Y-83058095D01*
X115212857Y-83105714D01*
X115546190Y-83105714D01*
X115546190Y-82915238D01*
X115117619Y-83534285D02*
X116117619Y-83534285D01*
X115117619Y-84105714D01*
X116117619Y-84105714D01*
X115117619Y-84581904D02*
X116117619Y-84581904D01*
X116117619Y-84820000D01*
X116070000Y-84962857D01*
X115974761Y-85058095D01*
X115879523Y-85105714D01*
X115689047Y-85153333D01*
X115546190Y-85153333D01*
X115355714Y-85105714D01*
X115260476Y-85058095D01*
X115165238Y-84962857D01*
X115117619Y-84820000D01*
X115117619Y-84581904D01*
D11*
%TO.C,R3*%
X122570000Y-91090000D02*
X118730000Y-91090000D01*
X122570000Y-89250000D02*
X118730000Y-89250000D01*
%TO.C,R2*%
X122570000Y-88550000D02*
X118730000Y-88550000D01*
X122570000Y-86710000D02*
X118730000Y-86710000D01*
%TO.C,R1*%
X122570000Y-86010000D02*
X118730000Y-86010000D01*
X122570000Y-84170000D02*
X118730000Y-84170000D01*
%TO.C,D3*%
X138396000Y-86070000D02*
X138240000Y-86070000D01*
X136080000Y-86070000D02*
X135924000Y-86070000D01*
X136080163Y-88671130D02*
G75*
G02*
X136080000Y-86589039I1079837J1041130D01*
G01*
X138239837Y-88671130D02*
G75*
G03*
X138240000Y-86589039I-1079837J1041130D01*
G01*
X136081392Y-89302335D02*
G75*
G02*
X135924484Y-86070000I1078608J1672335D01*
G01*
X138238608Y-89302335D02*
G75*
G03*
X138395516Y-86070000I-1078608J1672335D01*
G01*
%TO.C,D2*%
X133316000Y-86070000D02*
X133160000Y-86070000D01*
X131000000Y-86070000D02*
X130844000Y-86070000D01*
X131000163Y-88671130D02*
G75*
G02*
X131000000Y-86589039I1079837J1041130D01*
G01*
X133159837Y-88671130D02*
G75*
G03*
X133160000Y-86589039I-1079837J1041130D01*
G01*
X131001392Y-89302335D02*
G75*
G02*
X130844484Y-86070000I1078608J1672335D01*
G01*
X133158608Y-89302335D02*
G75*
G03*
X133315516Y-86070000I-1078608J1672335D01*
G01*
%TO.C,D1*%
X128236000Y-86070000D02*
X128080000Y-86070000D01*
X125920000Y-86070000D02*
X125764000Y-86070000D01*
X125920163Y-88671130D02*
G75*
G02*
X125920000Y-86589039I1079837J1041130D01*
G01*
X128079837Y-88671130D02*
G75*
G03*
X128080000Y-86589039I-1079837J1041130D01*
G01*
X125921392Y-89302335D02*
G75*
G02*
X125764484Y-86070000I1078608J1672335D01*
G01*
X128078608Y-89302335D02*
G75*
G03*
X128235516Y-86070000I-1078608J1672335D01*
G01*
%TO.C,R3*%
D10*
X120483333Y-90622380D02*
X120150000Y-90146190D01*
X119911904Y-90622380D02*
X119911904Y-89622380D01*
X120292857Y-89622380D01*
X120388095Y-89670000D01*
X120435714Y-89717619D01*
X120483333Y-89812857D01*
X120483333Y-89955714D01*
X120435714Y-90050952D01*
X120388095Y-90098571D01*
X120292857Y-90146190D01*
X119911904Y-90146190D01*
X120816666Y-89622380D02*
X121435714Y-89622380D01*
X121102380Y-90003333D01*
X121245238Y-90003333D01*
X121340476Y-90050952D01*
X121388095Y-90098571D01*
X121435714Y-90193809D01*
X121435714Y-90431904D01*
X121388095Y-90527142D01*
X121340476Y-90574761D01*
X121245238Y-90622380D01*
X120959523Y-90622380D01*
X120864285Y-90574761D01*
X120816666Y-90527142D01*
%TO.C,R2*%
X120483333Y-88082380D02*
X120150000Y-87606190D01*
X119911904Y-88082380D02*
X119911904Y-87082380D01*
X120292857Y-87082380D01*
X120388095Y-87130000D01*
X120435714Y-87177619D01*
X120483333Y-87272857D01*
X120483333Y-87415714D01*
X120435714Y-87510952D01*
X120388095Y-87558571D01*
X120292857Y-87606190D01*
X119911904Y-87606190D01*
X120864285Y-87177619D02*
X120911904Y-87130000D01*
X121007142Y-87082380D01*
X121245238Y-87082380D01*
X121340476Y-87130000D01*
X121388095Y-87177619D01*
X121435714Y-87272857D01*
X121435714Y-87368095D01*
X121388095Y-87510952D01*
X120816666Y-88082380D01*
X121435714Y-88082380D01*
%TO.C,R1*%
X120483333Y-85542380D02*
X120150000Y-85066190D01*
X119911904Y-85542380D02*
X119911904Y-84542380D01*
X120292857Y-84542380D01*
X120388095Y-84590000D01*
X120435714Y-84637619D01*
X120483333Y-84732857D01*
X120483333Y-84875714D01*
X120435714Y-84970952D01*
X120388095Y-85018571D01*
X120292857Y-85066190D01*
X119911904Y-85066190D01*
X121435714Y-85542380D02*
X120864285Y-85542380D01*
X121150000Y-85542380D02*
X121150000Y-84542380D01*
X121054761Y-84685238D01*
X120959523Y-84780476D01*
X120864285Y-84828095D01*
%TO.C,D3*%
X136421904Y-84272380D02*
X136421904Y-83272380D01*
X136660000Y-83272380D01*
X136802857Y-83320000D01*
X136898095Y-83415238D01*
X136945714Y-83510476D01*
X136993333Y-83700952D01*
X136993333Y-83843809D01*
X136945714Y-84034285D01*
X136898095Y-84129523D01*
X136802857Y-84224761D01*
X136660000Y-84272380D01*
X136421904Y-84272380D01*
X137326666Y-83272380D02*
X137945714Y-83272380D01*
X137612380Y-83653333D01*
X137755238Y-83653333D01*
X137850476Y-83700952D01*
X137898095Y-83748571D01*
X137945714Y-83843809D01*
X137945714Y-84081904D01*
X137898095Y-84177142D01*
X137850476Y-84224761D01*
X137755238Y-84272380D01*
X137469523Y-84272380D01*
X137374285Y-84224761D01*
X137326666Y-84177142D01*
%TO.C,D2*%
X131341904Y-84272380D02*
X131341904Y-83272380D01*
X131580000Y-83272380D01*
X131722857Y-83320000D01*
X131818095Y-83415238D01*
X131865714Y-83510476D01*
X131913333Y-83700952D01*
X131913333Y-83843809D01*
X131865714Y-84034285D01*
X131818095Y-84129523D01*
X131722857Y-84224761D01*
X131580000Y-84272380D01*
X131341904Y-84272380D01*
X132294285Y-83367619D02*
X132341904Y-83320000D01*
X132437142Y-83272380D01*
X132675238Y-83272380D01*
X132770476Y-83320000D01*
X132818095Y-83367619D01*
X132865714Y-83462857D01*
X132865714Y-83558095D01*
X132818095Y-83700952D01*
X132246666Y-84272380D01*
X132865714Y-84272380D01*
%TO.C,D1*%
X126261904Y-84272380D02*
X126261904Y-83272380D01*
X126500000Y-83272380D01*
X126642857Y-83320000D01*
X126738095Y-83415238D01*
X126785714Y-83510476D01*
X126833333Y-83700952D01*
X126833333Y-83843809D01*
X126785714Y-84034285D01*
X126738095Y-84129523D01*
X126642857Y-84224761D01*
X126500000Y-84272380D01*
X126261904Y-84272380D01*
X127785714Y-84272380D02*
X127214285Y-84272380D01*
X127500000Y-84272380D02*
X127500000Y-83272380D01*
X127404761Y-83415238D01*
X127309523Y-83510476D01*
X127214285Y-83558095D01*
%TD*%
M02*
