M48
; DRILL file {KiCad (5.1.10-1-10_14)} date Wednesday, October 20, 2021 at 08:19:20 AM
; FORMAT={-:-/ absolute / inch / decimal}
; #@! TF.CreationDate,2021-10-20T08:19:20-04:00
; #@! TF.GenerationSoftware,Kicad,Pcbnew,(5.1.10-1-10_14)
; #@! TF.FileFunction,Plated,1,2,PTH
FMAT,2
INCH
T1C0.0276
T2C0.0354
T3C0.0394
T4C0.0984
%
G90
G05
T1
X4.65Y-3.35
X4.65Y-3.45
X4.65Y-3.55
X4.85Y-3.35
X4.85Y-3.45
X4.85Y-3.55
T2
X5.0Y-3.4
X5.0Y-3.5
X5.2Y-3.4
X5.2Y-3.5
X5.4Y-3.4
X5.4Y-3.5
T3
X4.45Y-3.3
X4.45Y-3.4
X4.45Y-3.5
X4.45Y-3.6
T4
X4.65Y-3.15
X4.65Y-3.75
X5.35Y-3.15
X5.35Y-3.75
T0
M30
