%TF.GenerationSoftware,KiCad,Pcbnew,(5.1.10-1-10_14)*%
%TF.CreationDate,2021-10-20T08:18:25-04:00*%
%TF.ProjectId,traffic-light,74726166-6669-4632-9d6c-696768742e6b,rev?*%
%TF.SameCoordinates,Original*%
%TF.FileFunction,Copper,L1,Top*%
%TF.FilePolarity,Positive*%
%FSLAX46Y46*%
G04 Gerber Fmt 4.6, Leading zero omitted, Abs format (unit mm)*
G04 Created by KiCad (PCBNEW (5.1.10-1-10_14)) date 2021-10-20 08:18:25*
%MOMM*%
%LPD*%
G01*
G04 APERTURE LIST*
%TA.AperFunction,ComponentPad*%
%ADD10O,1.400000X1.400000*%
%TD*%
%TA.AperFunction,ComponentPad*%
%ADD11C,1.400000*%
%TD*%
%TA.AperFunction,ComponentPad*%
%ADD12O,1.700000X1.700000*%
%TD*%
%TA.AperFunction,ComponentPad*%
%ADD13R,1.700000X1.700000*%
%TD*%
%TA.AperFunction,ComponentPad*%
%ADD14C,5.000000*%
%TD*%
%TA.AperFunction,ComponentPad*%
%ADD15C,1.800000*%
%TD*%
%TA.AperFunction,ComponentPad*%
%ADD16R,1.800000X1.800000*%
%TD*%
%TA.AperFunction,Conductor*%
%ADD17C,0.250000*%
%TD*%
G04 APERTURE END LIST*
D10*
%TO.P,R3,2*%
%TO.N,Net-(J1-Pad4)*%
X118110000Y-90170000D03*
D11*
%TO.P,R3,1*%
%TO.N,Net-(D3-Pad2)*%
X123190000Y-90170000D03*
%TD*%
D10*
%TO.P,R2,2*%
%TO.N,Net-(J1-Pad3)*%
X118110000Y-87630000D03*
D11*
%TO.P,R2,1*%
%TO.N,Net-(D2-Pad2)*%
X123190000Y-87630000D03*
%TD*%
D10*
%TO.P,R1,2*%
%TO.N,Net-(J1-Pad2)*%
X118110000Y-85090000D03*
D11*
%TO.P,R1,1*%
%TO.N,Net-(D1-Pad2)*%
X123190000Y-85090000D03*
%TD*%
D12*
%TO.P,J1,4*%
%TO.N,Net-(J1-Pad4)*%
X113030000Y-91440000D03*
%TO.P,J1,3*%
%TO.N,Net-(J1-Pad3)*%
X113030000Y-88900000D03*
%TO.P,J1,2*%
%TO.N,Net-(J1-Pad2)*%
X113030000Y-86360000D03*
D13*
%TO.P,J1,1*%
%TO.N,Net-(D1-Pad1)*%
X113030000Y-83820000D03*
%TD*%
D14*
%TO.P,H4,1*%
%TO.N,N/C*%
X135890000Y-95250000D03*
%TD*%
%TO.P,H3,1*%
%TO.N,N/C*%
X118110000Y-95250000D03*
%TD*%
%TO.P,H2,1*%
%TO.N,N/C*%
X135890000Y-80010000D03*
%TD*%
%TO.P,H1,1*%
%TO.N,N/C*%
X118110000Y-80010000D03*
%TD*%
D15*
%TO.P,D3,2*%
%TO.N,Net-(D3-Pad2)*%
X137160000Y-88900000D03*
D16*
%TO.P,D3,1*%
%TO.N,Net-(D1-Pad1)*%
X137160000Y-86360000D03*
%TD*%
D15*
%TO.P,D2,2*%
%TO.N,Net-(D2-Pad2)*%
X132080000Y-88900000D03*
D16*
%TO.P,D2,1*%
%TO.N,Net-(D1-Pad1)*%
X132080000Y-86360000D03*
%TD*%
D15*
%TO.P,D1,2*%
%TO.N,Net-(D1-Pad2)*%
X127000000Y-88900000D03*
D16*
%TO.P,D1,1*%
%TO.N,Net-(D1-Pad1)*%
X127000000Y-86360000D03*
%TD*%
D17*
%TO.N,Net-(D1-Pad2)*%
X123190000Y-85090000D02*
X127000000Y-88900000D01*
%TO.N,Net-(D1-Pad1)*%
X124460000Y-83820000D02*
X127000000Y-86360000D01*
X113030000Y-83820000D02*
X124460000Y-83820000D01*
X127000000Y-86360000D02*
X132080000Y-86360000D01*
X137160000Y-86360000D02*
X132080000Y-86360000D01*
%TO.N,Net-(D2-Pad2)*%
X130854999Y-90125001D02*
X132080000Y-88900000D01*
X125685001Y-90125001D02*
X130854999Y-90125001D01*
X123190000Y-87630000D02*
X125685001Y-90125001D01*
%TO.N,Net-(D3-Pad2)*%
X135190001Y-90869999D02*
X137160000Y-88900000D01*
X123889999Y-90869999D02*
X135190001Y-90869999D01*
X123190000Y-90170000D02*
X123889999Y-90869999D01*
%TO.N,Net-(J1-Pad4)*%
X113030000Y-91440000D02*
X114300000Y-91440000D01*
X114300000Y-91440000D02*
X115570000Y-90170000D01*
X115570000Y-90170000D02*
X118110000Y-90170000D01*
%TO.N,Net-(J1-Pad3)*%
X113030000Y-88900000D02*
X114300000Y-88900000D01*
X114300000Y-88900000D02*
X115570000Y-87630000D01*
X115570000Y-87630000D02*
X118110000Y-87630000D01*
%TO.N,Net-(J1-Pad2)*%
X113030000Y-86360000D02*
X114300000Y-86360000D01*
X114300000Y-86360000D02*
X115570000Y-85090000D01*
X115570000Y-85090000D02*
X118110000Y-85090000D01*
%TD*%
M02*
