%FSLAX45Y45*%
G04 Gerber Fmt 4.5, Leading zero omitted, Abs format (unit mm)*
G04 Created by KiCad (PCBNEW (5.1.12)-1) date 2022-02-05 21:04:31*
%MOMM*%
%LPD*%
G01*
G04 APERTURE LIST*
%TA.AperFunction,Profile*%
%ADD10C,0.050000*%
%TD*%
%ADD11C,0.200000*%
%ADD12C,0.300000*%
G04 APERTURE END LIST*
D10*
X16052800Y-7289800D02*
G75*
G02*
X16306800Y-7543800I0J-254000D01*
G01*
X16306800Y-8864600D02*
G75*
G02*
X16052800Y-9118600I-254000J0D01*
G01*
X16306800Y-8864600D02*
X16306800Y-7543800D01*
X11634598Y-7543645D02*
G75*
G02*
X11861800Y-7289800I227202J25245D01*
G01*
X11861800Y-9120007D02*
G75*
G02*
X11633200Y-8915400I0J230007D01*
G01*
X11861800Y-9120007D02*
X16052800Y-9118600D01*
X11861800Y-7289800D02*
X16052800Y-7289800D01*
X11633200Y-8915400D02*
X11634598Y-7543645D01*
D11*
X14158200Y-8291856D02*
X14188200Y-8321856D01*
X14188200Y-8291856D02*
X14158200Y-8321856D01*
X14590000Y-8062200D02*
X14620000Y-8092200D01*
X14620000Y-8062200D02*
X14590000Y-8092200D01*
X14602700Y-8405100D02*
X14632700Y-8435100D01*
X14632700Y-8405100D02*
X14602700Y-8435100D01*
X14869398Y-8405100D02*
X14899398Y-8435100D01*
X14899398Y-8405100D02*
X14869398Y-8435100D01*
X12191156Y-8405787D02*
G75*
G03*
X12191156Y-8405787I-20000J0D01*
G01*
X12199300Y-8509000D02*
G75*
G03*
X12199300Y-8509000I-20000J0D01*
G01*
X12199300Y-8597900D02*
G75*
G03*
X12199300Y-8597900I-20000J0D01*
G01*
X12288200Y-8102600D02*
G75*
G03*
X12288200Y-8102600I-20000J0D01*
G01*
X12288200Y-8597900D02*
G75*
G03*
X12288200Y-8597900I-20000J0D01*
G01*
X12389800Y-8382000D02*
G75*
G03*
X12389800Y-8382000I-20000J0D01*
G01*
X12440600Y-8636000D02*
G75*
G03*
X12440600Y-8636000I-20000J0D01*
G01*
X12466000Y-8051800D02*
G75*
G03*
X12466000Y-8051800I-20000J0D01*
G01*
X12605700Y-8382000D02*
G75*
G03*
X12605700Y-8382000I-20000J0D01*
G01*
X12867574Y-8076831D02*
G75*
G03*
X12867574Y-8076831I-20000J0D01*
G01*
X12872400Y-8204200D02*
G75*
G03*
X12872400Y-8204200I-20000J0D01*
G01*
X12974000Y-7518400D02*
G75*
G03*
X12974000Y-7518400I-20000J0D01*
G01*
X13101000Y-7518400D02*
G75*
G03*
X13101000Y-7518400I-20000J0D01*
G01*
X13177200Y-7823200D02*
G75*
G03*
X13177200Y-7823200I-20000J0D01*
G01*
X13177200Y-8178800D02*
G75*
G03*
X13177200Y-8178800I-20000J0D01*
G01*
X13278800Y-8178800D02*
G75*
G03*
X13278800Y-8178800I-20000J0D01*
G01*
X13380400Y-8077200D02*
G75*
G03*
X13380400Y-8077200I-20000J0D01*
G01*
X13380400Y-8178800D02*
G75*
G03*
X13380400Y-8178800I-20000J0D01*
G01*
X13545498Y-8439900D02*
G75*
G03*
X13545498Y-8439900I-20000J0D01*
G01*
X13659800Y-8623300D02*
G75*
G03*
X13659800Y-8623300I-20000J0D01*
G01*
X13723300Y-7835900D02*
G75*
G03*
X13723300Y-7835900I-20000J0D01*
G01*
X13786800Y-7645400D02*
G75*
G03*
X13786800Y-7645400I-20000J0D01*
G01*
X13837600Y-8102600D02*
G75*
G03*
X13837600Y-8102600I-20000J0D01*
G01*
X13837600Y-8178800D02*
G75*
G03*
X13837600Y-8178800I-20000J0D01*
G01*
X13837600Y-8255000D02*
G75*
G03*
X13837600Y-8255000I-20000J0D01*
G01*
X13913800Y-7823200D02*
G75*
G03*
X13913800Y-7823200I-20000J0D01*
G01*
X14002700Y-7645400D02*
G75*
G03*
X14002700Y-7645400I-20000J0D01*
G01*
X14040800Y-7543800D02*
G75*
G03*
X14040800Y-7543800I-20000J0D01*
G01*
X14104300Y-7645400D02*
G75*
G03*
X14104300Y-7645400I-20000J0D01*
G01*
X14180500Y-7823200D02*
G75*
G03*
X14180500Y-7823200I-20000J0D01*
G01*
X14282100Y-7912100D02*
G75*
G03*
X14282100Y-7912100I-20000J0D01*
G01*
X14612300Y-7772400D02*
G75*
G03*
X14612300Y-7772400I-20000J0D01*
G01*
X14663100Y-8534400D02*
G75*
G03*
X14663100Y-8534400I-20000J0D01*
G01*
X14917100Y-7569200D02*
G75*
G03*
X14917100Y-7569200I-20000J0D01*
G01*
X15006000Y-7569200D02*
G75*
G03*
X15006000Y-7569200I-20000J0D01*
G01*
X15107600Y-7569200D02*
G75*
G03*
X15107600Y-7569200I-20000J0D01*
G01*
X15196500Y-7569200D02*
G75*
G03*
X15196500Y-7569200I-20000J0D01*
G01*
X15196500Y-8801100D02*
G75*
G03*
X15196500Y-8801100I-20000J0D01*
G01*
X15212451Y-7819950D02*
G75*
G03*
X15212451Y-7819950I-20000J0D01*
G01*
X15221900Y-7899403D02*
G75*
G03*
X15221900Y-7899403I-20000J0D01*
G01*
X15374300Y-7366000D02*
G75*
G03*
X15374300Y-7366000I-20000J0D01*
G01*
X15374300Y-7645400D02*
G75*
G03*
X15374300Y-7645400I-20000J0D01*
G01*
X15374300Y-7937500D02*
G75*
G03*
X15374300Y-7937500I-20000J0D01*
G01*
X15374300Y-8394700D02*
G75*
G03*
X15374300Y-8394700I-20000J0D01*
G01*
X15374300Y-8712200D02*
G75*
G03*
X15374300Y-8712200I-20000J0D01*
G01*
X15374300Y-9042400D02*
G75*
G03*
X15374300Y-9042400I-20000J0D01*
G01*
X15653700Y-8255000D02*
G75*
G03*
X15653700Y-8255000I-20000J0D01*
G01*
X15653700Y-8356600D02*
G75*
G03*
X15653700Y-8356600I-20000J0D01*
G01*
X15691800Y-7366000D02*
G75*
G03*
X15691800Y-7366000I-20000J0D01*
G01*
X15691800Y-9042400D02*
G75*
G03*
X15691800Y-9042400I-20000J0D01*
G01*
X15780700Y-7874000D02*
G75*
G03*
X15780700Y-7874000I-20000J0D01*
G01*
X15971200Y-7366000D02*
G75*
G03*
X15971200Y-7366000I-20000J0D01*
G01*
X15971200Y-9042400D02*
G75*
G03*
X15971200Y-9042400I-20000J0D01*
G01*
X15996600Y-7721600D02*
G75*
G03*
X15996600Y-7721600I-20000J0D01*
G01*
X15996600Y-8636000D02*
G75*
G03*
X15996600Y-8636000I-20000J0D01*
G01*
X16123600Y-7734300D02*
G75*
G03*
X16123600Y-7734300I-20000J0D01*
G01*
X16123600Y-8623300D02*
G75*
G03*
X16123600Y-8623300I-20000J0D01*
G01*
X16250600Y-7747000D02*
G75*
G03*
X16250600Y-7747000I-20000J0D01*
G01*
X16250600Y-8610600D02*
G75*
G03*
X16250600Y-8610600I-20000J0D01*
G01*
X11776250Y-7820000D02*
X11776250Y-7880000D01*
X11746250Y-7850000D02*
X11806250Y-7850000D01*
X11741250Y-7870000D02*
X11811250Y-7870000D01*
X11741250Y-7830000D02*
X11811250Y-7830000D01*
X11811250Y-7870000D02*
G75*
G03*
X11811250Y-7830000I0J20000D01*
G01*
X11741250Y-7830000D02*
G75*
G03*
X11741250Y-7870000I0J-20000D01*
G01*
X11776250Y-8520000D02*
X11776250Y-8580000D01*
X11746250Y-8550000D02*
X11806250Y-8550000D01*
X11811250Y-8530000D02*
X11741250Y-8530000D01*
X11811250Y-8570000D02*
X11741250Y-8570000D01*
X11741250Y-8530000D02*
G75*
G03*
X11741250Y-8570000I0J-20000D01*
G01*
X11811250Y-8570000D02*
G75*
G03*
X11811250Y-8530000I0J20000D01*
G01*
X12519781Y-8836781D02*
X12519781Y-8790819D01*
X12473819Y-8790819D01*
X12473819Y-8836781D01*
X12519781Y-8836781D01*
X12519781Y-8963781D02*
X12519781Y-8917819D01*
X12473819Y-8917819D01*
X12473819Y-8963781D01*
X12519781Y-8963781D01*
X12646781Y-8836781D02*
X12646781Y-8790819D01*
X12600819Y-8790819D01*
X12600819Y-8836781D01*
X12646781Y-8836781D01*
X12646781Y-8963781D02*
X12646781Y-8917819D01*
X12600819Y-8917819D01*
X12600819Y-8963781D01*
X12646781Y-8963781D01*
X12773781Y-8836781D02*
X12773781Y-8790819D01*
X12727819Y-8790819D01*
X12727819Y-8836781D01*
X12773781Y-8836781D01*
X12773781Y-8963781D02*
X12773781Y-8917819D01*
X12727819Y-8917819D01*
X12727819Y-8963781D01*
X12773781Y-8963781D01*
X12900781Y-8836781D02*
X12900781Y-8790819D01*
X12854819Y-8790819D01*
X12854819Y-8836781D01*
X12900781Y-8836781D01*
X12900781Y-8963781D02*
X12900781Y-8917819D01*
X12854819Y-8917819D01*
X12854819Y-8963781D01*
X12900781Y-8963781D01*
X13027781Y-8836781D02*
X13027781Y-8790819D01*
X12981819Y-8790819D01*
X12981819Y-8836781D01*
X13027781Y-8836781D01*
X13027781Y-8963781D02*
X13027781Y-8917819D01*
X12981819Y-8917819D01*
X12981819Y-8963781D01*
X13027781Y-8963781D01*
X12046250Y-7992500D02*
X12088750Y-7950000D01*
X12046250Y-7907500D01*
X12003750Y-7950000D01*
X12046250Y-7992500D01*
X12046250Y-8492500D02*
X12088750Y-8450000D01*
X12046250Y-8407500D01*
X12003750Y-8450000D01*
X12046250Y-8492500D01*
X11751800Y-7408400D02*
X11971800Y-7628400D01*
X11971800Y-7408400D02*
X11751800Y-7628400D01*
X11971800Y-7518400D02*
G75*
G03*
X11971800Y-7518400I-110000J0D01*
G01*
X11751800Y-8780000D02*
X11971800Y-9000000D01*
X11971800Y-8780000D02*
X11751800Y-9000000D01*
X11971800Y-8890000D02*
G75*
G03*
X11971800Y-8890000I-110000J0D01*
G01*
X14266400Y-7408400D02*
X14486400Y-7628400D01*
X14486400Y-7408400D02*
X14266400Y-7628400D01*
X14486400Y-7518400D02*
G75*
G03*
X14486400Y-7518400I-110000J0D01*
G01*
X14266400Y-8780000D02*
X14486400Y-9000000D01*
X14486400Y-8780000D02*
X14266400Y-9000000D01*
X14486400Y-8890000D02*
G75*
G03*
X14486400Y-8890000I-110000J0D01*
G01*
D12*
X11917128Y-9588221D02*
X11917128Y-9288221D01*
X11988557Y-9288221D01*
X12031414Y-9302507D01*
X12059986Y-9331078D01*
X12074271Y-9359650D01*
X12088557Y-9416793D01*
X12088557Y-9459650D01*
X12074271Y-9516793D01*
X12059986Y-9545364D01*
X12031414Y-9573935D01*
X11988557Y-9588221D01*
X11917128Y-9588221D01*
X12217128Y-9588221D02*
X12217128Y-9388221D01*
X12217128Y-9445364D02*
X12231414Y-9416793D01*
X12245700Y-9402507D01*
X12274271Y-9388221D01*
X12302843Y-9388221D01*
X12402843Y-9588221D02*
X12402843Y-9388221D01*
X12402843Y-9288221D02*
X12388557Y-9302507D01*
X12402843Y-9316793D01*
X12417128Y-9302507D01*
X12402843Y-9288221D01*
X12402843Y-9316793D01*
X12588557Y-9588221D02*
X12559986Y-9573935D01*
X12545700Y-9545364D01*
X12545700Y-9288221D01*
X12745700Y-9588221D02*
X12717128Y-9573935D01*
X12702843Y-9545364D01*
X12702843Y-9288221D01*
X13088557Y-9588221D02*
X13088557Y-9288221D01*
X13188557Y-9502507D01*
X13288557Y-9288221D01*
X13288557Y-9588221D01*
X13559986Y-9588221D02*
X13559986Y-9431078D01*
X13545700Y-9402507D01*
X13517128Y-9388221D01*
X13459986Y-9388221D01*
X13431414Y-9402507D01*
X13559986Y-9573935D02*
X13531414Y-9588221D01*
X13459986Y-9588221D01*
X13431414Y-9573935D01*
X13417128Y-9545364D01*
X13417128Y-9516793D01*
X13431414Y-9488221D01*
X13459986Y-9473935D01*
X13531414Y-9473935D01*
X13559986Y-9459650D01*
X13702843Y-9388221D02*
X13702843Y-9688221D01*
X13702843Y-9402507D02*
X13731414Y-9388221D01*
X13788557Y-9388221D01*
X13817128Y-9402507D01*
X13831414Y-9416793D01*
X13845700Y-9445364D01*
X13845700Y-9531078D01*
X13831414Y-9559650D01*
X13817128Y-9573935D01*
X13788557Y-9588221D01*
X13731414Y-9588221D01*
X13702843Y-9573935D01*
X13974271Y-9559650D02*
X13988557Y-9573935D01*
X13974271Y-9588221D01*
X13959986Y-9573935D01*
X13974271Y-9559650D01*
X13974271Y-9588221D01*
X13974271Y-9402507D02*
X13988557Y-9416793D01*
X13974271Y-9431078D01*
X13959986Y-9416793D01*
X13974271Y-9402507D01*
X13974271Y-9431078D01*
X11600700Y-10067507D02*
X11630700Y-10097507D01*
X11630700Y-10067507D02*
X11600700Y-10097507D01*
X11974271Y-9918221D02*
X12002843Y-9918221D01*
X12031414Y-9932507D01*
X12045700Y-9946793D01*
X12059986Y-9975364D01*
X12074271Y-10032507D01*
X12074271Y-10103935D01*
X12059986Y-10161078D01*
X12045700Y-10189650D01*
X12031414Y-10203935D01*
X12002843Y-10218221D01*
X11974271Y-10218221D01*
X11945700Y-10203935D01*
X11931414Y-10189650D01*
X11917128Y-10161078D01*
X11902843Y-10103935D01*
X11902843Y-10032507D01*
X11917128Y-9975364D01*
X11931414Y-9946793D01*
X11945700Y-9932507D01*
X11974271Y-9918221D01*
X12202843Y-10189650D02*
X12217128Y-10203935D01*
X12202843Y-10218221D01*
X12188557Y-10203935D01*
X12202843Y-10189650D01*
X12202843Y-10218221D01*
X12317128Y-9918221D02*
X12502843Y-9918221D01*
X12402843Y-10032507D01*
X12445700Y-10032507D01*
X12474271Y-10046793D01*
X12488557Y-10061078D01*
X12502843Y-10089650D01*
X12502843Y-10161078D01*
X12488557Y-10189650D01*
X12474271Y-10203935D01*
X12445700Y-10218221D01*
X12359986Y-10218221D01*
X12331414Y-10203935D01*
X12317128Y-10189650D01*
X12688557Y-9918221D02*
X12717128Y-9918221D01*
X12745700Y-9932507D01*
X12759986Y-9946793D01*
X12774271Y-9975364D01*
X12788557Y-10032507D01*
X12788557Y-10103935D01*
X12774271Y-10161078D01*
X12759986Y-10189650D01*
X12745700Y-10203935D01*
X12717128Y-10218221D01*
X12688557Y-10218221D01*
X12659986Y-10203935D01*
X12645700Y-10189650D01*
X12631414Y-10161078D01*
X12617128Y-10103935D01*
X12617128Y-10032507D01*
X12631414Y-9975364D01*
X12645700Y-9946793D01*
X12659986Y-9932507D01*
X12688557Y-9918221D01*
X12974271Y-9918221D02*
X13002843Y-9918221D01*
X13031414Y-9932507D01*
X13045700Y-9946793D01*
X13059986Y-9975364D01*
X13074271Y-10032507D01*
X13074271Y-10103935D01*
X13059986Y-10161078D01*
X13045700Y-10189650D01*
X13031414Y-10203935D01*
X13002843Y-10218221D01*
X12974271Y-10218221D01*
X12945700Y-10203935D01*
X12931414Y-10189650D01*
X12917128Y-10161078D01*
X12902843Y-10103935D01*
X12902843Y-10032507D01*
X12917128Y-9975364D01*
X12931414Y-9946793D01*
X12945700Y-9932507D01*
X12974271Y-9918221D01*
X13202843Y-10218221D02*
X13202843Y-10018221D01*
X13202843Y-10046793D02*
X13217128Y-10032507D01*
X13245700Y-10018221D01*
X13288557Y-10018221D01*
X13317128Y-10032507D01*
X13331414Y-10061078D01*
X13331414Y-10218221D01*
X13331414Y-10061078D02*
X13345700Y-10032507D01*
X13374271Y-10018221D01*
X13417128Y-10018221D01*
X13445700Y-10032507D01*
X13459986Y-10061078D01*
X13459986Y-10218221D01*
X13602843Y-10218221D02*
X13602843Y-10018221D01*
X13602843Y-10046793D02*
X13617128Y-10032507D01*
X13645700Y-10018221D01*
X13688557Y-10018221D01*
X13717128Y-10032507D01*
X13731414Y-10061078D01*
X13731414Y-10218221D01*
X13731414Y-10061078D02*
X13745700Y-10032507D01*
X13774271Y-10018221D01*
X13817128Y-10018221D01*
X13845700Y-10032507D01*
X13859986Y-10061078D01*
X13859986Y-10218221D01*
X14445700Y-9903935D02*
X14188557Y-10289650D01*
X14831414Y-9918221D02*
X14859986Y-9918221D01*
X14888557Y-9932507D01*
X14902843Y-9946793D01*
X14917128Y-9975364D01*
X14931414Y-10032507D01*
X14931414Y-10103935D01*
X14917128Y-10161078D01*
X14902843Y-10189650D01*
X14888557Y-10203935D01*
X14859986Y-10218221D01*
X14831414Y-10218221D01*
X14802843Y-10203935D01*
X14788557Y-10189650D01*
X14774271Y-10161078D01*
X14759986Y-10103935D01*
X14759986Y-10032507D01*
X14774271Y-9975364D01*
X14788557Y-9946793D01*
X14802843Y-9932507D01*
X14831414Y-9918221D01*
X15059986Y-10189650D02*
X15074271Y-10203935D01*
X15059986Y-10218221D01*
X15045700Y-10203935D01*
X15059986Y-10189650D01*
X15059986Y-10218221D01*
X15259986Y-9918221D02*
X15288557Y-9918221D01*
X15317128Y-9932507D01*
X15331414Y-9946793D01*
X15345700Y-9975364D01*
X15359986Y-10032507D01*
X15359986Y-10103935D01*
X15345700Y-10161078D01*
X15331414Y-10189650D01*
X15317128Y-10203935D01*
X15288557Y-10218221D01*
X15259986Y-10218221D01*
X15231414Y-10203935D01*
X15217128Y-10189650D01*
X15202843Y-10161078D01*
X15188557Y-10103935D01*
X15188557Y-10032507D01*
X15202843Y-9975364D01*
X15217128Y-9946793D01*
X15231414Y-9932507D01*
X15259986Y-9918221D01*
X15645700Y-10218221D02*
X15474271Y-10218221D01*
X15559986Y-10218221D02*
X15559986Y-9918221D01*
X15531414Y-9961078D01*
X15502843Y-9989650D01*
X15474271Y-10003935D01*
X15931414Y-10218221D02*
X15759986Y-10218221D01*
X15845700Y-10218221D02*
X15845700Y-9918221D01*
X15817128Y-9961078D01*
X15788557Y-9989650D01*
X15759986Y-10003935D01*
X16102843Y-10046793D02*
X16074271Y-10032507D01*
X16059986Y-10018221D01*
X16045700Y-9989650D01*
X16045700Y-9975364D01*
X16059986Y-9946793D01*
X16074271Y-9932507D01*
X16102843Y-9918221D01*
X16159986Y-9918221D01*
X16188557Y-9932507D01*
X16202843Y-9946793D01*
X16217128Y-9975364D01*
X16217128Y-9989650D01*
X16202843Y-10018221D01*
X16188557Y-10032507D01*
X16159986Y-10046793D01*
X16102843Y-10046793D01*
X16074271Y-10061078D01*
X16059986Y-10075364D01*
X16045700Y-10103935D01*
X16045700Y-10161078D01*
X16059986Y-10189650D01*
X16074271Y-10203935D01*
X16102843Y-10218221D01*
X16159986Y-10218221D01*
X16188557Y-10203935D01*
X16202843Y-10189650D01*
X16217128Y-10161078D01*
X16217128Y-10103935D01*
X16202843Y-10075364D01*
X16188557Y-10061078D01*
X16159986Y-10046793D01*
X16331414Y-9918221D02*
X16331414Y-9975364D01*
X16445700Y-9918221D02*
X16445700Y-9975364D01*
X16888557Y-10332507D02*
X16874271Y-10318221D01*
X16845700Y-10275364D01*
X16831414Y-10246793D01*
X16817128Y-10203935D01*
X16802843Y-10132507D01*
X16802843Y-10075364D01*
X16817128Y-10003935D01*
X16831414Y-9961078D01*
X16845700Y-9932507D01*
X16874271Y-9889650D01*
X16888557Y-9875364D01*
X17131414Y-10018221D02*
X17131414Y-10218221D01*
X17059986Y-9903935D02*
X16988557Y-10118221D01*
X17174271Y-10118221D01*
X17517128Y-10218221D02*
X17517128Y-9918221D01*
X17645700Y-10218221D02*
X17645700Y-10061078D01*
X17631414Y-10032507D01*
X17602843Y-10018221D01*
X17559986Y-10018221D01*
X17531414Y-10032507D01*
X17517128Y-10046793D01*
X17831414Y-10218221D02*
X17802843Y-10203935D01*
X17788557Y-10189650D01*
X17774271Y-10161078D01*
X17774271Y-10075364D01*
X17788557Y-10046793D01*
X17802843Y-10032507D01*
X17831414Y-10018221D01*
X17874271Y-10018221D01*
X17902843Y-10032507D01*
X17917128Y-10046793D01*
X17931414Y-10075364D01*
X17931414Y-10161078D01*
X17917128Y-10189650D01*
X17902843Y-10203935D01*
X17874271Y-10218221D01*
X17831414Y-10218221D01*
X18102843Y-10218221D02*
X18074271Y-10203935D01*
X18059986Y-10175364D01*
X18059986Y-9918221D01*
X18331414Y-10203935D02*
X18302843Y-10218221D01*
X18245700Y-10218221D01*
X18217128Y-10203935D01*
X18202843Y-10175364D01*
X18202843Y-10061078D01*
X18217128Y-10032507D01*
X18245700Y-10018221D01*
X18302843Y-10018221D01*
X18331414Y-10032507D01*
X18345700Y-10061078D01*
X18345700Y-10089650D01*
X18202843Y-10118221D01*
X18459986Y-10203935D02*
X18488557Y-10218221D01*
X18545700Y-10218221D01*
X18574271Y-10203935D01*
X18588557Y-10175364D01*
X18588557Y-10161078D01*
X18574271Y-10132507D01*
X18545700Y-10118221D01*
X18502843Y-10118221D01*
X18474271Y-10103935D01*
X18459986Y-10075364D01*
X18459986Y-10061078D01*
X18474271Y-10032507D01*
X18502843Y-10018221D01*
X18545700Y-10018221D01*
X18574271Y-10032507D01*
X18688557Y-10332507D02*
X18702843Y-10318221D01*
X18731414Y-10275364D01*
X18745700Y-10246793D01*
X18759986Y-10203935D01*
X18774271Y-10132507D01*
X18774271Y-10075364D01*
X18759986Y-10003935D01*
X18745700Y-9961078D01*
X18731414Y-9932507D01*
X18702843Y-9889650D01*
X18688557Y-9875364D01*
X11630700Y-10478507D02*
G75*
G03*
X11630700Y-10478507I-20000J0D01*
G01*
X11974271Y-10314221D02*
X12002843Y-10314221D01*
X12031414Y-10328507D01*
X12045700Y-10342793D01*
X12059986Y-10371364D01*
X12074271Y-10428507D01*
X12074271Y-10499935D01*
X12059986Y-10557078D01*
X12045700Y-10585650D01*
X12031414Y-10599935D01*
X12002843Y-10614221D01*
X11974271Y-10614221D01*
X11945700Y-10599935D01*
X11931414Y-10585650D01*
X11917128Y-10557078D01*
X11902843Y-10499935D01*
X11902843Y-10428507D01*
X11917128Y-10371364D01*
X11931414Y-10342793D01*
X11945700Y-10328507D01*
X11974271Y-10314221D01*
X12202843Y-10585650D02*
X12217128Y-10599935D01*
X12202843Y-10614221D01*
X12188557Y-10599935D01*
X12202843Y-10585650D01*
X12202843Y-10614221D01*
X12474271Y-10414221D02*
X12474271Y-10614221D01*
X12402843Y-10299935D02*
X12331414Y-10514221D01*
X12517128Y-10514221D01*
X12688557Y-10314221D02*
X12717128Y-10314221D01*
X12745700Y-10328507D01*
X12759986Y-10342793D01*
X12774271Y-10371364D01*
X12788557Y-10428507D01*
X12788557Y-10499935D01*
X12774271Y-10557078D01*
X12759986Y-10585650D01*
X12745700Y-10599935D01*
X12717128Y-10614221D01*
X12688557Y-10614221D01*
X12659986Y-10599935D01*
X12645700Y-10585650D01*
X12631414Y-10557078D01*
X12617128Y-10499935D01*
X12617128Y-10428507D01*
X12631414Y-10371364D01*
X12645700Y-10342793D01*
X12659986Y-10328507D01*
X12688557Y-10314221D01*
X12974271Y-10314221D02*
X13002843Y-10314221D01*
X13031414Y-10328507D01*
X13045700Y-10342793D01*
X13059986Y-10371364D01*
X13074271Y-10428507D01*
X13074271Y-10499935D01*
X13059986Y-10557078D01*
X13045700Y-10585650D01*
X13031414Y-10599935D01*
X13002843Y-10614221D01*
X12974271Y-10614221D01*
X12945700Y-10599935D01*
X12931414Y-10585650D01*
X12917128Y-10557078D01*
X12902843Y-10499935D01*
X12902843Y-10428507D01*
X12917128Y-10371364D01*
X12931414Y-10342793D01*
X12945700Y-10328507D01*
X12974271Y-10314221D01*
X13202843Y-10614221D02*
X13202843Y-10414221D01*
X13202843Y-10442793D02*
X13217128Y-10428507D01*
X13245700Y-10414221D01*
X13288557Y-10414221D01*
X13317128Y-10428507D01*
X13331414Y-10457078D01*
X13331414Y-10614221D01*
X13331414Y-10457078D02*
X13345700Y-10428507D01*
X13374271Y-10414221D01*
X13417128Y-10414221D01*
X13445700Y-10428507D01*
X13459986Y-10457078D01*
X13459986Y-10614221D01*
X13602843Y-10614221D02*
X13602843Y-10414221D01*
X13602843Y-10442793D02*
X13617128Y-10428507D01*
X13645700Y-10414221D01*
X13688557Y-10414221D01*
X13717128Y-10428507D01*
X13731414Y-10457078D01*
X13731414Y-10614221D01*
X13731414Y-10457078D02*
X13745700Y-10428507D01*
X13774271Y-10414221D01*
X13817128Y-10414221D01*
X13845700Y-10428507D01*
X13859986Y-10457078D01*
X13859986Y-10614221D01*
X14445700Y-10299935D02*
X14188557Y-10685650D01*
X14831414Y-10314221D02*
X14859986Y-10314221D01*
X14888557Y-10328507D01*
X14902843Y-10342793D01*
X14917128Y-10371364D01*
X14931414Y-10428507D01*
X14931414Y-10499935D01*
X14917128Y-10557078D01*
X14902843Y-10585650D01*
X14888557Y-10599935D01*
X14859986Y-10614221D01*
X14831414Y-10614221D01*
X14802843Y-10599935D01*
X14788557Y-10585650D01*
X14774271Y-10557078D01*
X14759986Y-10499935D01*
X14759986Y-10428507D01*
X14774271Y-10371364D01*
X14788557Y-10342793D01*
X14802843Y-10328507D01*
X14831414Y-10314221D01*
X15059986Y-10585650D02*
X15074271Y-10599935D01*
X15059986Y-10614221D01*
X15045700Y-10599935D01*
X15059986Y-10585650D01*
X15059986Y-10614221D01*
X15259986Y-10314221D02*
X15288557Y-10314221D01*
X15317128Y-10328507D01*
X15331414Y-10342793D01*
X15345700Y-10371364D01*
X15359986Y-10428507D01*
X15359986Y-10499935D01*
X15345700Y-10557078D01*
X15331414Y-10585650D01*
X15317128Y-10599935D01*
X15288557Y-10614221D01*
X15259986Y-10614221D01*
X15231414Y-10599935D01*
X15217128Y-10585650D01*
X15202843Y-10557078D01*
X15188557Y-10499935D01*
X15188557Y-10428507D01*
X15202843Y-10371364D01*
X15217128Y-10342793D01*
X15231414Y-10328507D01*
X15259986Y-10314221D01*
X15645700Y-10614221D02*
X15474271Y-10614221D01*
X15559986Y-10614221D02*
X15559986Y-10314221D01*
X15531414Y-10357078D01*
X15502843Y-10385650D01*
X15474271Y-10399935D01*
X15917128Y-10314221D02*
X15774271Y-10314221D01*
X15759986Y-10457078D01*
X15774271Y-10442793D01*
X15802843Y-10428507D01*
X15874271Y-10428507D01*
X15902843Y-10442793D01*
X15917128Y-10457078D01*
X15931414Y-10485650D01*
X15931414Y-10557078D01*
X15917128Y-10585650D01*
X15902843Y-10599935D01*
X15874271Y-10614221D01*
X15802843Y-10614221D01*
X15774271Y-10599935D01*
X15759986Y-10585650D01*
X16031414Y-10314221D02*
X16231414Y-10314221D01*
X16102843Y-10614221D01*
X16331414Y-10314221D02*
X16331414Y-10371364D01*
X16445700Y-10314221D02*
X16445700Y-10371364D01*
X16888557Y-10728507D02*
X16874271Y-10714221D01*
X16845700Y-10671364D01*
X16831414Y-10642793D01*
X16817128Y-10599935D01*
X16802843Y-10528507D01*
X16802843Y-10471364D01*
X16817128Y-10399935D01*
X16831414Y-10357078D01*
X16845700Y-10328507D01*
X16874271Y-10285650D01*
X16888557Y-10271364D01*
X17145700Y-10314221D02*
X17002843Y-10314221D01*
X16988557Y-10457078D01*
X17002843Y-10442793D01*
X17031414Y-10428507D01*
X17102843Y-10428507D01*
X17131414Y-10442793D01*
X17145700Y-10457078D01*
X17159986Y-10485650D01*
X17159986Y-10557078D01*
X17145700Y-10585650D01*
X17131414Y-10599935D01*
X17102843Y-10614221D01*
X17031414Y-10614221D01*
X17002843Y-10599935D01*
X16988557Y-10585650D01*
X17302843Y-10614221D02*
X17359986Y-10614221D01*
X17388557Y-10599935D01*
X17402843Y-10585650D01*
X17431414Y-10542793D01*
X17445700Y-10485650D01*
X17445700Y-10371364D01*
X17431414Y-10342793D01*
X17417128Y-10328507D01*
X17388557Y-10314221D01*
X17331414Y-10314221D01*
X17302843Y-10328507D01*
X17288557Y-10342793D01*
X17274271Y-10371364D01*
X17274271Y-10442793D01*
X17288557Y-10471364D01*
X17302843Y-10485650D01*
X17331414Y-10499935D01*
X17388557Y-10499935D01*
X17417128Y-10485650D01*
X17431414Y-10471364D01*
X17445700Y-10442793D01*
X17802843Y-10614221D02*
X17802843Y-10314221D01*
X17931414Y-10614221D02*
X17931414Y-10457078D01*
X17917128Y-10428507D01*
X17888557Y-10414221D01*
X17845700Y-10414221D01*
X17817128Y-10428507D01*
X17802843Y-10442793D01*
X18117128Y-10614221D02*
X18088557Y-10599935D01*
X18074271Y-10585650D01*
X18059986Y-10557078D01*
X18059986Y-10471364D01*
X18074271Y-10442793D01*
X18088557Y-10428507D01*
X18117128Y-10414221D01*
X18159986Y-10414221D01*
X18188557Y-10428507D01*
X18202843Y-10442793D01*
X18217128Y-10471364D01*
X18217128Y-10557078D01*
X18202843Y-10585650D01*
X18188557Y-10599935D01*
X18159986Y-10614221D01*
X18117128Y-10614221D01*
X18388557Y-10614221D02*
X18359986Y-10599935D01*
X18345700Y-10571364D01*
X18345700Y-10314221D01*
X18617128Y-10599935D02*
X18588557Y-10614221D01*
X18531414Y-10614221D01*
X18502843Y-10599935D01*
X18488557Y-10571364D01*
X18488557Y-10457078D01*
X18502843Y-10428507D01*
X18531414Y-10414221D01*
X18588557Y-10414221D01*
X18617128Y-10428507D01*
X18631414Y-10457078D01*
X18631414Y-10485650D01*
X18488557Y-10514221D01*
X18745700Y-10599935D02*
X18774271Y-10614221D01*
X18831414Y-10614221D01*
X18859986Y-10599935D01*
X18874271Y-10571364D01*
X18874271Y-10557078D01*
X18859986Y-10528507D01*
X18831414Y-10514221D01*
X18788557Y-10514221D01*
X18759986Y-10499935D01*
X18745700Y-10471364D01*
X18745700Y-10457078D01*
X18759986Y-10428507D01*
X18788557Y-10414221D01*
X18831414Y-10414221D01*
X18859986Y-10428507D01*
X18974271Y-10728507D02*
X18988557Y-10714221D01*
X19017128Y-10671364D01*
X19031414Y-10642793D01*
X19045700Y-10599935D01*
X19059986Y-10528507D01*
X19059986Y-10471364D01*
X19045700Y-10399935D01*
X19031414Y-10357078D01*
X19017128Y-10328507D01*
X18988557Y-10285650D01*
X18974271Y-10271364D01*
X11600700Y-10844507D02*
X11600700Y-10904507D01*
X11570700Y-10874507D02*
X11630700Y-10874507D01*
X11974271Y-10710221D02*
X12002843Y-10710221D01*
X12031414Y-10724507D01*
X12045700Y-10738793D01*
X12059986Y-10767364D01*
X12074271Y-10824507D01*
X12074271Y-10895935D01*
X12059986Y-10953078D01*
X12045700Y-10981650D01*
X12031414Y-10995935D01*
X12002843Y-11010221D01*
X11974271Y-11010221D01*
X11945700Y-10995935D01*
X11931414Y-10981650D01*
X11917128Y-10953078D01*
X11902843Y-10895935D01*
X11902843Y-10824507D01*
X11917128Y-10767364D01*
X11931414Y-10738793D01*
X11945700Y-10724507D01*
X11974271Y-10710221D01*
X12202843Y-10981650D02*
X12217128Y-10995935D01*
X12202843Y-11010221D01*
X12188557Y-10995935D01*
X12202843Y-10981650D01*
X12202843Y-11010221D01*
X12474271Y-10710221D02*
X12417128Y-10710221D01*
X12388557Y-10724507D01*
X12374271Y-10738793D01*
X12345700Y-10781650D01*
X12331414Y-10838793D01*
X12331414Y-10953078D01*
X12345700Y-10981650D01*
X12359986Y-10995935D01*
X12388557Y-11010221D01*
X12445700Y-11010221D01*
X12474271Y-10995935D01*
X12488557Y-10981650D01*
X12502843Y-10953078D01*
X12502843Y-10881650D01*
X12488557Y-10853078D01*
X12474271Y-10838793D01*
X12445700Y-10824507D01*
X12388557Y-10824507D01*
X12359986Y-10838793D01*
X12345700Y-10853078D01*
X12331414Y-10881650D01*
X12688557Y-10710221D02*
X12717128Y-10710221D01*
X12745700Y-10724507D01*
X12759986Y-10738793D01*
X12774271Y-10767364D01*
X12788557Y-10824507D01*
X12788557Y-10895935D01*
X12774271Y-10953078D01*
X12759986Y-10981650D01*
X12745700Y-10995935D01*
X12717128Y-11010221D01*
X12688557Y-11010221D01*
X12659986Y-10995935D01*
X12645700Y-10981650D01*
X12631414Y-10953078D01*
X12617128Y-10895935D01*
X12617128Y-10824507D01*
X12631414Y-10767364D01*
X12645700Y-10738793D01*
X12659986Y-10724507D01*
X12688557Y-10710221D01*
X12974271Y-10710221D02*
X13002843Y-10710221D01*
X13031414Y-10724507D01*
X13045700Y-10738793D01*
X13059986Y-10767364D01*
X13074271Y-10824507D01*
X13074271Y-10895935D01*
X13059986Y-10953078D01*
X13045700Y-10981650D01*
X13031414Y-10995935D01*
X13002843Y-11010221D01*
X12974271Y-11010221D01*
X12945700Y-10995935D01*
X12931414Y-10981650D01*
X12917128Y-10953078D01*
X12902843Y-10895935D01*
X12902843Y-10824507D01*
X12917128Y-10767364D01*
X12931414Y-10738793D01*
X12945700Y-10724507D01*
X12974271Y-10710221D01*
X13202843Y-11010221D02*
X13202843Y-10810221D01*
X13202843Y-10838793D02*
X13217128Y-10824507D01*
X13245700Y-10810221D01*
X13288557Y-10810221D01*
X13317128Y-10824507D01*
X13331414Y-10853078D01*
X13331414Y-11010221D01*
X13331414Y-10853078D02*
X13345700Y-10824507D01*
X13374271Y-10810221D01*
X13417128Y-10810221D01*
X13445700Y-10824507D01*
X13459986Y-10853078D01*
X13459986Y-11010221D01*
X13602843Y-11010221D02*
X13602843Y-10810221D01*
X13602843Y-10838793D02*
X13617128Y-10824507D01*
X13645700Y-10810221D01*
X13688557Y-10810221D01*
X13717128Y-10824507D01*
X13731414Y-10853078D01*
X13731414Y-11010221D01*
X13731414Y-10853078D02*
X13745700Y-10824507D01*
X13774271Y-10810221D01*
X13817128Y-10810221D01*
X13845700Y-10824507D01*
X13859986Y-10853078D01*
X13859986Y-11010221D01*
X14445700Y-10695935D02*
X14188557Y-11081650D01*
X14831414Y-10710221D02*
X14859986Y-10710221D01*
X14888557Y-10724507D01*
X14902843Y-10738793D01*
X14917128Y-10767364D01*
X14931414Y-10824507D01*
X14931414Y-10895935D01*
X14917128Y-10953078D01*
X14902843Y-10981650D01*
X14888557Y-10995935D01*
X14859986Y-11010221D01*
X14831414Y-11010221D01*
X14802843Y-10995935D01*
X14788557Y-10981650D01*
X14774271Y-10953078D01*
X14759986Y-10895935D01*
X14759986Y-10824507D01*
X14774271Y-10767364D01*
X14788557Y-10738793D01*
X14802843Y-10724507D01*
X14831414Y-10710221D01*
X15059986Y-10981650D02*
X15074271Y-10995935D01*
X15059986Y-11010221D01*
X15045700Y-10995935D01*
X15059986Y-10981650D01*
X15059986Y-11010221D01*
X15259986Y-10710221D02*
X15288557Y-10710221D01*
X15317128Y-10724507D01*
X15331414Y-10738793D01*
X15345700Y-10767364D01*
X15359986Y-10824507D01*
X15359986Y-10895935D01*
X15345700Y-10953078D01*
X15331414Y-10981650D01*
X15317128Y-10995935D01*
X15288557Y-11010221D01*
X15259986Y-11010221D01*
X15231414Y-10995935D01*
X15217128Y-10981650D01*
X15202843Y-10953078D01*
X15188557Y-10895935D01*
X15188557Y-10824507D01*
X15202843Y-10767364D01*
X15217128Y-10738793D01*
X15231414Y-10724507D01*
X15259986Y-10710221D01*
X15474271Y-10738793D02*
X15488557Y-10724507D01*
X15517128Y-10710221D01*
X15588557Y-10710221D01*
X15617128Y-10724507D01*
X15631414Y-10738793D01*
X15645700Y-10767364D01*
X15645700Y-10795935D01*
X15631414Y-10838793D01*
X15459986Y-11010221D01*
X15645700Y-11010221D01*
X15745700Y-10710221D02*
X15931414Y-10710221D01*
X15831414Y-10824507D01*
X15874271Y-10824507D01*
X15902843Y-10838793D01*
X15917128Y-10853078D01*
X15931414Y-10881650D01*
X15931414Y-10953078D01*
X15917128Y-10981650D01*
X15902843Y-10995935D01*
X15874271Y-11010221D01*
X15788557Y-11010221D01*
X15759986Y-10995935D01*
X15745700Y-10981650D01*
X16188557Y-10710221D02*
X16131414Y-10710221D01*
X16102843Y-10724507D01*
X16088557Y-10738793D01*
X16059986Y-10781650D01*
X16045700Y-10838793D01*
X16045700Y-10953078D01*
X16059986Y-10981650D01*
X16074271Y-10995935D01*
X16102843Y-11010221D01*
X16159986Y-11010221D01*
X16188557Y-10995935D01*
X16202843Y-10981650D01*
X16217128Y-10953078D01*
X16217128Y-10881650D01*
X16202843Y-10853078D01*
X16188557Y-10838793D01*
X16159986Y-10824507D01*
X16102843Y-10824507D01*
X16074271Y-10838793D01*
X16059986Y-10853078D01*
X16045700Y-10881650D01*
X16331414Y-10710221D02*
X16331414Y-10767364D01*
X16445700Y-10710221D02*
X16445700Y-10767364D01*
X16888557Y-11124507D02*
X16874271Y-11110221D01*
X16845700Y-11067364D01*
X16831414Y-11038793D01*
X16817128Y-10995935D01*
X16802843Y-10924507D01*
X16802843Y-10867364D01*
X16817128Y-10795935D01*
X16831414Y-10753078D01*
X16845700Y-10724507D01*
X16874271Y-10681650D01*
X16888557Y-10667364D01*
X17059986Y-10710221D02*
X17088557Y-10710221D01*
X17117128Y-10724507D01*
X17131414Y-10738793D01*
X17145700Y-10767364D01*
X17159986Y-10824507D01*
X17159986Y-10895935D01*
X17145700Y-10953078D01*
X17131414Y-10981650D01*
X17117128Y-10995935D01*
X17088557Y-11010221D01*
X17059986Y-11010221D01*
X17031414Y-10995935D01*
X17017128Y-10981650D01*
X17002843Y-10953078D01*
X16988557Y-10895935D01*
X16988557Y-10824507D01*
X17002843Y-10767364D01*
X17017128Y-10738793D01*
X17031414Y-10724507D01*
X17059986Y-10710221D01*
X17517128Y-11010221D02*
X17517128Y-10710221D01*
X17645700Y-11010221D02*
X17645700Y-10853078D01*
X17631414Y-10824507D01*
X17602843Y-10810221D01*
X17559986Y-10810221D01*
X17531414Y-10824507D01*
X17517128Y-10838793D01*
X17831414Y-11010221D02*
X17802843Y-10995935D01*
X17788557Y-10981650D01*
X17774271Y-10953078D01*
X17774271Y-10867364D01*
X17788557Y-10838793D01*
X17802843Y-10824507D01*
X17831414Y-10810221D01*
X17874271Y-10810221D01*
X17902843Y-10824507D01*
X17917128Y-10838793D01*
X17931414Y-10867364D01*
X17931414Y-10953078D01*
X17917128Y-10981650D01*
X17902843Y-10995935D01*
X17874271Y-11010221D01*
X17831414Y-11010221D01*
X18102843Y-11010221D02*
X18074271Y-10995935D01*
X18059986Y-10967364D01*
X18059986Y-10710221D01*
X18331414Y-10995935D02*
X18302843Y-11010221D01*
X18245700Y-11010221D01*
X18217128Y-10995935D01*
X18202843Y-10967364D01*
X18202843Y-10853078D01*
X18217128Y-10824507D01*
X18245700Y-10810221D01*
X18302843Y-10810221D01*
X18331414Y-10824507D01*
X18345700Y-10853078D01*
X18345700Y-10881650D01*
X18202843Y-10910221D01*
X18459986Y-10995935D02*
X18488557Y-11010221D01*
X18545700Y-11010221D01*
X18574271Y-10995935D01*
X18588557Y-10967364D01*
X18588557Y-10953078D01*
X18574271Y-10924507D01*
X18545700Y-10910221D01*
X18502843Y-10910221D01*
X18474271Y-10895935D01*
X18459986Y-10867364D01*
X18459986Y-10853078D01*
X18474271Y-10824507D01*
X18502843Y-10810221D01*
X18545700Y-10810221D01*
X18574271Y-10824507D01*
X18945700Y-10895935D02*
X19174271Y-10895935D01*
X19059986Y-11010221D02*
X19059986Y-10781650D01*
X19531414Y-10738793D02*
X19545700Y-10724507D01*
X19574271Y-10710221D01*
X19645700Y-10710221D01*
X19674271Y-10724507D01*
X19688557Y-10738793D01*
X19702843Y-10767364D01*
X19702843Y-10795935D01*
X19688557Y-10838793D01*
X19517128Y-11010221D01*
X19702843Y-11010221D01*
X20045700Y-10995935D02*
X20074271Y-11010221D01*
X20131414Y-11010221D01*
X20159986Y-10995935D01*
X20174271Y-10967364D01*
X20174271Y-10953078D01*
X20159986Y-10924507D01*
X20131414Y-10910221D01*
X20088557Y-10910221D01*
X20059986Y-10895935D01*
X20045700Y-10867364D01*
X20045700Y-10853078D01*
X20059986Y-10824507D01*
X20088557Y-10810221D01*
X20131414Y-10810221D01*
X20159986Y-10824507D01*
X20345700Y-11010221D02*
X20317128Y-10995935D01*
X20302843Y-10967364D01*
X20302843Y-10710221D01*
X20502843Y-11010221D02*
X20474271Y-10995935D01*
X20459986Y-10981650D01*
X20445700Y-10953078D01*
X20445700Y-10867364D01*
X20459986Y-10838793D01*
X20474271Y-10824507D01*
X20502843Y-10810221D01*
X20545700Y-10810221D01*
X20574271Y-10824507D01*
X20588557Y-10838793D01*
X20602843Y-10867364D01*
X20602843Y-10953078D01*
X20588557Y-10981650D01*
X20574271Y-10995935D01*
X20545700Y-11010221D01*
X20502843Y-11010221D01*
X20688557Y-10810221D02*
X20802843Y-10810221D01*
X20731414Y-10710221D02*
X20731414Y-10967364D01*
X20745700Y-10995935D01*
X20774271Y-11010221D01*
X20802843Y-11010221D01*
X20888557Y-10995935D02*
X20917128Y-11010221D01*
X20974271Y-11010221D01*
X21002843Y-10995935D01*
X21017128Y-10967364D01*
X21017128Y-10953078D01*
X21002843Y-10924507D01*
X20974271Y-10910221D01*
X20931414Y-10910221D01*
X20902843Y-10895935D01*
X20888557Y-10867364D01*
X20888557Y-10853078D01*
X20902843Y-10824507D01*
X20931414Y-10810221D01*
X20974271Y-10810221D01*
X21002843Y-10824507D01*
X21117128Y-11124507D02*
X21131414Y-11110221D01*
X21159986Y-11067364D01*
X21174271Y-11038793D01*
X21188557Y-10995935D01*
X21202843Y-10924507D01*
X21202843Y-10867364D01*
X21188557Y-10795935D01*
X21174271Y-10753078D01*
X21159986Y-10724507D01*
X21131414Y-10681650D01*
X21117128Y-10667364D01*
X11621181Y-11293488D02*
X11621181Y-11247526D01*
X11575219Y-11247526D01*
X11575219Y-11293488D01*
X11621181Y-11293488D01*
X11974271Y-11106221D02*
X12002843Y-11106221D01*
X12031414Y-11120507D01*
X12045700Y-11134793D01*
X12059986Y-11163364D01*
X12074271Y-11220507D01*
X12074271Y-11291935D01*
X12059986Y-11349078D01*
X12045700Y-11377650D01*
X12031414Y-11391935D01*
X12002843Y-11406221D01*
X11974271Y-11406221D01*
X11945700Y-11391935D01*
X11931414Y-11377650D01*
X11917128Y-11349078D01*
X11902843Y-11291935D01*
X11902843Y-11220507D01*
X11917128Y-11163364D01*
X11931414Y-11134793D01*
X11945700Y-11120507D01*
X11974271Y-11106221D01*
X12202843Y-11377650D02*
X12217128Y-11391935D01*
X12202843Y-11406221D01*
X12188557Y-11391935D01*
X12202843Y-11377650D01*
X12202843Y-11406221D01*
X12474271Y-11106221D02*
X12417128Y-11106221D01*
X12388557Y-11120507D01*
X12374271Y-11134793D01*
X12345700Y-11177650D01*
X12331414Y-11234792D01*
X12331414Y-11349078D01*
X12345700Y-11377650D01*
X12359986Y-11391935D01*
X12388557Y-11406221D01*
X12445700Y-11406221D01*
X12474271Y-11391935D01*
X12488557Y-11377650D01*
X12502843Y-11349078D01*
X12502843Y-11277650D01*
X12488557Y-11249078D01*
X12474271Y-11234792D01*
X12445700Y-11220507D01*
X12388557Y-11220507D01*
X12359986Y-11234792D01*
X12345700Y-11249078D01*
X12331414Y-11277650D01*
X12774271Y-11106221D02*
X12631414Y-11106221D01*
X12617128Y-11249078D01*
X12631414Y-11234792D01*
X12659986Y-11220507D01*
X12731414Y-11220507D01*
X12759986Y-11234792D01*
X12774271Y-11249078D01*
X12788557Y-11277650D01*
X12788557Y-11349078D01*
X12774271Y-11377650D01*
X12759986Y-11391935D01*
X12731414Y-11406221D01*
X12659986Y-11406221D01*
X12631414Y-11391935D01*
X12617128Y-11377650D01*
X12974271Y-11106221D02*
X13002843Y-11106221D01*
X13031414Y-11120507D01*
X13045700Y-11134793D01*
X13059986Y-11163364D01*
X13074271Y-11220507D01*
X13074271Y-11291935D01*
X13059986Y-11349078D01*
X13045700Y-11377650D01*
X13031414Y-11391935D01*
X13002843Y-11406221D01*
X12974271Y-11406221D01*
X12945700Y-11391935D01*
X12931414Y-11377650D01*
X12917128Y-11349078D01*
X12902843Y-11291935D01*
X12902843Y-11220507D01*
X12917128Y-11163364D01*
X12931414Y-11134793D01*
X12945700Y-11120507D01*
X12974271Y-11106221D01*
X13202843Y-11406221D02*
X13202843Y-11206221D01*
X13202843Y-11234792D02*
X13217128Y-11220507D01*
X13245700Y-11206221D01*
X13288557Y-11206221D01*
X13317128Y-11220507D01*
X13331414Y-11249078D01*
X13331414Y-11406221D01*
X13331414Y-11249078D02*
X13345700Y-11220507D01*
X13374271Y-11206221D01*
X13417128Y-11206221D01*
X13445700Y-11220507D01*
X13459986Y-11249078D01*
X13459986Y-11406221D01*
X13602843Y-11406221D02*
X13602843Y-11206221D01*
X13602843Y-11234792D02*
X13617128Y-11220507D01*
X13645700Y-11206221D01*
X13688557Y-11206221D01*
X13717128Y-11220507D01*
X13731414Y-11249078D01*
X13731414Y-11406221D01*
X13731414Y-11249078D02*
X13745700Y-11220507D01*
X13774271Y-11206221D01*
X13817128Y-11206221D01*
X13845700Y-11220507D01*
X13859986Y-11249078D01*
X13859986Y-11406221D01*
X14445700Y-11091935D02*
X14188557Y-11477650D01*
X14831414Y-11106221D02*
X14859986Y-11106221D01*
X14888557Y-11120507D01*
X14902843Y-11134793D01*
X14917128Y-11163364D01*
X14931414Y-11220507D01*
X14931414Y-11291935D01*
X14917128Y-11349078D01*
X14902843Y-11377650D01*
X14888557Y-11391935D01*
X14859986Y-11406221D01*
X14831414Y-11406221D01*
X14802843Y-11391935D01*
X14788557Y-11377650D01*
X14774271Y-11349078D01*
X14759986Y-11291935D01*
X14759986Y-11220507D01*
X14774271Y-11163364D01*
X14788557Y-11134793D01*
X14802843Y-11120507D01*
X14831414Y-11106221D01*
X15059986Y-11377650D02*
X15074271Y-11391935D01*
X15059986Y-11406221D01*
X15045700Y-11391935D01*
X15059986Y-11377650D01*
X15059986Y-11406221D01*
X15259986Y-11106221D02*
X15288557Y-11106221D01*
X15317128Y-11120507D01*
X15331414Y-11134793D01*
X15345700Y-11163364D01*
X15359986Y-11220507D01*
X15359986Y-11291935D01*
X15345700Y-11349078D01*
X15331414Y-11377650D01*
X15317128Y-11391935D01*
X15288557Y-11406221D01*
X15259986Y-11406221D01*
X15231414Y-11391935D01*
X15217128Y-11377650D01*
X15202843Y-11349078D01*
X15188557Y-11291935D01*
X15188557Y-11220507D01*
X15202843Y-11163364D01*
X15217128Y-11134793D01*
X15231414Y-11120507D01*
X15259986Y-11106221D01*
X15474271Y-11134793D02*
X15488557Y-11120507D01*
X15517128Y-11106221D01*
X15588557Y-11106221D01*
X15617128Y-11120507D01*
X15631414Y-11134793D01*
X15645700Y-11163364D01*
X15645700Y-11191935D01*
X15631414Y-11234792D01*
X15459986Y-11406221D01*
X15645700Y-11406221D01*
X15917128Y-11106221D02*
X15774271Y-11106221D01*
X15759986Y-11249078D01*
X15774271Y-11234792D01*
X15802843Y-11220507D01*
X15874271Y-11220507D01*
X15902843Y-11234792D01*
X15917128Y-11249078D01*
X15931414Y-11277650D01*
X15931414Y-11349078D01*
X15917128Y-11377650D01*
X15902843Y-11391935D01*
X15874271Y-11406221D01*
X15802843Y-11406221D01*
X15774271Y-11391935D01*
X15759986Y-11377650D01*
X16188557Y-11106221D02*
X16131414Y-11106221D01*
X16102843Y-11120507D01*
X16088557Y-11134793D01*
X16059986Y-11177650D01*
X16045700Y-11234792D01*
X16045700Y-11349078D01*
X16059986Y-11377650D01*
X16074271Y-11391935D01*
X16102843Y-11406221D01*
X16159986Y-11406221D01*
X16188557Y-11391935D01*
X16202843Y-11377650D01*
X16217128Y-11349078D01*
X16217128Y-11277650D01*
X16202843Y-11249078D01*
X16188557Y-11234792D01*
X16159986Y-11220507D01*
X16102843Y-11220507D01*
X16074271Y-11234792D01*
X16059986Y-11249078D01*
X16045700Y-11277650D01*
X16331414Y-11106221D02*
X16331414Y-11163364D01*
X16445700Y-11106221D02*
X16445700Y-11163364D01*
X16888557Y-11520507D02*
X16874271Y-11506221D01*
X16845700Y-11463364D01*
X16831414Y-11434792D01*
X16817128Y-11391935D01*
X16802843Y-11320507D01*
X16802843Y-11263364D01*
X16817128Y-11191935D01*
X16831414Y-11149078D01*
X16845700Y-11120507D01*
X16874271Y-11077650D01*
X16888557Y-11063364D01*
X17159986Y-11406221D02*
X16988557Y-11406221D01*
X17074271Y-11406221D02*
X17074271Y-11106221D01*
X17045700Y-11149078D01*
X17017128Y-11177650D01*
X16988557Y-11191935D01*
X17345700Y-11106221D02*
X17374271Y-11106221D01*
X17402843Y-11120507D01*
X17417128Y-11134793D01*
X17431414Y-11163364D01*
X17445700Y-11220507D01*
X17445700Y-11291935D01*
X17431414Y-11349078D01*
X17417128Y-11377650D01*
X17402843Y-11391935D01*
X17374271Y-11406221D01*
X17345700Y-11406221D01*
X17317128Y-11391935D01*
X17302843Y-11377650D01*
X17288557Y-11349078D01*
X17274271Y-11291935D01*
X17274271Y-11220507D01*
X17288557Y-11163364D01*
X17302843Y-11134793D01*
X17317128Y-11120507D01*
X17345700Y-11106221D01*
X17802843Y-11406221D02*
X17802843Y-11106221D01*
X17931414Y-11406221D02*
X17931414Y-11249078D01*
X17917128Y-11220507D01*
X17888557Y-11206221D01*
X17845700Y-11206221D01*
X17817128Y-11220507D01*
X17802843Y-11234792D01*
X18117128Y-11406221D02*
X18088557Y-11391935D01*
X18074271Y-11377650D01*
X18059986Y-11349078D01*
X18059986Y-11263364D01*
X18074271Y-11234792D01*
X18088557Y-11220507D01*
X18117128Y-11206221D01*
X18159986Y-11206221D01*
X18188557Y-11220507D01*
X18202843Y-11234792D01*
X18217128Y-11263364D01*
X18217128Y-11349078D01*
X18202843Y-11377650D01*
X18188557Y-11391935D01*
X18159986Y-11406221D01*
X18117128Y-11406221D01*
X18388557Y-11406221D02*
X18359986Y-11391935D01*
X18345700Y-11363364D01*
X18345700Y-11106221D01*
X18617128Y-11391935D02*
X18588557Y-11406221D01*
X18531414Y-11406221D01*
X18502843Y-11391935D01*
X18488557Y-11363364D01*
X18488557Y-11249078D01*
X18502843Y-11220507D01*
X18531414Y-11206221D01*
X18588557Y-11206221D01*
X18617128Y-11220507D01*
X18631414Y-11249078D01*
X18631414Y-11277650D01*
X18488557Y-11306221D01*
X18745700Y-11391935D02*
X18774271Y-11406221D01*
X18831414Y-11406221D01*
X18859986Y-11391935D01*
X18874271Y-11363364D01*
X18874271Y-11349078D01*
X18859986Y-11320507D01*
X18831414Y-11306221D01*
X18788557Y-11306221D01*
X18759986Y-11291935D01*
X18745700Y-11263364D01*
X18745700Y-11249078D01*
X18759986Y-11220507D01*
X18788557Y-11206221D01*
X18831414Y-11206221D01*
X18859986Y-11220507D01*
X18974271Y-11520507D02*
X18988557Y-11506221D01*
X19017128Y-11463364D01*
X19031414Y-11434792D01*
X19045700Y-11391935D01*
X19059986Y-11320507D01*
X19059986Y-11263364D01*
X19045700Y-11191935D01*
X19031414Y-11149078D01*
X19017128Y-11120507D01*
X18988557Y-11077650D01*
X18974271Y-11063364D01*
X11588200Y-11709007D02*
X11630700Y-11666507D01*
X11588200Y-11624007D01*
X11545700Y-11666507D01*
X11588200Y-11709007D01*
X11974271Y-11502221D02*
X12002843Y-11502221D01*
X12031414Y-11516507D01*
X12045700Y-11530792D01*
X12059986Y-11559364D01*
X12074271Y-11616507D01*
X12074271Y-11687935D01*
X12059986Y-11745078D01*
X12045700Y-11773650D01*
X12031414Y-11787935D01*
X12002843Y-11802221D01*
X11974271Y-11802221D01*
X11945700Y-11787935D01*
X11931414Y-11773650D01*
X11917128Y-11745078D01*
X11902843Y-11687935D01*
X11902843Y-11616507D01*
X11917128Y-11559364D01*
X11931414Y-11530792D01*
X11945700Y-11516507D01*
X11974271Y-11502221D01*
X12202843Y-11773650D02*
X12217128Y-11787935D01*
X12202843Y-11802221D01*
X12188557Y-11787935D01*
X12202843Y-11773650D01*
X12202843Y-11802221D01*
X12388557Y-11630792D02*
X12359986Y-11616507D01*
X12345700Y-11602221D01*
X12331414Y-11573650D01*
X12331414Y-11559364D01*
X12345700Y-11530792D01*
X12359986Y-11516507D01*
X12388557Y-11502221D01*
X12445700Y-11502221D01*
X12474271Y-11516507D01*
X12488557Y-11530792D01*
X12502843Y-11559364D01*
X12502843Y-11573650D01*
X12488557Y-11602221D01*
X12474271Y-11616507D01*
X12445700Y-11630792D01*
X12388557Y-11630792D01*
X12359986Y-11645078D01*
X12345700Y-11659364D01*
X12331414Y-11687935D01*
X12331414Y-11745078D01*
X12345700Y-11773650D01*
X12359986Y-11787935D01*
X12388557Y-11802221D01*
X12445700Y-11802221D01*
X12474271Y-11787935D01*
X12488557Y-11773650D01*
X12502843Y-11745078D01*
X12502843Y-11687935D01*
X12488557Y-11659364D01*
X12474271Y-11645078D01*
X12445700Y-11630792D01*
X12774271Y-11502221D02*
X12631414Y-11502221D01*
X12617128Y-11645078D01*
X12631414Y-11630792D01*
X12659986Y-11616507D01*
X12731414Y-11616507D01*
X12759986Y-11630792D01*
X12774271Y-11645078D01*
X12788557Y-11673650D01*
X12788557Y-11745078D01*
X12774271Y-11773650D01*
X12759986Y-11787935D01*
X12731414Y-11802221D01*
X12659986Y-11802221D01*
X12631414Y-11787935D01*
X12617128Y-11773650D01*
X12974271Y-11502221D02*
X13002843Y-11502221D01*
X13031414Y-11516507D01*
X13045700Y-11530792D01*
X13059986Y-11559364D01*
X13074271Y-11616507D01*
X13074271Y-11687935D01*
X13059986Y-11745078D01*
X13045700Y-11773650D01*
X13031414Y-11787935D01*
X13002843Y-11802221D01*
X12974271Y-11802221D01*
X12945700Y-11787935D01*
X12931414Y-11773650D01*
X12917128Y-11745078D01*
X12902843Y-11687935D01*
X12902843Y-11616507D01*
X12917128Y-11559364D01*
X12931414Y-11530792D01*
X12945700Y-11516507D01*
X12974271Y-11502221D01*
X13202843Y-11802221D02*
X13202843Y-11602221D01*
X13202843Y-11630792D02*
X13217128Y-11616507D01*
X13245700Y-11602221D01*
X13288557Y-11602221D01*
X13317128Y-11616507D01*
X13331414Y-11645078D01*
X13331414Y-11802221D01*
X13331414Y-11645078D02*
X13345700Y-11616507D01*
X13374271Y-11602221D01*
X13417128Y-11602221D01*
X13445700Y-11616507D01*
X13459986Y-11645078D01*
X13459986Y-11802221D01*
X13602843Y-11802221D02*
X13602843Y-11602221D01*
X13602843Y-11630792D02*
X13617128Y-11616507D01*
X13645700Y-11602221D01*
X13688557Y-11602221D01*
X13717128Y-11616507D01*
X13731414Y-11645078D01*
X13731414Y-11802221D01*
X13731414Y-11645078D02*
X13745700Y-11616507D01*
X13774271Y-11602221D01*
X13817128Y-11602221D01*
X13845700Y-11616507D01*
X13859986Y-11645078D01*
X13859986Y-11802221D01*
X14445700Y-11487935D02*
X14188557Y-11873650D01*
X14831414Y-11502221D02*
X14859986Y-11502221D01*
X14888557Y-11516507D01*
X14902843Y-11530792D01*
X14917128Y-11559364D01*
X14931414Y-11616507D01*
X14931414Y-11687935D01*
X14917128Y-11745078D01*
X14902843Y-11773650D01*
X14888557Y-11787935D01*
X14859986Y-11802221D01*
X14831414Y-11802221D01*
X14802843Y-11787935D01*
X14788557Y-11773650D01*
X14774271Y-11745078D01*
X14759986Y-11687935D01*
X14759986Y-11616507D01*
X14774271Y-11559364D01*
X14788557Y-11530792D01*
X14802843Y-11516507D01*
X14831414Y-11502221D01*
X15059986Y-11773650D02*
X15074271Y-11787935D01*
X15059986Y-11802221D01*
X15045700Y-11787935D01*
X15059986Y-11773650D01*
X15059986Y-11802221D01*
X15259986Y-11502221D02*
X15288557Y-11502221D01*
X15317128Y-11516507D01*
X15331414Y-11530792D01*
X15345700Y-11559364D01*
X15359986Y-11616507D01*
X15359986Y-11687935D01*
X15345700Y-11745078D01*
X15331414Y-11773650D01*
X15317128Y-11787935D01*
X15288557Y-11802221D01*
X15259986Y-11802221D01*
X15231414Y-11787935D01*
X15217128Y-11773650D01*
X15202843Y-11745078D01*
X15188557Y-11687935D01*
X15188557Y-11616507D01*
X15202843Y-11559364D01*
X15217128Y-11530792D01*
X15231414Y-11516507D01*
X15259986Y-11502221D01*
X15459986Y-11502221D02*
X15645700Y-11502221D01*
X15545700Y-11616507D01*
X15588557Y-11616507D01*
X15617128Y-11630792D01*
X15631414Y-11645078D01*
X15645700Y-11673650D01*
X15645700Y-11745078D01*
X15631414Y-11773650D01*
X15617128Y-11787935D01*
X15588557Y-11802221D01*
X15502843Y-11802221D01*
X15474271Y-11787935D01*
X15459986Y-11773650D01*
X15745700Y-11502221D02*
X15931414Y-11502221D01*
X15831414Y-11616507D01*
X15874271Y-11616507D01*
X15902843Y-11630792D01*
X15917128Y-11645078D01*
X15931414Y-11673650D01*
X15931414Y-11745078D01*
X15917128Y-11773650D01*
X15902843Y-11787935D01*
X15874271Y-11802221D01*
X15788557Y-11802221D01*
X15759986Y-11787935D01*
X15745700Y-11773650D01*
X16202843Y-11502221D02*
X16059986Y-11502221D01*
X16045700Y-11645078D01*
X16059986Y-11630792D01*
X16088557Y-11616507D01*
X16159986Y-11616507D01*
X16188557Y-11630792D01*
X16202843Y-11645078D01*
X16217128Y-11673650D01*
X16217128Y-11745078D01*
X16202843Y-11773650D01*
X16188557Y-11787935D01*
X16159986Y-11802221D01*
X16088557Y-11802221D01*
X16059986Y-11787935D01*
X16045700Y-11773650D01*
X16331414Y-11502221D02*
X16331414Y-11559364D01*
X16445700Y-11502221D02*
X16445700Y-11559364D01*
X16888557Y-11916507D02*
X16874271Y-11902221D01*
X16845700Y-11859364D01*
X16831414Y-11830792D01*
X16817128Y-11787935D01*
X16802843Y-11716507D01*
X16802843Y-11659364D01*
X16817128Y-11587935D01*
X16831414Y-11545078D01*
X16845700Y-11516507D01*
X16874271Y-11473650D01*
X16888557Y-11459364D01*
X16988557Y-11530792D02*
X17002843Y-11516507D01*
X17031414Y-11502221D01*
X17102843Y-11502221D01*
X17131414Y-11516507D01*
X17145700Y-11530792D01*
X17159986Y-11559364D01*
X17159986Y-11587935D01*
X17145700Y-11630792D01*
X16974271Y-11802221D01*
X17159986Y-11802221D01*
X17517128Y-11802221D02*
X17517128Y-11502221D01*
X17645700Y-11802221D02*
X17645700Y-11645078D01*
X17631414Y-11616507D01*
X17602843Y-11602221D01*
X17559986Y-11602221D01*
X17531414Y-11616507D01*
X17517128Y-11630792D01*
X17831414Y-11802221D02*
X17802843Y-11787935D01*
X17788557Y-11773650D01*
X17774271Y-11745078D01*
X17774271Y-11659364D01*
X17788557Y-11630792D01*
X17802843Y-11616507D01*
X17831414Y-11602221D01*
X17874271Y-11602221D01*
X17902843Y-11616507D01*
X17917128Y-11630792D01*
X17931414Y-11659364D01*
X17931414Y-11745078D01*
X17917128Y-11773650D01*
X17902843Y-11787935D01*
X17874271Y-11802221D01*
X17831414Y-11802221D01*
X18102843Y-11802221D02*
X18074271Y-11787935D01*
X18059986Y-11759364D01*
X18059986Y-11502221D01*
X18331414Y-11787935D02*
X18302843Y-11802221D01*
X18245700Y-11802221D01*
X18217128Y-11787935D01*
X18202843Y-11759364D01*
X18202843Y-11645078D01*
X18217128Y-11616507D01*
X18245700Y-11602221D01*
X18302843Y-11602221D01*
X18331414Y-11616507D01*
X18345700Y-11645078D01*
X18345700Y-11673650D01*
X18202843Y-11702221D01*
X18459986Y-11787935D02*
X18488557Y-11802221D01*
X18545700Y-11802221D01*
X18574271Y-11787935D01*
X18588557Y-11759364D01*
X18588557Y-11745078D01*
X18574271Y-11716507D01*
X18545700Y-11702221D01*
X18502843Y-11702221D01*
X18474271Y-11687935D01*
X18459986Y-11659364D01*
X18459986Y-11645078D01*
X18474271Y-11616507D01*
X18502843Y-11602221D01*
X18545700Y-11602221D01*
X18574271Y-11616507D01*
X18688557Y-11916507D02*
X18702843Y-11902221D01*
X18731414Y-11859364D01*
X18745700Y-11830792D01*
X18759986Y-11787935D01*
X18774271Y-11716507D01*
X18774271Y-11659364D01*
X18759986Y-11587935D01*
X18745700Y-11545078D01*
X18731414Y-11516507D01*
X18702843Y-11473650D01*
X18688557Y-11459364D01*
X11410700Y-11952507D02*
X11630700Y-12172507D01*
X11630700Y-11952507D02*
X11410700Y-12172507D01*
X11630700Y-12062507D02*
G75*
G03*
X11630700Y-12062507I-110000J0D01*
G01*
X11902843Y-11926792D02*
X11917128Y-11912507D01*
X11945700Y-11898221D01*
X12017128Y-11898221D01*
X12045700Y-11912507D01*
X12059986Y-11926792D01*
X12074271Y-11955364D01*
X12074271Y-11983935D01*
X12059986Y-12026792D01*
X11888557Y-12198221D01*
X12074271Y-12198221D01*
X12202843Y-12169650D02*
X12217128Y-12183935D01*
X12202843Y-12198221D01*
X12188557Y-12183935D01*
X12202843Y-12169650D01*
X12202843Y-12198221D01*
X12331414Y-11926792D02*
X12345700Y-11912507D01*
X12374271Y-11898221D01*
X12445700Y-11898221D01*
X12474271Y-11912507D01*
X12488557Y-11926792D01*
X12502843Y-11955364D01*
X12502843Y-11983935D01*
X12488557Y-12026792D01*
X12317128Y-12198221D01*
X12502843Y-12198221D01*
X12688557Y-11898221D02*
X12717128Y-11898221D01*
X12745700Y-11912507D01*
X12759986Y-11926792D01*
X12774271Y-11955364D01*
X12788557Y-12012507D01*
X12788557Y-12083935D01*
X12774271Y-12141078D01*
X12759986Y-12169650D01*
X12745700Y-12183935D01*
X12717128Y-12198221D01*
X12688557Y-12198221D01*
X12659986Y-12183935D01*
X12645700Y-12169650D01*
X12631414Y-12141078D01*
X12617128Y-12083935D01*
X12617128Y-12012507D01*
X12631414Y-11955364D01*
X12645700Y-11926792D01*
X12659986Y-11912507D01*
X12688557Y-11898221D01*
X12974271Y-11898221D02*
X13002843Y-11898221D01*
X13031414Y-11912507D01*
X13045700Y-11926792D01*
X13059986Y-11955364D01*
X13074271Y-12012507D01*
X13074271Y-12083935D01*
X13059986Y-12141078D01*
X13045700Y-12169650D01*
X13031414Y-12183935D01*
X13002843Y-12198221D01*
X12974271Y-12198221D01*
X12945700Y-12183935D01*
X12931414Y-12169650D01*
X12917128Y-12141078D01*
X12902843Y-12083935D01*
X12902843Y-12012507D01*
X12917128Y-11955364D01*
X12931414Y-11926792D01*
X12945700Y-11912507D01*
X12974271Y-11898221D01*
X13202843Y-12198221D02*
X13202843Y-11998221D01*
X13202843Y-12026792D02*
X13217128Y-12012507D01*
X13245700Y-11998221D01*
X13288557Y-11998221D01*
X13317128Y-12012507D01*
X13331414Y-12041078D01*
X13331414Y-12198221D01*
X13331414Y-12041078D02*
X13345700Y-12012507D01*
X13374271Y-11998221D01*
X13417128Y-11998221D01*
X13445700Y-12012507D01*
X13459986Y-12041078D01*
X13459986Y-12198221D01*
X13602843Y-12198221D02*
X13602843Y-11998221D01*
X13602843Y-12026792D02*
X13617128Y-12012507D01*
X13645700Y-11998221D01*
X13688557Y-11998221D01*
X13717128Y-12012507D01*
X13731414Y-12041078D01*
X13731414Y-12198221D01*
X13731414Y-12041078D02*
X13745700Y-12012507D01*
X13774271Y-11998221D01*
X13817128Y-11998221D01*
X13845700Y-12012507D01*
X13859986Y-12041078D01*
X13859986Y-12198221D01*
X14445700Y-11883935D02*
X14188557Y-12269650D01*
X14831414Y-11898221D02*
X14859986Y-11898221D01*
X14888557Y-11912507D01*
X14902843Y-11926792D01*
X14917128Y-11955364D01*
X14931414Y-12012507D01*
X14931414Y-12083935D01*
X14917128Y-12141078D01*
X14902843Y-12169650D01*
X14888557Y-12183935D01*
X14859986Y-12198221D01*
X14831414Y-12198221D01*
X14802843Y-12183935D01*
X14788557Y-12169650D01*
X14774271Y-12141078D01*
X14759986Y-12083935D01*
X14759986Y-12012507D01*
X14774271Y-11955364D01*
X14788557Y-11926792D01*
X14802843Y-11912507D01*
X14831414Y-11898221D01*
X15059986Y-12169650D02*
X15074271Y-12183935D01*
X15059986Y-12198221D01*
X15045700Y-12183935D01*
X15059986Y-12169650D01*
X15059986Y-12198221D01*
X15259986Y-11898221D02*
X15288557Y-11898221D01*
X15317128Y-11912507D01*
X15331414Y-11926792D01*
X15345700Y-11955364D01*
X15359986Y-12012507D01*
X15359986Y-12083935D01*
X15345700Y-12141078D01*
X15331414Y-12169650D01*
X15317128Y-12183935D01*
X15288557Y-12198221D01*
X15259986Y-12198221D01*
X15231414Y-12183935D01*
X15217128Y-12169650D01*
X15202843Y-12141078D01*
X15188557Y-12083935D01*
X15188557Y-12012507D01*
X15202843Y-11955364D01*
X15217128Y-11926792D01*
X15231414Y-11912507D01*
X15259986Y-11898221D01*
X15531414Y-12026792D02*
X15502843Y-12012507D01*
X15488557Y-11998221D01*
X15474271Y-11969650D01*
X15474271Y-11955364D01*
X15488557Y-11926792D01*
X15502843Y-11912507D01*
X15531414Y-11898221D01*
X15588557Y-11898221D01*
X15617128Y-11912507D01*
X15631414Y-11926792D01*
X15645700Y-11955364D01*
X15645700Y-11969650D01*
X15631414Y-11998221D01*
X15617128Y-12012507D01*
X15588557Y-12026792D01*
X15531414Y-12026792D01*
X15502843Y-12041078D01*
X15488557Y-12055364D01*
X15474271Y-12083935D01*
X15474271Y-12141078D01*
X15488557Y-12169650D01*
X15502843Y-12183935D01*
X15531414Y-12198221D01*
X15588557Y-12198221D01*
X15617128Y-12183935D01*
X15631414Y-12169650D01*
X15645700Y-12141078D01*
X15645700Y-12083935D01*
X15631414Y-12055364D01*
X15617128Y-12041078D01*
X15588557Y-12026792D01*
X15902843Y-11898221D02*
X15845700Y-11898221D01*
X15817128Y-11912507D01*
X15802843Y-11926792D01*
X15774271Y-11969650D01*
X15759986Y-12026792D01*
X15759986Y-12141078D01*
X15774271Y-12169650D01*
X15788557Y-12183935D01*
X15817128Y-12198221D01*
X15874271Y-12198221D01*
X15902843Y-12183935D01*
X15917128Y-12169650D01*
X15931414Y-12141078D01*
X15931414Y-12069650D01*
X15917128Y-12041078D01*
X15902843Y-12026792D01*
X15874271Y-12012507D01*
X15817128Y-12012507D01*
X15788557Y-12026792D01*
X15774271Y-12041078D01*
X15759986Y-12069650D01*
X16188557Y-11898221D02*
X16131414Y-11898221D01*
X16102843Y-11912507D01*
X16088557Y-11926792D01*
X16059986Y-11969650D01*
X16045700Y-12026792D01*
X16045700Y-12141078D01*
X16059986Y-12169650D01*
X16074271Y-12183935D01*
X16102843Y-12198221D01*
X16159986Y-12198221D01*
X16188557Y-12183935D01*
X16202843Y-12169650D01*
X16217128Y-12141078D01*
X16217128Y-12069650D01*
X16202843Y-12041078D01*
X16188557Y-12026792D01*
X16159986Y-12012507D01*
X16102843Y-12012507D01*
X16074271Y-12026792D01*
X16059986Y-12041078D01*
X16045700Y-12069650D01*
X16331414Y-11898221D02*
X16331414Y-11955364D01*
X16445700Y-11898221D02*
X16445700Y-11955364D01*
X16888557Y-12312507D02*
X16874271Y-12298221D01*
X16845700Y-12255364D01*
X16831414Y-12226792D01*
X16817128Y-12183935D01*
X16802843Y-12112507D01*
X16802843Y-12055364D01*
X16817128Y-11983935D01*
X16831414Y-11941078D01*
X16845700Y-11912507D01*
X16874271Y-11869650D01*
X16888557Y-11855364D01*
X17131414Y-11998221D02*
X17131414Y-12198221D01*
X17059986Y-11883935D02*
X16988557Y-12098221D01*
X17174271Y-12098221D01*
X17517128Y-12198221D02*
X17517128Y-11898221D01*
X17645700Y-12198221D02*
X17645700Y-12041078D01*
X17631414Y-12012507D01*
X17602843Y-11998221D01*
X17559986Y-11998221D01*
X17531414Y-12012507D01*
X17517128Y-12026792D01*
X17831414Y-12198221D02*
X17802843Y-12183935D01*
X17788557Y-12169650D01*
X17774271Y-12141078D01*
X17774271Y-12055364D01*
X17788557Y-12026792D01*
X17802843Y-12012507D01*
X17831414Y-11998221D01*
X17874271Y-11998221D01*
X17902843Y-12012507D01*
X17917128Y-12026792D01*
X17931414Y-12055364D01*
X17931414Y-12141078D01*
X17917128Y-12169650D01*
X17902843Y-12183935D01*
X17874271Y-12198221D01*
X17831414Y-12198221D01*
X18102843Y-12198221D02*
X18074271Y-12183935D01*
X18059986Y-12155364D01*
X18059986Y-11898221D01*
X18331414Y-12183935D02*
X18302843Y-12198221D01*
X18245700Y-12198221D01*
X18217128Y-12183935D01*
X18202843Y-12155364D01*
X18202843Y-12041078D01*
X18217128Y-12012507D01*
X18245700Y-11998221D01*
X18302843Y-11998221D01*
X18331414Y-12012507D01*
X18345700Y-12041078D01*
X18345700Y-12069650D01*
X18202843Y-12098221D01*
X18459986Y-12183935D02*
X18488557Y-12198221D01*
X18545700Y-12198221D01*
X18574271Y-12183935D01*
X18588557Y-12155364D01*
X18588557Y-12141078D01*
X18574271Y-12112507D01*
X18545700Y-12098221D01*
X18502843Y-12098221D01*
X18474271Y-12083935D01*
X18459986Y-12055364D01*
X18459986Y-12041078D01*
X18474271Y-12012507D01*
X18502843Y-11998221D01*
X18545700Y-11998221D01*
X18574271Y-12012507D01*
X18688557Y-12312507D02*
X18702843Y-12298221D01*
X18731414Y-12255364D01*
X18745700Y-12226792D01*
X18759986Y-12183935D01*
X18774271Y-12112507D01*
X18774271Y-12055364D01*
X18759986Y-11983935D01*
X18745700Y-11941078D01*
X18731414Y-11912507D01*
X18702843Y-11869650D01*
X18688557Y-11855364D01*
M02*
