M48
; DRILL file {KiCad (5.1.12)-1} date 02/05/22 21:03:26
; FORMAT={-:-/ absolute / metric / decimal}
; #@! TF.CreationDate,2022-02-05T21:03:26-05:00
; #@! TF.GenerationSoftware,Kicad,Pcbnew,(5.1.12)-1
; #@! TF.FileFunction,Plated,1,4,PTH
FMAT,2
METRIC
T1C0.300
T2C0.400
T3C0.600
T4C0.650
T5C0.850
T6C2.200
%
G90
G05
T1
X141.732Y-83.069
X146.05Y-80.772
X146.177Y-84.201
X148.844Y-84.201
T2
X121.712Y-84.058
X121.793Y-85.09
X121.793Y-85.979
X122.682Y-81.026
X122.682Y-85.979
X123.698Y-83.82
X124.206Y-86.36
X124.46Y-80.518
X125.857Y-83.82
X128.476Y-80.768
X128.524Y-82.042
X129.54Y-75.184
X130.81Y-75.184
X131.572Y-78.232
X131.572Y-81.788
X132.588Y-81.788
X133.604Y-80.772
X133.604Y-81.788
X135.255Y-84.399
X136.398Y-86.233
X137.033Y-78.359
X137.668Y-76.454
X138.176Y-81.026
X138.176Y-81.788
X138.176Y-82.55
X138.938Y-78.232
X139.827Y-76.454
X140.208Y-75.438
X140.843Y-76.454
X141.605Y-78.232
X142.621Y-79.121
X145.923Y-77.724
X146.431Y-85.344
X148.971Y-75.692
X149.86Y-75.692
X150.876Y-75.692
X151.765Y-75.692
X151.765Y-88.011
X151.925Y-78.2
X152.019Y-78.994
X153.543Y-73.66
X153.543Y-76.454
X153.543Y-79.375
X153.543Y-83.947
X153.543Y-87.122
X153.543Y-90.424
X156.337Y-82.55
X156.337Y-83.566
X156.718Y-73.66
X156.718Y-90.424
X157.607Y-78.74
X159.512Y-73.66
X159.512Y-90.424
X159.766Y-77.216
X159.766Y-86.36
X161.036Y-77.343
X161.036Y-86.233
X162.306Y-77.47
X162.306Y-86.106
T4
X124.968Y-88.138
X124.968Y-89.408
X126.238Y-88.138
X126.238Y-89.408
X127.508Y-88.138
X127.508Y-89.408
X128.778Y-88.138
X128.778Y-89.408
X130.048Y-88.138
X130.048Y-89.408
T5
X120.462Y-79.5
X120.462Y-84.5
T6
X118.618Y-75.184
X118.618Y-88.9
X143.764Y-75.184
X143.764Y-88.9
T3
X117.412Y-78.5G85X118.112Y-78.5
G05
X118.112Y-85.5G85X117.412Y-85.5
G05
T0
M30
