%FSLAX45Y45*%
G04 Gerber Fmt 4.5, Leading zero omitted, Abs format (unit mm)*
G04 Created by KiCad (PCBNEW (5.1.12)-1) date 2022-02-05 21:04:31*
%MOMM*%
%LPD*%
G01*
G04 APERTURE LIST*
%TA.AperFunction,Profile*%
%ADD10C,0.050000*%
%TD*%
%ADD11C,0.200000*%
%ADD12C,0.300000*%
G04 APERTURE END LIST*
D10*
X16052800Y-7289800D02*
G75*
G02*
X16306800Y-7543800I0J-254000D01*
G01*
X16306800Y-8864600D02*
G75*
G02*
X16052800Y-9118600I-254000J0D01*
G01*
X16306800Y-8864600D02*
X16306800Y-7543800D01*
X11634598Y-7543645D02*
G75*
G02*
X11861800Y-7289800I227202J25245D01*
G01*
X11861800Y-9120007D02*
G75*
G02*
X11633200Y-8915400I0J230007D01*
G01*
X11861800Y-9120007D02*
X16052800Y-9118600D01*
X11861800Y-7289800D02*
X16052800Y-7289800D01*
X11633200Y-8915400D02*
X11634598Y-7543645D01*
D11*
D12*
X11917128Y-9588221D02*
X11917128Y-9288221D01*
X11988557Y-9288221D01*
X12031414Y-9302507D01*
X12059986Y-9331078D01*
X12074271Y-9359650D01*
X12088557Y-9416793D01*
X12088557Y-9459650D01*
X12074271Y-9516793D01*
X12059986Y-9545364D01*
X12031414Y-9573935D01*
X11988557Y-9588221D01*
X11917128Y-9588221D01*
X12217128Y-9588221D02*
X12217128Y-9388221D01*
X12217128Y-9445364D02*
X12231414Y-9416793D01*
X12245700Y-9402507D01*
X12274271Y-9388221D01*
X12302843Y-9388221D01*
X12402843Y-9588221D02*
X12402843Y-9388221D01*
X12402843Y-9288221D02*
X12388557Y-9302507D01*
X12402843Y-9316793D01*
X12417128Y-9302507D01*
X12402843Y-9288221D01*
X12402843Y-9316793D01*
X12588557Y-9588221D02*
X12559986Y-9573935D01*
X12545700Y-9545364D01*
X12545700Y-9288221D01*
X12745700Y-9588221D02*
X12717128Y-9573935D01*
X12702843Y-9545364D01*
X12702843Y-9288221D01*
X13088557Y-9588221D02*
X13088557Y-9288221D01*
X13188557Y-9502507D01*
X13288557Y-9288221D01*
X13288557Y-9588221D01*
X13559986Y-9588221D02*
X13559986Y-9431078D01*
X13545700Y-9402507D01*
X13517128Y-9388221D01*
X13459986Y-9388221D01*
X13431414Y-9402507D01*
X13559986Y-9573935D02*
X13531414Y-9588221D01*
X13459986Y-9588221D01*
X13431414Y-9573935D01*
X13417128Y-9545364D01*
X13417128Y-9516793D01*
X13431414Y-9488221D01*
X13459986Y-9473935D01*
X13531414Y-9473935D01*
X13559986Y-9459650D01*
X13702843Y-9388221D02*
X13702843Y-9688221D01*
X13702843Y-9402507D02*
X13731414Y-9388221D01*
X13788557Y-9388221D01*
X13817128Y-9402507D01*
X13831414Y-9416793D01*
X13845700Y-9445364D01*
X13845700Y-9531078D01*
X13831414Y-9559650D01*
X13817128Y-9573935D01*
X13788557Y-9588221D01*
X13731414Y-9588221D01*
X13702843Y-9573935D01*
X13974271Y-9559650D02*
X13988557Y-9573935D01*
X13974271Y-9588221D01*
X13959986Y-9573935D01*
X13974271Y-9559650D01*
X13974271Y-9588221D01*
X13974271Y-9402507D02*
X13988557Y-9416793D01*
X13974271Y-9431078D01*
X13959986Y-9416793D01*
X13974271Y-9402507D01*
X13974271Y-9431078D01*
M02*
