%TF.GenerationSoftware,KiCad,Pcbnew,(5.1.12)-1*%
%TF.CreationDate,2022-02-05T21:00:18-05:00*%
%TF.ProjectId,usb-rf,7573622d-7266-42e6-9b69-6361645f7063,rev?*%
%TF.SameCoordinates,Original*%
%TF.FileFunction,Copper,L2,Inr*%
%TF.FilePolarity,Positive*%
%FSLAX46Y46*%
G04 Gerber Fmt 4.6, Leading zero omitted, Abs format (unit mm)*
G04 Created by KiCad (PCBNEW (5.1.12)-1) date 2022-02-05 21:00:18*
%MOMM*%
%LPD*%
G01*
G04 APERTURE LIST*
%TA.AperFunction,ComponentPad*%
%ADD10O,1.900000X1.200000*%
%TD*%
%TA.AperFunction,ComponentPad*%
%ADD11C,1.450000*%
%TD*%
%TA.AperFunction,ComponentPad*%
%ADD12O,1.000000X1.000000*%
%TD*%
%TA.AperFunction,ComponentPad*%
%ADD13R,1.000000X1.000000*%
%TD*%
%TA.AperFunction,ComponentPad*%
%ADD14C,4.400000*%
%TD*%
%TA.AperFunction,ViaPad*%
%ADD15C,0.500000*%
%TD*%
%TA.AperFunction,ViaPad*%
%ADD16C,0.800000*%
%TD*%
%TA.AperFunction,ViaPad*%
%ADD17C,0.400000*%
%TD*%
%TA.AperFunction,Conductor*%
%ADD18C,0.261112*%
%TD*%
%TA.AperFunction,Conductor*%
%ADD19C,0.254000*%
%TD*%
%TA.AperFunction,Conductor*%
%ADD20C,0.100000*%
%TD*%
G04 APERTURE END LIST*
D10*
X117762500Y-85500000D03*
X117762500Y-78500000D03*
D11*
X120462500Y-84500000D03*
X120462500Y-79500000D03*
D12*
X124968000Y-89408000D03*
X124968000Y-88138000D03*
X126238000Y-89408000D03*
X126238000Y-88138000D03*
X127508000Y-89408000D03*
X127508000Y-88138000D03*
X128778000Y-89408000D03*
X128778000Y-88138000D03*
X130048000Y-89408000D03*
D13*
X130048000Y-88138000D03*
D14*
X143764000Y-75184000D03*
X143764000Y-88900000D03*
X118618000Y-88900000D03*
X118618000Y-75184000D03*
D15*
X138176000Y-82550000D03*
X138176000Y-81026000D03*
X138176000Y-81788000D03*
D16*
X129540000Y-75184000D03*
X130810000Y-75184000D03*
X140208000Y-75438000D03*
X124460000Y-80518000D03*
X128475740Y-80768315D03*
X128524000Y-82042000D03*
X131572000Y-78232000D03*
X121711561Y-84057873D03*
X121793000Y-85090000D03*
X121793000Y-85979000D03*
X122682000Y-85979000D03*
X125857000Y-83820000D03*
D15*
X135254978Y-84399000D03*
X142621000Y-79121000D03*
X140843000Y-76454000D03*
X139827000Y-76454000D03*
X150876000Y-75692000D03*
X151765000Y-75692000D03*
X149860000Y-75692000D03*
X145923000Y-77724000D03*
D17*
X148843982Y-84201000D03*
D15*
X152019000Y-78994028D03*
X124206000Y-86360000D03*
X151765000Y-88011000D03*
X146431000Y-85344000D03*
X156337000Y-82550000D03*
X156337000Y-83566000D03*
X157607000Y-78740000D03*
X161036000Y-77343000D03*
X161036000Y-86233000D03*
D16*
X153543000Y-79375000D03*
X153543000Y-73660000D03*
X153543000Y-83947000D03*
X153543000Y-90424000D03*
X153543000Y-87122000D03*
X153543000Y-76454000D03*
X162306000Y-77470000D03*
X162306000Y-86106000D03*
X159512000Y-90424000D03*
X159512000Y-73660000D03*
X156718000Y-73660000D03*
X156718000Y-90424000D03*
D15*
X137668000Y-76454000D03*
X159766000Y-77216000D03*
X159766000Y-86360000D03*
D16*
X131572000Y-81788000D03*
X132588000Y-81788000D03*
X133604000Y-81788000D03*
X133604000Y-80772000D03*
D15*
X136398000Y-86233000D03*
X141605000Y-78232000D03*
X137033000Y-78359000D03*
D17*
X146177000Y-84201000D03*
D15*
X148971000Y-75692000D03*
X151924508Y-78199504D03*
X138938000Y-78232000D03*
X122682000Y-81026000D03*
X123698000Y-83820000D03*
D17*
X141732000Y-83068556D03*
X146050000Y-80772000D03*
D18*
X146431000Y-85344000D02*
X144399000Y-85344000D01*
D19*
X141794937Y-73568032D02*
X141517512Y-73983227D01*
X141326418Y-74444568D01*
X141229000Y-74934324D01*
X141229000Y-75433676D01*
X141326418Y-75923432D01*
X141517512Y-76384773D01*
X141794937Y-76799968D01*
X142148032Y-77153063D01*
X142563227Y-77430488D01*
X143024568Y-77621582D01*
X143514324Y-77719000D01*
X144013676Y-77719000D01*
X144503432Y-77621582D01*
X144964773Y-77430488D01*
X145379968Y-77153063D01*
X145733063Y-76799968D01*
X146010488Y-76384773D01*
X146201582Y-75923432D01*
X146259077Y-75634382D01*
X148386000Y-75634382D01*
X148386000Y-75749618D01*
X148408481Y-75862638D01*
X148452579Y-75969102D01*
X148516600Y-76064916D01*
X148598084Y-76146400D01*
X148693898Y-76210421D01*
X148800362Y-76254519D01*
X148913382Y-76277000D01*
X149028618Y-76277000D01*
X149141638Y-76254519D01*
X149248102Y-76210421D01*
X149343916Y-76146400D01*
X149425400Y-76064916D01*
X149489421Y-75969102D01*
X149533519Y-75862638D01*
X149556000Y-75749618D01*
X149556000Y-75634382D01*
X149533519Y-75521362D01*
X149489421Y-75414898D01*
X149425400Y-75319084D01*
X149343916Y-75237600D01*
X149248102Y-75173579D01*
X149141638Y-75129481D01*
X149028618Y-75107000D01*
X148913382Y-75107000D01*
X148800362Y-75129481D01*
X148693898Y-75173579D01*
X148598084Y-75237600D01*
X148516600Y-75319084D01*
X148452579Y-75414898D01*
X148408481Y-75521362D01*
X148386000Y-75634382D01*
X146259077Y-75634382D01*
X146299000Y-75433676D01*
X146299000Y-74934324D01*
X146201582Y-74444568D01*
X146010488Y-73983227D01*
X145733063Y-73568032D01*
X145423031Y-73258000D01*
X160510391Y-73258000D01*
X160951097Y-73301212D01*
X161358075Y-73424085D01*
X161733438Y-73623669D01*
X162062886Y-73892360D01*
X162333871Y-74219925D01*
X162536070Y-74593884D01*
X162661783Y-74999996D01*
X162708001Y-75439736D01*
X162708000Y-88628391D01*
X162664788Y-89069096D01*
X162541914Y-89476078D01*
X162342331Y-89851437D01*
X162073638Y-90180888D01*
X161746078Y-90451868D01*
X161372116Y-90654070D01*
X160966004Y-90779783D01*
X160526260Y-90826001D01*
X153035000Y-90828515D01*
X153035000Y-83058000D01*
X153032560Y-83033224D01*
X153025333Y-83009399D01*
X153013597Y-82987443D01*
X152997803Y-82968197D01*
X152978557Y-82952403D01*
X152956601Y-82940667D01*
X152932776Y-82933440D01*
X152908000Y-82931000D01*
X151003000Y-82931000D01*
X151003000Y-81788000D01*
X151000560Y-81763224D01*
X150993333Y-81739399D01*
X150981597Y-81717443D01*
X150965803Y-81698197D01*
X150946557Y-81682403D01*
X150924601Y-81670667D01*
X150900776Y-81663440D01*
X150876000Y-81661000D01*
X149098000Y-81661000D01*
X149073224Y-81663440D01*
X149049399Y-81670667D01*
X149027443Y-81682403D01*
X149008197Y-81698197D01*
X148992403Y-81717443D01*
X148980667Y-81739399D01*
X148973440Y-81763224D01*
X148971000Y-81788000D01*
X148971000Y-84328000D01*
X146697220Y-84328000D01*
X146712000Y-84253693D01*
X146712000Y-84148307D01*
X146691441Y-84044946D01*
X146651111Y-83947582D01*
X146592562Y-83859957D01*
X146518043Y-83785438D01*
X146430418Y-83726889D01*
X146333054Y-83686559D01*
X146229693Y-83666000D01*
X146124307Y-83666000D01*
X146020946Y-83686559D01*
X145923582Y-83726889D01*
X145835957Y-83785438D01*
X145761438Y-83859957D01*
X145702889Y-83947582D01*
X145662559Y-84044946D01*
X145642000Y-84148307D01*
X145642000Y-84253693D01*
X145656780Y-84328000D01*
X145161000Y-84328000D01*
X145136224Y-84330440D01*
X145112399Y-84337667D01*
X145090443Y-84349403D01*
X145071197Y-84365197D01*
X145055403Y-84384443D01*
X145043667Y-84406399D01*
X145036440Y-84430224D01*
X145034000Y-84455000D01*
X145034000Y-84963000D01*
X145036440Y-84987776D01*
X145043667Y-85011601D01*
X145055403Y-85033557D01*
X145071197Y-85052803D01*
X145090443Y-85068597D01*
X145112399Y-85080333D01*
X145136224Y-85087560D01*
X145161000Y-85090000D01*
X149479000Y-85090000D01*
X149503776Y-85087560D01*
X149527601Y-85080333D01*
X149549557Y-85068597D01*
X149568803Y-85052803D01*
X149584597Y-85033557D01*
X149596333Y-85011601D01*
X149603560Y-84987776D01*
X149606000Y-84963000D01*
X149606000Y-82423000D01*
X150241000Y-82423000D01*
X150241000Y-83566000D01*
X150243440Y-83590776D01*
X150250667Y-83614601D01*
X150262403Y-83636557D01*
X150278197Y-83655803D01*
X150297443Y-83671597D01*
X150319399Y-83683333D01*
X150343224Y-83690560D01*
X150368000Y-83693000D01*
X152146000Y-83693000D01*
X152146000Y-90828814D01*
X146050000Y-90830860D01*
X146050000Y-90005383D01*
X146201582Y-89639432D01*
X146299000Y-89149676D01*
X146299000Y-88650324D01*
X146201582Y-88160568D01*
X146050000Y-87794617D01*
X146050000Y-85852000D01*
X146047560Y-85827224D01*
X146040333Y-85803399D01*
X146028597Y-85781443D01*
X146012803Y-85762197D01*
X145993557Y-85746403D01*
X145971601Y-85734667D01*
X145947776Y-85727440D01*
X145923000Y-85725000D01*
X145161000Y-85725000D01*
X145136224Y-85727440D01*
X145112399Y-85734667D01*
X145090443Y-85746403D01*
X145071197Y-85762197D01*
X145055403Y-85781443D01*
X145043667Y-85803399D01*
X145036440Y-85827224D01*
X145034000Y-85852000D01*
X145034000Y-86699768D01*
X144964773Y-86653512D01*
X144503432Y-86462418D01*
X144013676Y-86365000D01*
X143514324Y-86365000D01*
X143024568Y-86462418D01*
X142563227Y-86653512D01*
X142148032Y-86930937D01*
X141794937Y-87284032D01*
X141517512Y-87699227D01*
X141326418Y-88160568D01*
X141229000Y-88650324D01*
X141229000Y-89149676D01*
X141326418Y-89639432D01*
X141517512Y-90100773D01*
X141794937Y-90515968D01*
X142111151Y-90832182D01*
X120263516Y-90839515D01*
X120587063Y-90515968D01*
X120864488Y-90100773D01*
X121055582Y-89639432D01*
X121153000Y-89149676D01*
X121153000Y-88650324D01*
X121111140Y-88439876D01*
X123873874Y-88439876D01*
X123953790Y-88647529D01*
X124072682Y-88835601D01*
X124225980Y-88996865D01*
X124234466Y-89002851D01*
X124228033Y-89012479D01*
X124165089Y-89164440D01*
X124133000Y-89325760D01*
X124133000Y-89490240D01*
X124165089Y-89651560D01*
X124228033Y-89803521D01*
X124319413Y-89940281D01*
X124435719Y-90056587D01*
X124572479Y-90147967D01*
X124724440Y-90210911D01*
X124885760Y-90243000D01*
X125050240Y-90243000D01*
X125211560Y-90210911D01*
X125363521Y-90147967D01*
X125500281Y-90056587D01*
X125603000Y-89953868D01*
X125705719Y-90056587D01*
X125842479Y-90147967D01*
X125994440Y-90210911D01*
X126155760Y-90243000D01*
X126320240Y-90243000D01*
X126481560Y-90210911D01*
X126633521Y-90147967D01*
X126770281Y-90056587D01*
X126873000Y-89953868D01*
X126975719Y-90056587D01*
X127112479Y-90147967D01*
X127264440Y-90210911D01*
X127425760Y-90243000D01*
X127590240Y-90243000D01*
X127751560Y-90210911D01*
X127903521Y-90147967D01*
X128040281Y-90056587D01*
X128143000Y-89953868D01*
X128245719Y-90056587D01*
X128382479Y-90147967D01*
X128534440Y-90210911D01*
X128695760Y-90243000D01*
X128860240Y-90243000D01*
X129021560Y-90210911D01*
X129173521Y-90147967D01*
X129310281Y-90056587D01*
X129413000Y-89953868D01*
X129515719Y-90056587D01*
X129652479Y-90147967D01*
X129804440Y-90210911D01*
X129965760Y-90243000D01*
X130130240Y-90243000D01*
X130291560Y-90210911D01*
X130443521Y-90147967D01*
X130580281Y-90056587D01*
X130696587Y-89940281D01*
X130787967Y-89803521D01*
X130850911Y-89651560D01*
X130883000Y-89490240D01*
X130883000Y-89325760D01*
X130850911Y-89164440D01*
X130787967Y-89012479D01*
X130727462Y-88921927D01*
X130735016Y-88917889D01*
X130786026Y-88876026D01*
X130827889Y-88825016D01*
X130858996Y-88766819D01*
X130878152Y-88703671D01*
X130884620Y-88638000D01*
X130884620Y-87638000D01*
X130878152Y-87572329D01*
X130858996Y-87509181D01*
X130827889Y-87450984D01*
X130786026Y-87399974D01*
X130735016Y-87358111D01*
X130676819Y-87327004D01*
X130613671Y-87307848D01*
X130548000Y-87301380D01*
X129548000Y-87301380D01*
X129541751Y-87301995D01*
X129520020Y-87279135D01*
X129338206Y-87150877D01*
X129134864Y-87060554D01*
X129079874Y-87043881D01*
X128905000Y-87170046D01*
X128905000Y-88011000D01*
X128925000Y-88011000D01*
X128925000Y-88265000D01*
X128905000Y-88265000D01*
X128905000Y-88285000D01*
X128651000Y-88285000D01*
X128651000Y-88265000D01*
X127635000Y-88265000D01*
X127635000Y-88285000D01*
X127381000Y-88285000D01*
X127381000Y-88265000D01*
X127361000Y-88265000D01*
X127361000Y-88011000D01*
X127381000Y-88011000D01*
X127381000Y-87170046D01*
X127635000Y-87170046D01*
X127635000Y-88011000D01*
X128651000Y-88011000D01*
X128651000Y-87170046D01*
X128476126Y-87043881D01*
X128421136Y-87060554D01*
X128217794Y-87150877D01*
X128143000Y-87203639D01*
X128068206Y-87150877D01*
X127864864Y-87060554D01*
X127809874Y-87043881D01*
X127635000Y-87170046D01*
X127381000Y-87170046D01*
X127206126Y-87043881D01*
X127151136Y-87060554D01*
X126947794Y-87150877D01*
X126765980Y-87279135D01*
X126645406Y-87405974D01*
X126633521Y-87398033D01*
X126481560Y-87335089D01*
X126320240Y-87303000D01*
X126155760Y-87303000D01*
X125994440Y-87335089D01*
X125842479Y-87398033D01*
X125830594Y-87405974D01*
X125710020Y-87279135D01*
X125528206Y-87150877D01*
X125324864Y-87060554D01*
X125269874Y-87043881D01*
X125095000Y-87170046D01*
X125095000Y-88011000D01*
X125115000Y-88011000D01*
X125115000Y-88265000D01*
X125095000Y-88265000D01*
X125095000Y-88285000D01*
X124841000Y-88285000D01*
X124841000Y-88265000D01*
X123998871Y-88265000D01*
X123873874Y-88439876D01*
X121111140Y-88439876D01*
X121055582Y-88160568D01*
X120921193Y-87836124D01*
X123873874Y-87836124D01*
X123998871Y-88011000D01*
X124841000Y-88011000D01*
X124841000Y-87170046D01*
X124666126Y-87043881D01*
X124611136Y-87060554D01*
X124407794Y-87150877D01*
X124225980Y-87279135D01*
X124072682Y-87440399D01*
X123953790Y-87628471D01*
X123873874Y-87836124D01*
X120921193Y-87836124D01*
X120864488Y-87699227D01*
X120587063Y-87284032D01*
X120233968Y-86930937D01*
X119818773Y-86653512D01*
X119357432Y-86462418D01*
X118867676Y-86365000D01*
X118477666Y-86365000D01*
X118634472Y-86281186D01*
X118763394Y-86175382D01*
X135813000Y-86175382D01*
X135813000Y-86290618D01*
X135835481Y-86403638D01*
X135879579Y-86510102D01*
X135943600Y-86605916D01*
X136025084Y-86687400D01*
X136120898Y-86751421D01*
X136227362Y-86795519D01*
X136340382Y-86818000D01*
X136455618Y-86818000D01*
X136568638Y-86795519D01*
X136675102Y-86751421D01*
X136770916Y-86687400D01*
X136852400Y-86605916D01*
X136916421Y-86510102D01*
X136960519Y-86403638D01*
X136983000Y-86290618D01*
X136983000Y-86175382D01*
X136960519Y-86062362D01*
X136916421Y-85955898D01*
X136852400Y-85860084D01*
X136770916Y-85778600D01*
X136675102Y-85714579D01*
X136568638Y-85670481D01*
X136455618Y-85648000D01*
X136340382Y-85648000D01*
X136227362Y-85670481D01*
X136120898Y-85714579D01*
X136025084Y-85778600D01*
X135943600Y-85860084D01*
X135879579Y-85955898D01*
X135835481Y-86062362D01*
X135813000Y-86175382D01*
X118763394Y-86175382D01*
X118776844Y-86164344D01*
X118893686Y-86021972D01*
X118980507Y-85859540D01*
X119033971Y-85683292D01*
X119052024Y-85500000D01*
X119033971Y-85316708D01*
X118980507Y-85140460D01*
X118893686Y-84978028D01*
X118776844Y-84835656D01*
X118634472Y-84718814D01*
X118472040Y-84631993D01*
X118295792Y-84578529D01*
X118158432Y-84565000D01*
X117366568Y-84565000D01*
X117229208Y-84578529D01*
X117052960Y-84631993D01*
X116890528Y-84718814D01*
X116748156Y-84835656D01*
X116696337Y-84898797D01*
X116696849Y-84395599D01*
X119402500Y-84395599D01*
X119402500Y-84604401D01*
X119443235Y-84809191D01*
X119523140Y-85002098D01*
X119639144Y-85175711D01*
X119786789Y-85323356D01*
X119960402Y-85439360D01*
X120153309Y-85519265D01*
X120358099Y-85560000D01*
X120566901Y-85560000D01*
X120771691Y-85519265D01*
X120964598Y-85439360D01*
X121138211Y-85323356D01*
X121285856Y-85175711D01*
X121401860Y-85002098D01*
X121481765Y-84809191D01*
X121522500Y-84604401D01*
X121522500Y-84395599D01*
X121481765Y-84190809D01*
X121401860Y-83997902D01*
X121285856Y-83824289D01*
X121223949Y-83762382D01*
X123113000Y-83762382D01*
X123113000Y-83877618D01*
X123135481Y-83990638D01*
X123179579Y-84097102D01*
X123243600Y-84192916D01*
X123325084Y-84274400D01*
X123420898Y-84338421D01*
X123527362Y-84382519D01*
X123640382Y-84405000D01*
X123755618Y-84405000D01*
X123868638Y-84382519D01*
X123975102Y-84338421D01*
X124070916Y-84274400D01*
X124152400Y-84192916D01*
X124216421Y-84097102D01*
X124260519Y-83990638D01*
X124283000Y-83877618D01*
X124283000Y-83762382D01*
X124260519Y-83649362D01*
X124216421Y-83542898D01*
X124152400Y-83447084D01*
X124070916Y-83365600D01*
X123975102Y-83301579D01*
X123868638Y-83257481D01*
X123755618Y-83235000D01*
X123640382Y-83235000D01*
X123527362Y-83257481D01*
X123420898Y-83301579D01*
X123325084Y-83365600D01*
X123243600Y-83447084D01*
X123179579Y-83542898D01*
X123135481Y-83649362D01*
X123113000Y-83762382D01*
X121223949Y-83762382D01*
X121138211Y-83676644D01*
X120964598Y-83560640D01*
X120771691Y-83480735D01*
X120566901Y-83440000D01*
X120358099Y-83440000D01*
X120153309Y-83480735D01*
X119960402Y-83560640D01*
X119786789Y-83676644D01*
X119639144Y-83824289D01*
X119523140Y-83997902D01*
X119443235Y-84190809D01*
X119402500Y-84395599D01*
X116696849Y-84395599D01*
X116698254Y-83015863D01*
X141197000Y-83015863D01*
X141197000Y-83121249D01*
X141217559Y-83224610D01*
X141257889Y-83321974D01*
X141316438Y-83409599D01*
X141390957Y-83484118D01*
X141478582Y-83542667D01*
X141575946Y-83582997D01*
X141679307Y-83603556D01*
X141784693Y-83603556D01*
X141888054Y-83582997D01*
X141985418Y-83542667D01*
X142073043Y-83484118D01*
X142147562Y-83409599D01*
X142206111Y-83321974D01*
X142246441Y-83224610D01*
X142267000Y-83121249D01*
X142267000Y-83015863D01*
X142246441Y-82912502D01*
X142206111Y-82815138D01*
X142147562Y-82727513D01*
X142073043Y-82652994D01*
X141985418Y-82594445D01*
X141888054Y-82554115D01*
X141784693Y-82533556D01*
X141679307Y-82533556D01*
X141575946Y-82554115D01*
X141478582Y-82594445D01*
X141390957Y-82652994D01*
X141316438Y-82727513D01*
X141257889Y-82815138D01*
X141217559Y-82912502D01*
X141197000Y-83015863D01*
X116698254Y-83015863D01*
X116699580Y-81715609D01*
X130837000Y-81715609D01*
X130837000Y-81860391D01*
X130865246Y-82002391D01*
X130920652Y-82136153D01*
X131001088Y-82256535D01*
X131103465Y-82358912D01*
X131223847Y-82439348D01*
X131357609Y-82494754D01*
X131499609Y-82523000D01*
X131644391Y-82523000D01*
X131786391Y-82494754D01*
X131920153Y-82439348D01*
X132040535Y-82358912D01*
X132080000Y-82319447D01*
X132119465Y-82358912D01*
X132239847Y-82439348D01*
X132373609Y-82494754D01*
X132515609Y-82523000D01*
X132660391Y-82523000D01*
X132802391Y-82494754D01*
X132936153Y-82439348D01*
X133056535Y-82358912D01*
X133096000Y-82319447D01*
X133135465Y-82358912D01*
X133255847Y-82439348D01*
X133389609Y-82494754D01*
X133531609Y-82523000D01*
X133676391Y-82523000D01*
X133818391Y-82494754D01*
X133952153Y-82439348D01*
X134072535Y-82358912D01*
X134174912Y-82256535D01*
X134255348Y-82136153D01*
X134310754Y-82002391D01*
X134339000Y-81860391D01*
X134339000Y-81715609D01*
X134310754Y-81573609D01*
X134255348Y-81439847D01*
X134174912Y-81319465D01*
X134135447Y-81280000D01*
X134174912Y-81240535D01*
X134255348Y-81120153D01*
X134310754Y-80986391D01*
X134339000Y-80844391D01*
X134339000Y-80719307D01*
X145515000Y-80719307D01*
X145515000Y-80824693D01*
X145535559Y-80928054D01*
X145575889Y-81025418D01*
X145634438Y-81113043D01*
X145708957Y-81187562D01*
X145796582Y-81246111D01*
X145893946Y-81286441D01*
X145997307Y-81307000D01*
X146102693Y-81307000D01*
X146206054Y-81286441D01*
X146303418Y-81246111D01*
X146391043Y-81187562D01*
X146465562Y-81113043D01*
X146524111Y-81025418D01*
X146564441Y-80928054D01*
X146585000Y-80824693D01*
X146585000Y-80719307D01*
X146564441Y-80615946D01*
X146524111Y-80518582D01*
X146465562Y-80430957D01*
X146391043Y-80356438D01*
X146303418Y-80297889D01*
X146206054Y-80257559D01*
X146102693Y-80237000D01*
X145997307Y-80237000D01*
X145893946Y-80257559D01*
X145796582Y-80297889D01*
X145708957Y-80356438D01*
X145634438Y-80430957D01*
X145575889Y-80518582D01*
X145535559Y-80615946D01*
X145515000Y-80719307D01*
X134339000Y-80719307D01*
X134339000Y-80699609D01*
X134310754Y-80557609D01*
X134255348Y-80423847D01*
X134174912Y-80303465D01*
X134072535Y-80201088D01*
X133952153Y-80120652D01*
X133818391Y-80065246D01*
X133676391Y-80037000D01*
X133531609Y-80037000D01*
X133389609Y-80065246D01*
X133255847Y-80120652D01*
X133135465Y-80201088D01*
X133033088Y-80303465D01*
X132952652Y-80423847D01*
X132897246Y-80557609D01*
X132869000Y-80699609D01*
X132869000Y-80844391D01*
X132897246Y-80986391D01*
X132952652Y-81120153D01*
X132985875Y-81169875D01*
X132936153Y-81136652D01*
X132802391Y-81081246D01*
X132660391Y-81053000D01*
X132515609Y-81053000D01*
X132373609Y-81081246D01*
X132239847Y-81136652D01*
X132119465Y-81217088D01*
X132080000Y-81256553D01*
X132040535Y-81217088D01*
X131920153Y-81136652D01*
X131786391Y-81081246D01*
X131644391Y-81053000D01*
X131499609Y-81053000D01*
X131357609Y-81081246D01*
X131223847Y-81136652D01*
X131103465Y-81217088D01*
X131001088Y-81319465D01*
X130920652Y-81439847D01*
X130865246Y-81573609D01*
X130837000Y-81715609D01*
X116699580Y-81715609D01*
X116700342Y-80968382D01*
X122097000Y-80968382D01*
X122097000Y-81083618D01*
X122119481Y-81196638D01*
X122163579Y-81303102D01*
X122227600Y-81398916D01*
X122309084Y-81480400D01*
X122404898Y-81544421D01*
X122511362Y-81588519D01*
X122624382Y-81611000D01*
X122739618Y-81611000D01*
X122852638Y-81588519D01*
X122959102Y-81544421D01*
X123054916Y-81480400D01*
X123136400Y-81398916D01*
X123200421Y-81303102D01*
X123244519Y-81196638D01*
X123267000Y-81083618D01*
X123267000Y-80968382D01*
X123244519Y-80855362D01*
X123200421Y-80748898D01*
X123136400Y-80653084D01*
X123054916Y-80571600D01*
X122959102Y-80507579D01*
X122852638Y-80463481D01*
X122739618Y-80441000D01*
X122624382Y-80441000D01*
X122511362Y-80463481D01*
X122404898Y-80507579D01*
X122309084Y-80571600D01*
X122227600Y-80653084D01*
X122163579Y-80748898D01*
X122119481Y-80855362D01*
X122097000Y-80968382D01*
X116700342Y-80968382D01*
X116702239Y-79108394D01*
X116748156Y-79164344D01*
X116890528Y-79281186D01*
X117052960Y-79368007D01*
X117229208Y-79421471D01*
X117366568Y-79435000D01*
X118158432Y-79435000D01*
X118295792Y-79421471D01*
X118381080Y-79395599D01*
X119402500Y-79395599D01*
X119402500Y-79604401D01*
X119443235Y-79809191D01*
X119523140Y-80002098D01*
X119639144Y-80175711D01*
X119786789Y-80323356D01*
X119960402Y-80439360D01*
X120153309Y-80519265D01*
X120358099Y-80560000D01*
X120566901Y-80560000D01*
X120771691Y-80519265D01*
X120964598Y-80439360D01*
X121138211Y-80323356D01*
X121285856Y-80175711D01*
X121401860Y-80002098D01*
X121481765Y-79809191D01*
X121522500Y-79604401D01*
X121522500Y-79395599D01*
X121481765Y-79190809D01*
X121401860Y-78997902D01*
X121285856Y-78824289D01*
X121138211Y-78676644D01*
X120964598Y-78560640D01*
X120771691Y-78480735D01*
X120566901Y-78440000D01*
X120358099Y-78440000D01*
X120153309Y-78480735D01*
X119960402Y-78560640D01*
X119786789Y-78676644D01*
X119639144Y-78824289D01*
X119523140Y-78997902D01*
X119443235Y-79190809D01*
X119402500Y-79395599D01*
X118381080Y-79395599D01*
X118472040Y-79368007D01*
X118634472Y-79281186D01*
X118776844Y-79164344D01*
X118893686Y-79021972D01*
X118980507Y-78859540D01*
X119033971Y-78683292D01*
X119052024Y-78500000D01*
X119033971Y-78316708D01*
X119029322Y-78301382D01*
X136448000Y-78301382D01*
X136448000Y-78416618D01*
X136470481Y-78529638D01*
X136514579Y-78636102D01*
X136578600Y-78731916D01*
X136660084Y-78813400D01*
X136755898Y-78877421D01*
X136862362Y-78921519D01*
X136975382Y-78944000D01*
X137090618Y-78944000D01*
X137203638Y-78921519D01*
X137310102Y-78877421D01*
X137405916Y-78813400D01*
X137487400Y-78731916D01*
X137551421Y-78636102D01*
X137595519Y-78529638D01*
X137618000Y-78416618D01*
X137618000Y-78301382D01*
X137595519Y-78188362D01*
X137589729Y-78174382D01*
X138353000Y-78174382D01*
X138353000Y-78289618D01*
X138375481Y-78402638D01*
X138419579Y-78509102D01*
X138483600Y-78604916D01*
X138565084Y-78686400D01*
X138660898Y-78750421D01*
X138767362Y-78794519D01*
X138880382Y-78817000D01*
X138995618Y-78817000D01*
X139108638Y-78794519D01*
X139215102Y-78750421D01*
X139310916Y-78686400D01*
X139392400Y-78604916D01*
X139456421Y-78509102D01*
X139500519Y-78402638D01*
X139523000Y-78289618D01*
X139523000Y-78174382D01*
X141020000Y-78174382D01*
X141020000Y-78289618D01*
X141042481Y-78402638D01*
X141086579Y-78509102D01*
X141150600Y-78604916D01*
X141232084Y-78686400D01*
X141327898Y-78750421D01*
X141434362Y-78794519D01*
X141547382Y-78817000D01*
X141662618Y-78817000D01*
X141775638Y-78794519D01*
X141882102Y-78750421D01*
X141977916Y-78686400D01*
X142059400Y-78604916D01*
X142123421Y-78509102D01*
X142167519Y-78402638D01*
X142190000Y-78289618D01*
X142190000Y-78174382D01*
X142183537Y-78141886D01*
X151339508Y-78141886D01*
X151339508Y-78257122D01*
X151361989Y-78370142D01*
X151406087Y-78476606D01*
X151470108Y-78572420D01*
X151551592Y-78653904D01*
X151647406Y-78717925D01*
X151753870Y-78762023D01*
X151866890Y-78784504D01*
X151982126Y-78784504D01*
X152095146Y-78762023D01*
X152201610Y-78717925D01*
X152297424Y-78653904D01*
X152378908Y-78572420D01*
X152442929Y-78476606D01*
X152487027Y-78370142D01*
X152509508Y-78257122D01*
X152509508Y-78141886D01*
X152487027Y-78028866D01*
X152442929Y-77922402D01*
X152378908Y-77826588D01*
X152297424Y-77745104D01*
X152201610Y-77681083D01*
X152095146Y-77636985D01*
X151982126Y-77614504D01*
X151866890Y-77614504D01*
X151753870Y-77636985D01*
X151647406Y-77681083D01*
X151551592Y-77745104D01*
X151470108Y-77826588D01*
X151406087Y-77922402D01*
X151361989Y-78028866D01*
X151339508Y-78141886D01*
X142183537Y-78141886D01*
X142167519Y-78061362D01*
X142123421Y-77954898D01*
X142059400Y-77859084D01*
X141977916Y-77777600D01*
X141882102Y-77713579D01*
X141775638Y-77669481D01*
X141662618Y-77647000D01*
X141547382Y-77647000D01*
X141434362Y-77669481D01*
X141327898Y-77713579D01*
X141232084Y-77777600D01*
X141150600Y-77859084D01*
X141086579Y-77954898D01*
X141042481Y-78061362D01*
X141020000Y-78174382D01*
X139523000Y-78174382D01*
X139500519Y-78061362D01*
X139456421Y-77954898D01*
X139392400Y-77859084D01*
X139310916Y-77777600D01*
X139215102Y-77713579D01*
X139108638Y-77669481D01*
X138995618Y-77647000D01*
X138880382Y-77647000D01*
X138767362Y-77669481D01*
X138660898Y-77713579D01*
X138565084Y-77777600D01*
X138483600Y-77859084D01*
X138419579Y-77954898D01*
X138375481Y-78061362D01*
X138353000Y-78174382D01*
X137589729Y-78174382D01*
X137551421Y-78081898D01*
X137487400Y-77986084D01*
X137405916Y-77904600D01*
X137310102Y-77840579D01*
X137203638Y-77796481D01*
X137090618Y-77774000D01*
X136975382Y-77774000D01*
X136862362Y-77796481D01*
X136755898Y-77840579D01*
X136660084Y-77904600D01*
X136578600Y-77986084D01*
X136514579Y-78081898D01*
X136470481Y-78188362D01*
X136448000Y-78301382D01*
X119029322Y-78301382D01*
X118980507Y-78140460D01*
X118893686Y-77978028D01*
X118776844Y-77835656D01*
X118634699Y-77719000D01*
X118867676Y-77719000D01*
X119357432Y-77621582D01*
X119818773Y-77430488D01*
X120233968Y-77153063D01*
X120587063Y-76799968D01*
X120864488Y-76384773D01*
X121055582Y-75923432D01*
X121153000Y-75433676D01*
X121153000Y-74934324D01*
X121055582Y-74444568D01*
X120864488Y-73983227D01*
X120587063Y-73568032D01*
X120277031Y-73258000D01*
X142104969Y-73258000D01*
X141794937Y-73568032D01*
%TA.AperFunction,Conductor*%
D20*
G36*
X141794937Y-73568032D02*
G01*
X141517512Y-73983227D01*
X141326418Y-74444568D01*
X141229000Y-74934324D01*
X141229000Y-75433676D01*
X141326418Y-75923432D01*
X141517512Y-76384773D01*
X141794937Y-76799968D01*
X142148032Y-77153063D01*
X142563227Y-77430488D01*
X143024568Y-77621582D01*
X143514324Y-77719000D01*
X144013676Y-77719000D01*
X144503432Y-77621582D01*
X144964773Y-77430488D01*
X145379968Y-77153063D01*
X145733063Y-76799968D01*
X146010488Y-76384773D01*
X146201582Y-75923432D01*
X146259077Y-75634382D01*
X148386000Y-75634382D01*
X148386000Y-75749618D01*
X148408481Y-75862638D01*
X148452579Y-75969102D01*
X148516600Y-76064916D01*
X148598084Y-76146400D01*
X148693898Y-76210421D01*
X148800362Y-76254519D01*
X148913382Y-76277000D01*
X149028618Y-76277000D01*
X149141638Y-76254519D01*
X149248102Y-76210421D01*
X149343916Y-76146400D01*
X149425400Y-76064916D01*
X149489421Y-75969102D01*
X149533519Y-75862638D01*
X149556000Y-75749618D01*
X149556000Y-75634382D01*
X149533519Y-75521362D01*
X149489421Y-75414898D01*
X149425400Y-75319084D01*
X149343916Y-75237600D01*
X149248102Y-75173579D01*
X149141638Y-75129481D01*
X149028618Y-75107000D01*
X148913382Y-75107000D01*
X148800362Y-75129481D01*
X148693898Y-75173579D01*
X148598084Y-75237600D01*
X148516600Y-75319084D01*
X148452579Y-75414898D01*
X148408481Y-75521362D01*
X148386000Y-75634382D01*
X146259077Y-75634382D01*
X146299000Y-75433676D01*
X146299000Y-74934324D01*
X146201582Y-74444568D01*
X146010488Y-73983227D01*
X145733063Y-73568032D01*
X145423031Y-73258000D01*
X160510391Y-73258000D01*
X160951097Y-73301212D01*
X161358075Y-73424085D01*
X161733438Y-73623669D01*
X162062886Y-73892360D01*
X162333871Y-74219925D01*
X162536070Y-74593884D01*
X162661783Y-74999996D01*
X162708001Y-75439736D01*
X162708000Y-88628391D01*
X162664788Y-89069096D01*
X162541914Y-89476078D01*
X162342331Y-89851437D01*
X162073638Y-90180888D01*
X161746078Y-90451868D01*
X161372116Y-90654070D01*
X160966004Y-90779783D01*
X160526260Y-90826001D01*
X153035000Y-90828515D01*
X153035000Y-83058000D01*
X153032560Y-83033224D01*
X153025333Y-83009399D01*
X153013597Y-82987443D01*
X152997803Y-82968197D01*
X152978557Y-82952403D01*
X152956601Y-82940667D01*
X152932776Y-82933440D01*
X152908000Y-82931000D01*
X151003000Y-82931000D01*
X151003000Y-81788000D01*
X151000560Y-81763224D01*
X150993333Y-81739399D01*
X150981597Y-81717443D01*
X150965803Y-81698197D01*
X150946557Y-81682403D01*
X150924601Y-81670667D01*
X150900776Y-81663440D01*
X150876000Y-81661000D01*
X149098000Y-81661000D01*
X149073224Y-81663440D01*
X149049399Y-81670667D01*
X149027443Y-81682403D01*
X149008197Y-81698197D01*
X148992403Y-81717443D01*
X148980667Y-81739399D01*
X148973440Y-81763224D01*
X148971000Y-81788000D01*
X148971000Y-84328000D01*
X146697220Y-84328000D01*
X146712000Y-84253693D01*
X146712000Y-84148307D01*
X146691441Y-84044946D01*
X146651111Y-83947582D01*
X146592562Y-83859957D01*
X146518043Y-83785438D01*
X146430418Y-83726889D01*
X146333054Y-83686559D01*
X146229693Y-83666000D01*
X146124307Y-83666000D01*
X146020946Y-83686559D01*
X145923582Y-83726889D01*
X145835957Y-83785438D01*
X145761438Y-83859957D01*
X145702889Y-83947582D01*
X145662559Y-84044946D01*
X145642000Y-84148307D01*
X145642000Y-84253693D01*
X145656780Y-84328000D01*
X145161000Y-84328000D01*
X145136224Y-84330440D01*
X145112399Y-84337667D01*
X145090443Y-84349403D01*
X145071197Y-84365197D01*
X145055403Y-84384443D01*
X145043667Y-84406399D01*
X145036440Y-84430224D01*
X145034000Y-84455000D01*
X145034000Y-84963000D01*
X145036440Y-84987776D01*
X145043667Y-85011601D01*
X145055403Y-85033557D01*
X145071197Y-85052803D01*
X145090443Y-85068597D01*
X145112399Y-85080333D01*
X145136224Y-85087560D01*
X145161000Y-85090000D01*
X149479000Y-85090000D01*
X149503776Y-85087560D01*
X149527601Y-85080333D01*
X149549557Y-85068597D01*
X149568803Y-85052803D01*
X149584597Y-85033557D01*
X149596333Y-85011601D01*
X149603560Y-84987776D01*
X149606000Y-84963000D01*
X149606000Y-82423000D01*
X150241000Y-82423000D01*
X150241000Y-83566000D01*
X150243440Y-83590776D01*
X150250667Y-83614601D01*
X150262403Y-83636557D01*
X150278197Y-83655803D01*
X150297443Y-83671597D01*
X150319399Y-83683333D01*
X150343224Y-83690560D01*
X150368000Y-83693000D01*
X152146000Y-83693000D01*
X152146000Y-90828814D01*
X146050000Y-90830860D01*
X146050000Y-90005383D01*
X146201582Y-89639432D01*
X146299000Y-89149676D01*
X146299000Y-88650324D01*
X146201582Y-88160568D01*
X146050000Y-87794617D01*
X146050000Y-85852000D01*
X146047560Y-85827224D01*
X146040333Y-85803399D01*
X146028597Y-85781443D01*
X146012803Y-85762197D01*
X145993557Y-85746403D01*
X145971601Y-85734667D01*
X145947776Y-85727440D01*
X145923000Y-85725000D01*
X145161000Y-85725000D01*
X145136224Y-85727440D01*
X145112399Y-85734667D01*
X145090443Y-85746403D01*
X145071197Y-85762197D01*
X145055403Y-85781443D01*
X145043667Y-85803399D01*
X145036440Y-85827224D01*
X145034000Y-85852000D01*
X145034000Y-86699768D01*
X144964773Y-86653512D01*
X144503432Y-86462418D01*
X144013676Y-86365000D01*
X143514324Y-86365000D01*
X143024568Y-86462418D01*
X142563227Y-86653512D01*
X142148032Y-86930937D01*
X141794937Y-87284032D01*
X141517512Y-87699227D01*
X141326418Y-88160568D01*
X141229000Y-88650324D01*
X141229000Y-89149676D01*
X141326418Y-89639432D01*
X141517512Y-90100773D01*
X141794937Y-90515968D01*
X142111151Y-90832182D01*
X120263516Y-90839515D01*
X120587063Y-90515968D01*
X120864488Y-90100773D01*
X121055582Y-89639432D01*
X121153000Y-89149676D01*
X121153000Y-88650324D01*
X121111140Y-88439876D01*
X123873874Y-88439876D01*
X123953790Y-88647529D01*
X124072682Y-88835601D01*
X124225980Y-88996865D01*
X124234466Y-89002851D01*
X124228033Y-89012479D01*
X124165089Y-89164440D01*
X124133000Y-89325760D01*
X124133000Y-89490240D01*
X124165089Y-89651560D01*
X124228033Y-89803521D01*
X124319413Y-89940281D01*
X124435719Y-90056587D01*
X124572479Y-90147967D01*
X124724440Y-90210911D01*
X124885760Y-90243000D01*
X125050240Y-90243000D01*
X125211560Y-90210911D01*
X125363521Y-90147967D01*
X125500281Y-90056587D01*
X125603000Y-89953868D01*
X125705719Y-90056587D01*
X125842479Y-90147967D01*
X125994440Y-90210911D01*
X126155760Y-90243000D01*
X126320240Y-90243000D01*
X126481560Y-90210911D01*
X126633521Y-90147967D01*
X126770281Y-90056587D01*
X126873000Y-89953868D01*
X126975719Y-90056587D01*
X127112479Y-90147967D01*
X127264440Y-90210911D01*
X127425760Y-90243000D01*
X127590240Y-90243000D01*
X127751560Y-90210911D01*
X127903521Y-90147967D01*
X128040281Y-90056587D01*
X128143000Y-89953868D01*
X128245719Y-90056587D01*
X128382479Y-90147967D01*
X128534440Y-90210911D01*
X128695760Y-90243000D01*
X128860240Y-90243000D01*
X129021560Y-90210911D01*
X129173521Y-90147967D01*
X129310281Y-90056587D01*
X129413000Y-89953868D01*
X129515719Y-90056587D01*
X129652479Y-90147967D01*
X129804440Y-90210911D01*
X129965760Y-90243000D01*
X130130240Y-90243000D01*
X130291560Y-90210911D01*
X130443521Y-90147967D01*
X130580281Y-90056587D01*
X130696587Y-89940281D01*
X130787967Y-89803521D01*
X130850911Y-89651560D01*
X130883000Y-89490240D01*
X130883000Y-89325760D01*
X130850911Y-89164440D01*
X130787967Y-89012479D01*
X130727462Y-88921927D01*
X130735016Y-88917889D01*
X130786026Y-88876026D01*
X130827889Y-88825016D01*
X130858996Y-88766819D01*
X130878152Y-88703671D01*
X130884620Y-88638000D01*
X130884620Y-87638000D01*
X130878152Y-87572329D01*
X130858996Y-87509181D01*
X130827889Y-87450984D01*
X130786026Y-87399974D01*
X130735016Y-87358111D01*
X130676819Y-87327004D01*
X130613671Y-87307848D01*
X130548000Y-87301380D01*
X129548000Y-87301380D01*
X129541751Y-87301995D01*
X129520020Y-87279135D01*
X129338206Y-87150877D01*
X129134864Y-87060554D01*
X129079874Y-87043881D01*
X128905000Y-87170046D01*
X128905000Y-88011000D01*
X128925000Y-88011000D01*
X128925000Y-88265000D01*
X128905000Y-88265000D01*
X128905000Y-88285000D01*
X128651000Y-88285000D01*
X128651000Y-88265000D01*
X127635000Y-88265000D01*
X127635000Y-88285000D01*
X127381000Y-88285000D01*
X127381000Y-88265000D01*
X127361000Y-88265000D01*
X127361000Y-88011000D01*
X127381000Y-88011000D01*
X127381000Y-87170046D01*
X127635000Y-87170046D01*
X127635000Y-88011000D01*
X128651000Y-88011000D01*
X128651000Y-87170046D01*
X128476126Y-87043881D01*
X128421136Y-87060554D01*
X128217794Y-87150877D01*
X128143000Y-87203639D01*
X128068206Y-87150877D01*
X127864864Y-87060554D01*
X127809874Y-87043881D01*
X127635000Y-87170046D01*
X127381000Y-87170046D01*
X127206126Y-87043881D01*
X127151136Y-87060554D01*
X126947794Y-87150877D01*
X126765980Y-87279135D01*
X126645406Y-87405974D01*
X126633521Y-87398033D01*
X126481560Y-87335089D01*
X126320240Y-87303000D01*
X126155760Y-87303000D01*
X125994440Y-87335089D01*
X125842479Y-87398033D01*
X125830594Y-87405974D01*
X125710020Y-87279135D01*
X125528206Y-87150877D01*
X125324864Y-87060554D01*
X125269874Y-87043881D01*
X125095000Y-87170046D01*
X125095000Y-88011000D01*
X125115000Y-88011000D01*
X125115000Y-88265000D01*
X125095000Y-88265000D01*
X125095000Y-88285000D01*
X124841000Y-88285000D01*
X124841000Y-88265000D01*
X123998871Y-88265000D01*
X123873874Y-88439876D01*
X121111140Y-88439876D01*
X121055582Y-88160568D01*
X120921193Y-87836124D01*
X123873874Y-87836124D01*
X123998871Y-88011000D01*
X124841000Y-88011000D01*
X124841000Y-87170046D01*
X124666126Y-87043881D01*
X124611136Y-87060554D01*
X124407794Y-87150877D01*
X124225980Y-87279135D01*
X124072682Y-87440399D01*
X123953790Y-87628471D01*
X123873874Y-87836124D01*
X120921193Y-87836124D01*
X120864488Y-87699227D01*
X120587063Y-87284032D01*
X120233968Y-86930937D01*
X119818773Y-86653512D01*
X119357432Y-86462418D01*
X118867676Y-86365000D01*
X118477666Y-86365000D01*
X118634472Y-86281186D01*
X118763394Y-86175382D01*
X135813000Y-86175382D01*
X135813000Y-86290618D01*
X135835481Y-86403638D01*
X135879579Y-86510102D01*
X135943600Y-86605916D01*
X136025084Y-86687400D01*
X136120898Y-86751421D01*
X136227362Y-86795519D01*
X136340382Y-86818000D01*
X136455618Y-86818000D01*
X136568638Y-86795519D01*
X136675102Y-86751421D01*
X136770916Y-86687400D01*
X136852400Y-86605916D01*
X136916421Y-86510102D01*
X136960519Y-86403638D01*
X136983000Y-86290618D01*
X136983000Y-86175382D01*
X136960519Y-86062362D01*
X136916421Y-85955898D01*
X136852400Y-85860084D01*
X136770916Y-85778600D01*
X136675102Y-85714579D01*
X136568638Y-85670481D01*
X136455618Y-85648000D01*
X136340382Y-85648000D01*
X136227362Y-85670481D01*
X136120898Y-85714579D01*
X136025084Y-85778600D01*
X135943600Y-85860084D01*
X135879579Y-85955898D01*
X135835481Y-86062362D01*
X135813000Y-86175382D01*
X118763394Y-86175382D01*
X118776844Y-86164344D01*
X118893686Y-86021972D01*
X118980507Y-85859540D01*
X119033971Y-85683292D01*
X119052024Y-85500000D01*
X119033971Y-85316708D01*
X118980507Y-85140460D01*
X118893686Y-84978028D01*
X118776844Y-84835656D01*
X118634472Y-84718814D01*
X118472040Y-84631993D01*
X118295792Y-84578529D01*
X118158432Y-84565000D01*
X117366568Y-84565000D01*
X117229208Y-84578529D01*
X117052960Y-84631993D01*
X116890528Y-84718814D01*
X116748156Y-84835656D01*
X116696337Y-84898797D01*
X116696849Y-84395599D01*
X119402500Y-84395599D01*
X119402500Y-84604401D01*
X119443235Y-84809191D01*
X119523140Y-85002098D01*
X119639144Y-85175711D01*
X119786789Y-85323356D01*
X119960402Y-85439360D01*
X120153309Y-85519265D01*
X120358099Y-85560000D01*
X120566901Y-85560000D01*
X120771691Y-85519265D01*
X120964598Y-85439360D01*
X121138211Y-85323356D01*
X121285856Y-85175711D01*
X121401860Y-85002098D01*
X121481765Y-84809191D01*
X121522500Y-84604401D01*
X121522500Y-84395599D01*
X121481765Y-84190809D01*
X121401860Y-83997902D01*
X121285856Y-83824289D01*
X121223949Y-83762382D01*
X123113000Y-83762382D01*
X123113000Y-83877618D01*
X123135481Y-83990638D01*
X123179579Y-84097102D01*
X123243600Y-84192916D01*
X123325084Y-84274400D01*
X123420898Y-84338421D01*
X123527362Y-84382519D01*
X123640382Y-84405000D01*
X123755618Y-84405000D01*
X123868638Y-84382519D01*
X123975102Y-84338421D01*
X124070916Y-84274400D01*
X124152400Y-84192916D01*
X124216421Y-84097102D01*
X124260519Y-83990638D01*
X124283000Y-83877618D01*
X124283000Y-83762382D01*
X124260519Y-83649362D01*
X124216421Y-83542898D01*
X124152400Y-83447084D01*
X124070916Y-83365600D01*
X123975102Y-83301579D01*
X123868638Y-83257481D01*
X123755618Y-83235000D01*
X123640382Y-83235000D01*
X123527362Y-83257481D01*
X123420898Y-83301579D01*
X123325084Y-83365600D01*
X123243600Y-83447084D01*
X123179579Y-83542898D01*
X123135481Y-83649362D01*
X123113000Y-83762382D01*
X121223949Y-83762382D01*
X121138211Y-83676644D01*
X120964598Y-83560640D01*
X120771691Y-83480735D01*
X120566901Y-83440000D01*
X120358099Y-83440000D01*
X120153309Y-83480735D01*
X119960402Y-83560640D01*
X119786789Y-83676644D01*
X119639144Y-83824289D01*
X119523140Y-83997902D01*
X119443235Y-84190809D01*
X119402500Y-84395599D01*
X116696849Y-84395599D01*
X116698254Y-83015863D01*
X141197000Y-83015863D01*
X141197000Y-83121249D01*
X141217559Y-83224610D01*
X141257889Y-83321974D01*
X141316438Y-83409599D01*
X141390957Y-83484118D01*
X141478582Y-83542667D01*
X141575946Y-83582997D01*
X141679307Y-83603556D01*
X141784693Y-83603556D01*
X141888054Y-83582997D01*
X141985418Y-83542667D01*
X142073043Y-83484118D01*
X142147562Y-83409599D01*
X142206111Y-83321974D01*
X142246441Y-83224610D01*
X142267000Y-83121249D01*
X142267000Y-83015863D01*
X142246441Y-82912502D01*
X142206111Y-82815138D01*
X142147562Y-82727513D01*
X142073043Y-82652994D01*
X141985418Y-82594445D01*
X141888054Y-82554115D01*
X141784693Y-82533556D01*
X141679307Y-82533556D01*
X141575946Y-82554115D01*
X141478582Y-82594445D01*
X141390957Y-82652994D01*
X141316438Y-82727513D01*
X141257889Y-82815138D01*
X141217559Y-82912502D01*
X141197000Y-83015863D01*
X116698254Y-83015863D01*
X116699580Y-81715609D01*
X130837000Y-81715609D01*
X130837000Y-81860391D01*
X130865246Y-82002391D01*
X130920652Y-82136153D01*
X131001088Y-82256535D01*
X131103465Y-82358912D01*
X131223847Y-82439348D01*
X131357609Y-82494754D01*
X131499609Y-82523000D01*
X131644391Y-82523000D01*
X131786391Y-82494754D01*
X131920153Y-82439348D01*
X132040535Y-82358912D01*
X132080000Y-82319447D01*
X132119465Y-82358912D01*
X132239847Y-82439348D01*
X132373609Y-82494754D01*
X132515609Y-82523000D01*
X132660391Y-82523000D01*
X132802391Y-82494754D01*
X132936153Y-82439348D01*
X133056535Y-82358912D01*
X133096000Y-82319447D01*
X133135465Y-82358912D01*
X133255847Y-82439348D01*
X133389609Y-82494754D01*
X133531609Y-82523000D01*
X133676391Y-82523000D01*
X133818391Y-82494754D01*
X133952153Y-82439348D01*
X134072535Y-82358912D01*
X134174912Y-82256535D01*
X134255348Y-82136153D01*
X134310754Y-82002391D01*
X134339000Y-81860391D01*
X134339000Y-81715609D01*
X134310754Y-81573609D01*
X134255348Y-81439847D01*
X134174912Y-81319465D01*
X134135447Y-81280000D01*
X134174912Y-81240535D01*
X134255348Y-81120153D01*
X134310754Y-80986391D01*
X134339000Y-80844391D01*
X134339000Y-80719307D01*
X145515000Y-80719307D01*
X145515000Y-80824693D01*
X145535559Y-80928054D01*
X145575889Y-81025418D01*
X145634438Y-81113043D01*
X145708957Y-81187562D01*
X145796582Y-81246111D01*
X145893946Y-81286441D01*
X145997307Y-81307000D01*
X146102693Y-81307000D01*
X146206054Y-81286441D01*
X146303418Y-81246111D01*
X146391043Y-81187562D01*
X146465562Y-81113043D01*
X146524111Y-81025418D01*
X146564441Y-80928054D01*
X146585000Y-80824693D01*
X146585000Y-80719307D01*
X146564441Y-80615946D01*
X146524111Y-80518582D01*
X146465562Y-80430957D01*
X146391043Y-80356438D01*
X146303418Y-80297889D01*
X146206054Y-80257559D01*
X146102693Y-80237000D01*
X145997307Y-80237000D01*
X145893946Y-80257559D01*
X145796582Y-80297889D01*
X145708957Y-80356438D01*
X145634438Y-80430957D01*
X145575889Y-80518582D01*
X145535559Y-80615946D01*
X145515000Y-80719307D01*
X134339000Y-80719307D01*
X134339000Y-80699609D01*
X134310754Y-80557609D01*
X134255348Y-80423847D01*
X134174912Y-80303465D01*
X134072535Y-80201088D01*
X133952153Y-80120652D01*
X133818391Y-80065246D01*
X133676391Y-80037000D01*
X133531609Y-80037000D01*
X133389609Y-80065246D01*
X133255847Y-80120652D01*
X133135465Y-80201088D01*
X133033088Y-80303465D01*
X132952652Y-80423847D01*
X132897246Y-80557609D01*
X132869000Y-80699609D01*
X132869000Y-80844391D01*
X132897246Y-80986391D01*
X132952652Y-81120153D01*
X132985875Y-81169875D01*
X132936153Y-81136652D01*
X132802391Y-81081246D01*
X132660391Y-81053000D01*
X132515609Y-81053000D01*
X132373609Y-81081246D01*
X132239847Y-81136652D01*
X132119465Y-81217088D01*
X132080000Y-81256553D01*
X132040535Y-81217088D01*
X131920153Y-81136652D01*
X131786391Y-81081246D01*
X131644391Y-81053000D01*
X131499609Y-81053000D01*
X131357609Y-81081246D01*
X131223847Y-81136652D01*
X131103465Y-81217088D01*
X131001088Y-81319465D01*
X130920652Y-81439847D01*
X130865246Y-81573609D01*
X130837000Y-81715609D01*
X116699580Y-81715609D01*
X116700342Y-80968382D01*
X122097000Y-80968382D01*
X122097000Y-81083618D01*
X122119481Y-81196638D01*
X122163579Y-81303102D01*
X122227600Y-81398916D01*
X122309084Y-81480400D01*
X122404898Y-81544421D01*
X122511362Y-81588519D01*
X122624382Y-81611000D01*
X122739618Y-81611000D01*
X122852638Y-81588519D01*
X122959102Y-81544421D01*
X123054916Y-81480400D01*
X123136400Y-81398916D01*
X123200421Y-81303102D01*
X123244519Y-81196638D01*
X123267000Y-81083618D01*
X123267000Y-80968382D01*
X123244519Y-80855362D01*
X123200421Y-80748898D01*
X123136400Y-80653084D01*
X123054916Y-80571600D01*
X122959102Y-80507579D01*
X122852638Y-80463481D01*
X122739618Y-80441000D01*
X122624382Y-80441000D01*
X122511362Y-80463481D01*
X122404898Y-80507579D01*
X122309084Y-80571600D01*
X122227600Y-80653084D01*
X122163579Y-80748898D01*
X122119481Y-80855362D01*
X122097000Y-80968382D01*
X116700342Y-80968382D01*
X116702239Y-79108394D01*
X116748156Y-79164344D01*
X116890528Y-79281186D01*
X117052960Y-79368007D01*
X117229208Y-79421471D01*
X117366568Y-79435000D01*
X118158432Y-79435000D01*
X118295792Y-79421471D01*
X118381080Y-79395599D01*
X119402500Y-79395599D01*
X119402500Y-79604401D01*
X119443235Y-79809191D01*
X119523140Y-80002098D01*
X119639144Y-80175711D01*
X119786789Y-80323356D01*
X119960402Y-80439360D01*
X120153309Y-80519265D01*
X120358099Y-80560000D01*
X120566901Y-80560000D01*
X120771691Y-80519265D01*
X120964598Y-80439360D01*
X121138211Y-80323356D01*
X121285856Y-80175711D01*
X121401860Y-80002098D01*
X121481765Y-79809191D01*
X121522500Y-79604401D01*
X121522500Y-79395599D01*
X121481765Y-79190809D01*
X121401860Y-78997902D01*
X121285856Y-78824289D01*
X121138211Y-78676644D01*
X120964598Y-78560640D01*
X120771691Y-78480735D01*
X120566901Y-78440000D01*
X120358099Y-78440000D01*
X120153309Y-78480735D01*
X119960402Y-78560640D01*
X119786789Y-78676644D01*
X119639144Y-78824289D01*
X119523140Y-78997902D01*
X119443235Y-79190809D01*
X119402500Y-79395599D01*
X118381080Y-79395599D01*
X118472040Y-79368007D01*
X118634472Y-79281186D01*
X118776844Y-79164344D01*
X118893686Y-79021972D01*
X118980507Y-78859540D01*
X119033971Y-78683292D01*
X119052024Y-78500000D01*
X119033971Y-78316708D01*
X119029322Y-78301382D01*
X136448000Y-78301382D01*
X136448000Y-78416618D01*
X136470481Y-78529638D01*
X136514579Y-78636102D01*
X136578600Y-78731916D01*
X136660084Y-78813400D01*
X136755898Y-78877421D01*
X136862362Y-78921519D01*
X136975382Y-78944000D01*
X137090618Y-78944000D01*
X137203638Y-78921519D01*
X137310102Y-78877421D01*
X137405916Y-78813400D01*
X137487400Y-78731916D01*
X137551421Y-78636102D01*
X137595519Y-78529638D01*
X137618000Y-78416618D01*
X137618000Y-78301382D01*
X137595519Y-78188362D01*
X137589729Y-78174382D01*
X138353000Y-78174382D01*
X138353000Y-78289618D01*
X138375481Y-78402638D01*
X138419579Y-78509102D01*
X138483600Y-78604916D01*
X138565084Y-78686400D01*
X138660898Y-78750421D01*
X138767362Y-78794519D01*
X138880382Y-78817000D01*
X138995618Y-78817000D01*
X139108638Y-78794519D01*
X139215102Y-78750421D01*
X139310916Y-78686400D01*
X139392400Y-78604916D01*
X139456421Y-78509102D01*
X139500519Y-78402638D01*
X139523000Y-78289618D01*
X139523000Y-78174382D01*
X141020000Y-78174382D01*
X141020000Y-78289618D01*
X141042481Y-78402638D01*
X141086579Y-78509102D01*
X141150600Y-78604916D01*
X141232084Y-78686400D01*
X141327898Y-78750421D01*
X141434362Y-78794519D01*
X141547382Y-78817000D01*
X141662618Y-78817000D01*
X141775638Y-78794519D01*
X141882102Y-78750421D01*
X141977916Y-78686400D01*
X142059400Y-78604916D01*
X142123421Y-78509102D01*
X142167519Y-78402638D01*
X142190000Y-78289618D01*
X142190000Y-78174382D01*
X142183537Y-78141886D01*
X151339508Y-78141886D01*
X151339508Y-78257122D01*
X151361989Y-78370142D01*
X151406087Y-78476606D01*
X151470108Y-78572420D01*
X151551592Y-78653904D01*
X151647406Y-78717925D01*
X151753870Y-78762023D01*
X151866890Y-78784504D01*
X151982126Y-78784504D01*
X152095146Y-78762023D01*
X152201610Y-78717925D01*
X152297424Y-78653904D01*
X152378908Y-78572420D01*
X152442929Y-78476606D01*
X152487027Y-78370142D01*
X152509508Y-78257122D01*
X152509508Y-78141886D01*
X152487027Y-78028866D01*
X152442929Y-77922402D01*
X152378908Y-77826588D01*
X152297424Y-77745104D01*
X152201610Y-77681083D01*
X152095146Y-77636985D01*
X151982126Y-77614504D01*
X151866890Y-77614504D01*
X151753870Y-77636985D01*
X151647406Y-77681083D01*
X151551592Y-77745104D01*
X151470108Y-77826588D01*
X151406087Y-77922402D01*
X151361989Y-78028866D01*
X151339508Y-78141886D01*
X142183537Y-78141886D01*
X142167519Y-78061362D01*
X142123421Y-77954898D01*
X142059400Y-77859084D01*
X141977916Y-77777600D01*
X141882102Y-77713579D01*
X141775638Y-77669481D01*
X141662618Y-77647000D01*
X141547382Y-77647000D01*
X141434362Y-77669481D01*
X141327898Y-77713579D01*
X141232084Y-77777600D01*
X141150600Y-77859084D01*
X141086579Y-77954898D01*
X141042481Y-78061362D01*
X141020000Y-78174382D01*
X139523000Y-78174382D01*
X139500519Y-78061362D01*
X139456421Y-77954898D01*
X139392400Y-77859084D01*
X139310916Y-77777600D01*
X139215102Y-77713579D01*
X139108638Y-77669481D01*
X138995618Y-77647000D01*
X138880382Y-77647000D01*
X138767362Y-77669481D01*
X138660898Y-77713579D01*
X138565084Y-77777600D01*
X138483600Y-77859084D01*
X138419579Y-77954898D01*
X138375481Y-78061362D01*
X138353000Y-78174382D01*
X137589729Y-78174382D01*
X137551421Y-78081898D01*
X137487400Y-77986084D01*
X137405916Y-77904600D01*
X137310102Y-77840579D01*
X137203638Y-77796481D01*
X137090618Y-77774000D01*
X136975382Y-77774000D01*
X136862362Y-77796481D01*
X136755898Y-77840579D01*
X136660084Y-77904600D01*
X136578600Y-77986084D01*
X136514579Y-78081898D01*
X136470481Y-78188362D01*
X136448000Y-78301382D01*
X119029322Y-78301382D01*
X118980507Y-78140460D01*
X118893686Y-77978028D01*
X118776844Y-77835656D01*
X118634699Y-77719000D01*
X118867676Y-77719000D01*
X119357432Y-77621582D01*
X119818773Y-77430488D01*
X120233968Y-77153063D01*
X120587063Y-76799968D01*
X120864488Y-76384773D01*
X121055582Y-75923432D01*
X121153000Y-75433676D01*
X121153000Y-74934324D01*
X121055582Y-74444568D01*
X120864488Y-73983227D01*
X120587063Y-73568032D01*
X120277031Y-73258000D01*
X142104969Y-73258000D01*
X141794937Y-73568032D01*
G37*
%TD.AperFunction*%
M02*
