%TF.GenerationSoftware,KiCad,Pcbnew,(5.1.12)-1*%
%TF.CreationDate,2022-02-05T21:00:18-05:00*%
%TF.ProjectId,usb-rf,7573622d-7266-42e6-9b69-6361645f7063,rev?*%
%TF.SameCoordinates,Original*%
%TF.FileFunction,Copper,L3,Inr*%
%TF.FilePolarity,Positive*%
%FSLAX46Y46*%
G04 Gerber Fmt 4.6, Leading zero omitted, Abs format (unit mm)*
G04 Created by KiCad (PCBNEW (5.1.12)-1) date 2022-02-05 21:00:18*
%MOMM*%
%LPD*%
G01*
G04 APERTURE LIST*
%TA.AperFunction,ComponentPad*%
%ADD10O,1.900000X1.200000*%
%TD*%
%TA.AperFunction,ComponentPad*%
%ADD11C,1.450000*%
%TD*%
%TA.AperFunction,ComponentPad*%
%ADD12O,1.000000X1.000000*%
%TD*%
%TA.AperFunction,ComponentPad*%
%ADD13R,1.000000X1.000000*%
%TD*%
%TA.AperFunction,ComponentPad*%
%ADD14C,4.400000*%
%TD*%
%TA.AperFunction,ViaPad*%
%ADD15C,0.500000*%
%TD*%
%TA.AperFunction,ViaPad*%
%ADD16C,0.800000*%
%TD*%
%TA.AperFunction,ViaPad*%
%ADD17C,0.400000*%
%TD*%
%TA.AperFunction,Conductor*%
%ADD18C,0.254000*%
%TD*%
%TA.AperFunction,Conductor*%
%ADD19C,0.100000*%
%TD*%
G04 APERTURE END LIST*
D10*
X117762500Y-85500000D03*
X117762500Y-78500000D03*
D11*
X120462500Y-84500000D03*
X120462500Y-79500000D03*
D12*
X124968000Y-89408000D03*
X124968000Y-88138000D03*
X126238000Y-89408000D03*
X126238000Y-88138000D03*
X127508000Y-89408000D03*
X127508000Y-88138000D03*
X128778000Y-89408000D03*
X128778000Y-88138000D03*
X130048000Y-89408000D03*
D13*
X130048000Y-88138000D03*
D14*
X143764000Y-75184000D03*
X143764000Y-88900000D03*
X118618000Y-88900000D03*
X118618000Y-75184000D03*
D15*
X138176000Y-82550000D03*
X138176000Y-81026000D03*
X138176000Y-81788000D03*
D16*
X129540000Y-75184000D03*
X130810000Y-75184000D03*
X140208000Y-75438000D03*
X124460000Y-80518000D03*
X128475740Y-80768315D03*
X128524000Y-82042000D03*
X131572000Y-78232000D03*
X121711561Y-84057873D03*
X121793000Y-85090000D03*
X121793000Y-85979000D03*
X122682000Y-85979000D03*
X125857000Y-83820000D03*
D15*
X135254978Y-84399000D03*
X142621000Y-79121000D03*
X140843000Y-76454000D03*
X139827000Y-76454000D03*
X150876000Y-75692000D03*
X151765000Y-75692000D03*
X149860000Y-75692000D03*
X145923000Y-77724000D03*
D17*
X148843982Y-84201000D03*
D15*
X152019000Y-78994028D03*
X124206000Y-86360000D03*
X151765000Y-88011000D03*
X146431000Y-85344000D03*
X156337000Y-82550000D03*
X156337000Y-83566000D03*
X157607000Y-78740000D03*
X161036000Y-77343000D03*
X161036000Y-86233000D03*
D16*
X153543000Y-79375000D03*
X153543000Y-73660000D03*
X153543000Y-83947000D03*
X153543000Y-90424000D03*
X153543000Y-87122000D03*
X153543000Y-76454000D03*
X162306000Y-77470000D03*
X162306000Y-86106000D03*
X159512000Y-90424000D03*
X159512000Y-73660000D03*
X156718000Y-73660000D03*
X156718000Y-90424000D03*
D15*
X137668000Y-76454000D03*
X159766000Y-77216000D03*
X159766000Y-86360000D03*
D16*
X131572000Y-81788000D03*
X132588000Y-81788000D03*
X133604000Y-81788000D03*
X133604000Y-80772000D03*
D15*
X136398000Y-86233000D03*
X141605000Y-78232000D03*
X137033000Y-78359000D03*
D17*
X146177000Y-84201000D03*
D15*
X148971000Y-75692000D03*
X151924508Y-78199504D03*
X138938000Y-78232000D03*
X122682000Y-81026000D03*
X123698000Y-83820000D03*
D17*
X141732000Y-83068556D03*
X146050000Y-80772000D03*
D18*
X141794937Y-73568032D02*
X141517512Y-73983227D01*
X141326418Y-74444568D01*
X141229000Y-74934324D01*
X141229000Y-75433676D01*
X141326418Y-75923432D01*
X141517512Y-76384773D01*
X141794937Y-76799968D01*
X142148032Y-77153063D01*
X142563227Y-77430488D01*
X143024568Y-77621582D01*
X143514324Y-77719000D01*
X144013676Y-77719000D01*
X144278205Y-77666382D01*
X145338000Y-77666382D01*
X145338000Y-77781618D01*
X145360481Y-77894638D01*
X145404579Y-78001102D01*
X145468600Y-78096916D01*
X145550084Y-78178400D01*
X145645898Y-78242421D01*
X145752362Y-78286519D01*
X145865382Y-78309000D01*
X145980618Y-78309000D01*
X146093638Y-78286519D01*
X146200102Y-78242421D01*
X146295916Y-78178400D01*
X146377400Y-78096916D01*
X146441421Y-78001102D01*
X146485519Y-77894638D01*
X146508000Y-77781618D01*
X146508000Y-77666382D01*
X146485519Y-77553362D01*
X146441421Y-77446898D01*
X146377400Y-77351084D01*
X146295916Y-77269600D01*
X146200102Y-77205579D01*
X146093638Y-77161481D01*
X145980618Y-77139000D01*
X145865382Y-77139000D01*
X145752362Y-77161481D01*
X145645898Y-77205579D01*
X145550084Y-77269600D01*
X145468600Y-77351084D01*
X145404579Y-77446898D01*
X145360481Y-77553362D01*
X145338000Y-77666382D01*
X144278205Y-77666382D01*
X144503432Y-77621582D01*
X144964773Y-77430488D01*
X145379968Y-77153063D01*
X145733063Y-76799968D01*
X146010488Y-76384773D01*
X146201582Y-75923432D01*
X146299000Y-75433676D01*
X146299000Y-74934324D01*
X146201582Y-74444568D01*
X146010488Y-73983227D01*
X145733063Y-73568032D01*
X145423031Y-73258000D01*
X152273000Y-73258000D01*
X152273000Y-75399302D01*
X152219400Y-75319084D01*
X152137916Y-75237600D01*
X152042102Y-75173579D01*
X151935638Y-75129481D01*
X151822618Y-75107000D01*
X151707382Y-75107000D01*
X151594362Y-75129481D01*
X151487898Y-75173579D01*
X151392084Y-75237600D01*
X151320500Y-75309184D01*
X151248916Y-75237600D01*
X151153102Y-75173579D01*
X151046638Y-75129481D01*
X150933618Y-75107000D01*
X150818382Y-75107000D01*
X150705362Y-75129481D01*
X150598898Y-75173579D01*
X150503084Y-75237600D01*
X150421600Y-75319084D01*
X150368000Y-75399302D01*
X150314400Y-75319084D01*
X150232916Y-75237600D01*
X150137102Y-75173579D01*
X150030638Y-75129481D01*
X149917618Y-75107000D01*
X149802382Y-75107000D01*
X149689362Y-75129481D01*
X149582898Y-75173579D01*
X149487084Y-75237600D01*
X149405600Y-75319084D01*
X149341579Y-75414898D01*
X149297481Y-75521362D01*
X149275000Y-75634382D01*
X149275000Y-75749618D01*
X149297481Y-75862638D01*
X149341579Y-75969102D01*
X149405600Y-76064916D01*
X149487084Y-76146400D01*
X149582898Y-76210421D01*
X149689362Y-76254519D01*
X149802382Y-76277000D01*
X149917618Y-76277000D01*
X150030638Y-76254519D01*
X150137102Y-76210421D01*
X150232916Y-76146400D01*
X150314400Y-76064916D01*
X150368000Y-75984698D01*
X150421600Y-76064916D01*
X150503084Y-76146400D01*
X150598898Y-76210421D01*
X150705362Y-76254519D01*
X150818382Y-76277000D01*
X150933618Y-76277000D01*
X151046638Y-76254519D01*
X151153102Y-76210421D01*
X151248916Y-76146400D01*
X151320500Y-76074816D01*
X151392084Y-76146400D01*
X151487898Y-76210421D01*
X151594362Y-76254519D01*
X151707382Y-76277000D01*
X151822618Y-76277000D01*
X151935638Y-76254519D01*
X152042102Y-76210421D01*
X152137916Y-76146400D01*
X152219400Y-76064916D01*
X152273000Y-75984698D01*
X152273000Y-78466038D01*
X152189638Y-78431509D01*
X152076618Y-78409028D01*
X151961382Y-78409028D01*
X151848362Y-78431509D01*
X151741898Y-78475607D01*
X151646084Y-78539628D01*
X151564600Y-78621112D01*
X151500579Y-78716926D01*
X151456481Y-78823390D01*
X151434000Y-78936410D01*
X151434000Y-79051646D01*
X151456481Y-79164666D01*
X151500579Y-79271130D01*
X151511000Y-79286726D01*
X151511000Y-79629000D01*
X150241000Y-79629000D01*
X150216224Y-79631440D01*
X150192399Y-79638667D01*
X150170443Y-79650403D01*
X150151197Y-79666197D01*
X150135403Y-79685443D01*
X150123667Y-79707399D01*
X150116440Y-79731224D01*
X150114000Y-79756000D01*
X150114000Y-81915000D01*
X149098000Y-81915000D01*
X149073224Y-81917440D01*
X149049399Y-81924667D01*
X149027443Y-81936403D01*
X149008197Y-81952197D01*
X148992403Y-81971443D01*
X148980667Y-81993399D01*
X148973440Y-82017224D01*
X148971000Y-82042000D01*
X148971000Y-83680784D01*
X148896675Y-83666000D01*
X148791289Y-83666000D01*
X148687928Y-83686559D01*
X148590564Y-83726889D01*
X148502939Y-83785438D01*
X148428420Y-83859957D01*
X148369871Y-83947582D01*
X148329541Y-84044946D01*
X148308982Y-84148307D01*
X148308982Y-84253693D01*
X148329541Y-84357054D01*
X148369871Y-84454418D01*
X148428420Y-84542043D01*
X148468377Y-84582000D01*
X146939000Y-84582000D01*
X146914224Y-84584440D01*
X146890399Y-84591667D01*
X146868443Y-84603403D01*
X146849197Y-84619197D01*
X146833403Y-84638443D01*
X146821667Y-84660399D01*
X146814440Y-84684224D01*
X146812000Y-84709000D01*
X146812000Y-84897684D01*
X146803916Y-84889600D01*
X146708102Y-84825579D01*
X146601638Y-84781481D01*
X146488618Y-84759000D01*
X146373382Y-84759000D01*
X146260362Y-84781481D01*
X146153898Y-84825579D01*
X146058084Y-84889600D01*
X145976600Y-84971084D01*
X145912579Y-85066898D01*
X145868481Y-85173362D01*
X145846000Y-85286382D01*
X145846000Y-85401618D01*
X145868481Y-85514638D01*
X145912579Y-85621102D01*
X145976600Y-85716916D01*
X146058084Y-85798400D01*
X146153898Y-85862421D01*
X146260362Y-85906519D01*
X146373382Y-85929000D01*
X146488618Y-85929000D01*
X146601638Y-85906519D01*
X146708102Y-85862421D01*
X146803916Y-85798400D01*
X146812000Y-85790316D01*
X146812000Y-90830604D01*
X145417959Y-90831072D01*
X145733063Y-90515968D01*
X146010488Y-90100773D01*
X146201582Y-89639432D01*
X146299000Y-89149676D01*
X146299000Y-88650324D01*
X146201582Y-88160568D01*
X146010488Y-87699227D01*
X145733063Y-87284032D01*
X145379968Y-86930937D01*
X144964773Y-86653512D01*
X144503432Y-86462418D01*
X144013676Y-86365000D01*
X143514324Y-86365000D01*
X143024568Y-86462418D01*
X142563227Y-86653512D01*
X142148032Y-86930937D01*
X141794937Y-87284032D01*
X141517512Y-87699227D01*
X141326418Y-88160568D01*
X141229000Y-88650324D01*
X141229000Y-89149676D01*
X141326418Y-89639432D01*
X141517512Y-90100773D01*
X141794937Y-90515968D01*
X142111151Y-90832182D01*
X120263516Y-90839515D01*
X120587063Y-90515968D01*
X120864488Y-90100773D01*
X121055582Y-89639432D01*
X121153000Y-89149676D01*
X121153000Y-88650324D01*
X121055582Y-88160568D01*
X121012170Y-88055760D01*
X124133000Y-88055760D01*
X124133000Y-88220240D01*
X124165089Y-88381560D01*
X124228033Y-88533521D01*
X124319413Y-88670281D01*
X124422132Y-88773000D01*
X124319413Y-88875719D01*
X124228033Y-89012479D01*
X124165089Y-89164440D01*
X124133000Y-89325760D01*
X124133000Y-89490240D01*
X124165089Y-89651560D01*
X124228033Y-89803521D01*
X124319413Y-89940281D01*
X124435719Y-90056587D01*
X124572479Y-90147967D01*
X124724440Y-90210911D01*
X124885760Y-90243000D01*
X125050240Y-90243000D01*
X125211560Y-90210911D01*
X125363521Y-90147967D01*
X125500281Y-90056587D01*
X125603000Y-89953868D01*
X125705719Y-90056587D01*
X125842479Y-90147967D01*
X125994440Y-90210911D01*
X126155760Y-90243000D01*
X126320240Y-90243000D01*
X126481560Y-90210911D01*
X126633521Y-90147967D01*
X126770281Y-90056587D01*
X126873000Y-89953868D01*
X126975719Y-90056587D01*
X127112479Y-90147967D01*
X127264440Y-90210911D01*
X127425760Y-90243000D01*
X127590240Y-90243000D01*
X127751560Y-90210911D01*
X127903521Y-90147967D01*
X128040281Y-90056587D01*
X128143000Y-89953868D01*
X128245719Y-90056587D01*
X128382479Y-90147967D01*
X128534440Y-90210911D01*
X128695760Y-90243000D01*
X128860240Y-90243000D01*
X129021560Y-90210911D01*
X129173521Y-90147967D01*
X129310281Y-90056587D01*
X129413000Y-89953868D01*
X129515719Y-90056587D01*
X129652479Y-90147967D01*
X129804440Y-90210911D01*
X129965760Y-90243000D01*
X130130240Y-90243000D01*
X130291560Y-90210911D01*
X130443521Y-90147967D01*
X130580281Y-90056587D01*
X130696587Y-89940281D01*
X130787967Y-89803521D01*
X130850911Y-89651560D01*
X130883000Y-89490240D01*
X130883000Y-89325760D01*
X130856605Y-89193066D01*
X130902494Y-89168537D01*
X130999185Y-89089185D01*
X131078537Y-88992494D01*
X131137502Y-88882180D01*
X131173812Y-88762482D01*
X131186072Y-88638000D01*
X131183000Y-88423750D01*
X131024250Y-88265000D01*
X130175000Y-88265000D01*
X130175000Y-88285000D01*
X129921000Y-88285000D01*
X129921000Y-88265000D01*
X129901000Y-88265000D01*
X129901000Y-88011000D01*
X129921000Y-88011000D01*
X129921000Y-87161750D01*
X130175000Y-87161750D01*
X130175000Y-88011000D01*
X131024250Y-88011000D01*
X131183000Y-87852250D01*
X131186072Y-87638000D01*
X131173812Y-87513518D01*
X131137502Y-87393820D01*
X131078537Y-87283506D01*
X130999185Y-87186815D01*
X130902494Y-87107463D01*
X130792180Y-87048498D01*
X130672482Y-87012188D01*
X130548000Y-86999928D01*
X130333750Y-87003000D01*
X130175000Y-87161750D01*
X129921000Y-87161750D01*
X129762250Y-87003000D01*
X129548000Y-86999928D01*
X129423518Y-87012188D01*
X129303820Y-87048498D01*
X129193506Y-87107463D01*
X129096815Y-87186815D01*
X129017463Y-87283506D01*
X128992934Y-87329395D01*
X128860240Y-87303000D01*
X128695760Y-87303000D01*
X128534440Y-87335089D01*
X128382479Y-87398033D01*
X128245719Y-87489413D01*
X128143000Y-87592132D01*
X128040281Y-87489413D01*
X127903521Y-87398033D01*
X127751560Y-87335089D01*
X127590240Y-87303000D01*
X127425760Y-87303000D01*
X127264440Y-87335089D01*
X127112479Y-87398033D01*
X126975719Y-87489413D01*
X126873000Y-87592132D01*
X126770281Y-87489413D01*
X126633521Y-87398033D01*
X126481560Y-87335089D01*
X126320240Y-87303000D01*
X126155760Y-87303000D01*
X125994440Y-87335089D01*
X125842479Y-87398033D01*
X125705719Y-87489413D01*
X125603000Y-87592132D01*
X125500281Y-87489413D01*
X125363521Y-87398033D01*
X125211560Y-87335089D01*
X125050240Y-87303000D01*
X124885760Y-87303000D01*
X124724440Y-87335089D01*
X124572479Y-87398033D01*
X124435719Y-87489413D01*
X124319413Y-87605719D01*
X124228033Y-87742479D01*
X124165089Y-87894440D01*
X124133000Y-88055760D01*
X121012170Y-88055760D01*
X120864488Y-87699227D01*
X120587063Y-87284032D01*
X120233968Y-86930937D01*
X119818773Y-86653512D01*
X119357432Y-86462418D01*
X118867676Y-86365000D01*
X118477666Y-86365000D01*
X118634472Y-86281186D01*
X118776844Y-86164344D01*
X118893686Y-86021972D01*
X118980507Y-85859540D01*
X119033971Y-85683292D01*
X119052024Y-85500000D01*
X119033971Y-85316708D01*
X118980507Y-85140460D01*
X118893686Y-84978028D01*
X118776844Y-84835656D01*
X118634472Y-84718814D01*
X118472040Y-84631993D01*
X118295792Y-84578529D01*
X118158432Y-84565000D01*
X117366568Y-84565000D01*
X117229208Y-84578529D01*
X117052960Y-84631993D01*
X116890528Y-84718814D01*
X116748156Y-84835656D01*
X116696337Y-84898797D01*
X116696849Y-84395599D01*
X119402500Y-84395599D01*
X119402500Y-84604401D01*
X119443235Y-84809191D01*
X119523140Y-85002098D01*
X119639144Y-85175711D01*
X119786789Y-85323356D01*
X119960402Y-85439360D01*
X120153309Y-85519265D01*
X120358099Y-85560000D01*
X120566901Y-85560000D01*
X120771691Y-85519265D01*
X120964598Y-85439360D01*
X121103663Y-85346440D01*
X121141652Y-85438153D01*
X121206028Y-85534500D01*
X121141652Y-85630847D01*
X121086246Y-85764609D01*
X121058000Y-85906609D01*
X121058000Y-86051391D01*
X121086246Y-86193391D01*
X121141652Y-86327153D01*
X121222088Y-86447535D01*
X121324465Y-86549912D01*
X121444847Y-86630348D01*
X121578609Y-86685754D01*
X121720609Y-86714000D01*
X121865391Y-86714000D01*
X122007391Y-86685754D01*
X122141153Y-86630348D01*
X122237500Y-86565972D01*
X122333847Y-86630348D01*
X122467609Y-86685754D01*
X122609609Y-86714000D01*
X122754391Y-86714000D01*
X122896391Y-86685754D01*
X123030153Y-86630348D01*
X123150535Y-86549912D01*
X123252912Y-86447535D01*
X123333348Y-86327153D01*
X123343608Y-86302382D01*
X123621000Y-86302382D01*
X123621000Y-86417618D01*
X123643481Y-86530638D01*
X123687579Y-86637102D01*
X123751600Y-86732916D01*
X123833084Y-86814400D01*
X123928898Y-86878421D01*
X124035362Y-86922519D01*
X124148382Y-86945000D01*
X124263618Y-86945000D01*
X124376638Y-86922519D01*
X124483102Y-86878421D01*
X124578916Y-86814400D01*
X124660400Y-86732916D01*
X124724421Y-86637102D01*
X124768519Y-86530638D01*
X124791000Y-86417618D01*
X124791000Y-86302382D01*
X124768519Y-86189362D01*
X124724421Y-86082898D01*
X124660400Y-85987084D01*
X124578916Y-85905600D01*
X124483102Y-85841579D01*
X124376638Y-85797481D01*
X124263618Y-85775000D01*
X124148382Y-85775000D01*
X124035362Y-85797481D01*
X123928898Y-85841579D01*
X123833084Y-85905600D01*
X123751600Y-85987084D01*
X123687579Y-86082898D01*
X123643481Y-86189362D01*
X123621000Y-86302382D01*
X123343608Y-86302382D01*
X123388754Y-86193391D01*
X123417000Y-86051391D01*
X123417000Y-85906609D01*
X123388754Y-85764609D01*
X123333348Y-85630847D01*
X123252912Y-85510465D01*
X123150535Y-85408088D01*
X123030153Y-85327652D01*
X122896391Y-85272246D01*
X122754391Y-85244000D01*
X122609609Y-85244000D01*
X122507736Y-85264264D01*
X122528000Y-85162391D01*
X122528000Y-85017609D01*
X122499754Y-84875609D01*
X122444348Y-84741847D01*
X122363912Y-84621465D01*
X122275664Y-84533217D01*
X122282473Y-84526408D01*
X122362909Y-84406026D01*
X122418315Y-84272264D01*
X122446561Y-84130264D01*
X122446561Y-83985482D01*
X122418315Y-83843482D01*
X122384723Y-83762382D01*
X123113000Y-83762382D01*
X123113000Y-83877618D01*
X123135481Y-83990638D01*
X123179579Y-84097102D01*
X123243600Y-84192916D01*
X123325084Y-84274400D01*
X123420898Y-84338421D01*
X123527362Y-84382519D01*
X123640382Y-84405000D01*
X123755618Y-84405000D01*
X123868638Y-84382519D01*
X123975102Y-84338421D01*
X124070916Y-84274400D01*
X124152400Y-84192916D01*
X124216421Y-84097102D01*
X124260519Y-83990638D01*
X124283000Y-83877618D01*
X124283000Y-83762382D01*
X124280062Y-83747609D01*
X125122000Y-83747609D01*
X125122000Y-83892391D01*
X125150246Y-84034391D01*
X125205652Y-84168153D01*
X125286088Y-84288535D01*
X125388465Y-84390912D01*
X125508847Y-84471348D01*
X125642609Y-84526754D01*
X125784609Y-84555000D01*
X125929391Y-84555000D01*
X126071391Y-84526754D01*
X126205153Y-84471348D01*
X126325535Y-84390912D01*
X126375065Y-84341382D01*
X134669978Y-84341382D01*
X134669978Y-84456618D01*
X134692459Y-84569638D01*
X134736557Y-84676102D01*
X134800578Y-84771916D01*
X134882062Y-84853400D01*
X134977876Y-84917421D01*
X135084340Y-84961519D01*
X135197360Y-84984000D01*
X135312596Y-84984000D01*
X135425616Y-84961519D01*
X135532080Y-84917421D01*
X135627894Y-84853400D01*
X135709378Y-84771916D01*
X135773399Y-84676102D01*
X135817497Y-84569638D01*
X135839978Y-84456618D01*
X135839978Y-84341382D01*
X135817497Y-84228362D01*
X135773399Y-84121898D01*
X135709378Y-84026084D01*
X135627894Y-83944600D01*
X135532080Y-83880579D01*
X135425616Y-83836481D01*
X135312596Y-83814000D01*
X135197360Y-83814000D01*
X135084340Y-83836481D01*
X134977876Y-83880579D01*
X134882062Y-83944600D01*
X134800578Y-84026084D01*
X134736557Y-84121898D01*
X134692459Y-84228362D01*
X134669978Y-84341382D01*
X126375065Y-84341382D01*
X126427912Y-84288535D01*
X126508348Y-84168153D01*
X126563754Y-84034391D01*
X126592000Y-83892391D01*
X126592000Y-83747609D01*
X126563754Y-83605609D01*
X126508348Y-83471847D01*
X126427912Y-83351465D01*
X126325535Y-83249088D01*
X126205153Y-83168652D01*
X126071391Y-83113246D01*
X125929391Y-83085000D01*
X125784609Y-83085000D01*
X125642609Y-83113246D01*
X125508847Y-83168652D01*
X125388465Y-83249088D01*
X125286088Y-83351465D01*
X125205652Y-83471847D01*
X125150246Y-83605609D01*
X125122000Y-83747609D01*
X124280062Y-83747609D01*
X124260519Y-83649362D01*
X124216421Y-83542898D01*
X124152400Y-83447084D01*
X124070916Y-83365600D01*
X123975102Y-83301579D01*
X123868638Y-83257481D01*
X123755618Y-83235000D01*
X123640382Y-83235000D01*
X123527362Y-83257481D01*
X123420898Y-83301579D01*
X123325084Y-83365600D01*
X123243600Y-83447084D01*
X123179579Y-83542898D01*
X123135481Y-83649362D01*
X123113000Y-83762382D01*
X122384723Y-83762382D01*
X122362909Y-83709720D01*
X122282473Y-83589338D01*
X122180096Y-83486961D01*
X122059714Y-83406525D01*
X121925952Y-83351119D01*
X121783952Y-83322873D01*
X121639170Y-83322873D01*
X121497170Y-83351119D01*
X121363408Y-83406525D01*
X121243026Y-83486961D01*
X121140649Y-83589338D01*
X121099567Y-83650823D01*
X120964598Y-83560640D01*
X120771691Y-83480735D01*
X120566901Y-83440000D01*
X120358099Y-83440000D01*
X120153309Y-83480735D01*
X119960402Y-83560640D01*
X119786789Y-83676644D01*
X119639144Y-83824289D01*
X119523140Y-83997902D01*
X119443235Y-84190809D01*
X119402500Y-84395599D01*
X116696849Y-84395599D01*
X116700342Y-80968382D01*
X122097000Y-80968382D01*
X122097000Y-81083618D01*
X122119481Y-81196638D01*
X122163579Y-81303102D01*
X122227600Y-81398916D01*
X122309084Y-81480400D01*
X122404898Y-81544421D01*
X122511362Y-81588519D01*
X122624382Y-81611000D01*
X122739618Y-81611000D01*
X122852638Y-81588519D01*
X122959102Y-81544421D01*
X123054916Y-81480400D01*
X123136400Y-81398916D01*
X123200421Y-81303102D01*
X123244519Y-81196638D01*
X123267000Y-81083618D01*
X123267000Y-80968382D01*
X123244519Y-80855362D01*
X123200421Y-80748898D01*
X123136400Y-80653084D01*
X123054916Y-80571600D01*
X122959102Y-80507579D01*
X122852638Y-80463481D01*
X122762790Y-80445609D01*
X123725000Y-80445609D01*
X123725000Y-80590391D01*
X123753246Y-80732391D01*
X123808652Y-80866153D01*
X123889088Y-80986535D01*
X123991465Y-81088912D01*
X124111847Y-81169348D01*
X124245609Y-81224754D01*
X124387609Y-81253000D01*
X124532391Y-81253000D01*
X124674391Y-81224754D01*
X124808153Y-81169348D01*
X124928535Y-81088912D01*
X125030912Y-80986535D01*
X125111348Y-80866153D01*
X125166754Y-80732391D01*
X125174007Y-80695924D01*
X127740740Y-80695924D01*
X127740740Y-80840706D01*
X127768986Y-80982706D01*
X127824392Y-81116468D01*
X127904828Y-81236850D01*
X128007205Y-81339227D01*
X128127587Y-81419663D01*
X128130576Y-81420901D01*
X128055465Y-81471088D01*
X127953088Y-81573465D01*
X127872652Y-81693847D01*
X127817246Y-81827609D01*
X127789000Y-81969609D01*
X127789000Y-82114391D01*
X127817246Y-82256391D01*
X127872652Y-82390153D01*
X127953088Y-82510535D01*
X128055465Y-82612912D01*
X128175847Y-82693348D01*
X128309609Y-82748754D01*
X128451609Y-82777000D01*
X128596391Y-82777000D01*
X128738391Y-82748754D01*
X128872153Y-82693348D01*
X128992535Y-82612912D01*
X129094912Y-82510535D01*
X129175348Y-82390153D01*
X129230754Y-82256391D01*
X129259000Y-82114391D01*
X129259000Y-81969609D01*
X129230754Y-81827609D01*
X129175348Y-81693847D01*
X129094912Y-81573465D01*
X128992535Y-81471088D01*
X128872153Y-81390652D01*
X128869164Y-81389414D01*
X128944275Y-81339227D01*
X129046652Y-81236850D01*
X129127088Y-81116468D01*
X129182494Y-80982706D01*
X129185343Y-80968382D01*
X137591000Y-80968382D01*
X137591000Y-81083618D01*
X137613481Y-81196638D01*
X137657579Y-81303102D01*
X137721600Y-81398916D01*
X137729684Y-81407000D01*
X137721600Y-81415084D01*
X137657579Y-81510898D01*
X137613481Y-81617362D01*
X137591000Y-81730382D01*
X137591000Y-81845618D01*
X137613481Y-81958638D01*
X137657579Y-82065102D01*
X137721600Y-82160916D01*
X137729684Y-82169000D01*
X137721600Y-82177084D01*
X137657579Y-82272898D01*
X137613481Y-82379362D01*
X137591000Y-82492382D01*
X137591000Y-82607618D01*
X137613481Y-82720638D01*
X137657579Y-82827102D01*
X137721600Y-82922916D01*
X137803084Y-83004400D01*
X137898898Y-83068421D01*
X138005362Y-83112519D01*
X138118382Y-83135000D01*
X138233618Y-83135000D01*
X138346638Y-83112519D01*
X138453102Y-83068421D01*
X138531760Y-83015863D01*
X141197000Y-83015863D01*
X141197000Y-83121249D01*
X141217559Y-83224610D01*
X141257889Y-83321974D01*
X141316438Y-83409599D01*
X141390957Y-83484118D01*
X141478582Y-83542667D01*
X141575946Y-83582997D01*
X141679307Y-83603556D01*
X141784693Y-83603556D01*
X141888054Y-83582997D01*
X141985418Y-83542667D01*
X142073043Y-83484118D01*
X142147562Y-83409599D01*
X142206111Y-83321974D01*
X142246441Y-83224610D01*
X142267000Y-83121249D01*
X142267000Y-83015863D01*
X142246441Y-82912502D01*
X142206111Y-82815138D01*
X142147562Y-82727513D01*
X142073043Y-82652994D01*
X141985418Y-82594445D01*
X141888054Y-82554115D01*
X141784693Y-82533556D01*
X141679307Y-82533556D01*
X141575946Y-82554115D01*
X141478582Y-82594445D01*
X141390957Y-82652994D01*
X141316438Y-82727513D01*
X141257889Y-82815138D01*
X141217559Y-82912502D01*
X141197000Y-83015863D01*
X138531760Y-83015863D01*
X138548916Y-83004400D01*
X138630400Y-82922916D01*
X138694421Y-82827102D01*
X138738519Y-82720638D01*
X138761000Y-82607618D01*
X138761000Y-82492382D01*
X138738519Y-82379362D01*
X138694421Y-82272898D01*
X138630400Y-82177084D01*
X138622316Y-82169000D01*
X138630400Y-82160916D01*
X138694421Y-82065102D01*
X138738519Y-81958638D01*
X138761000Y-81845618D01*
X138761000Y-81730382D01*
X138738519Y-81617362D01*
X138694421Y-81510898D01*
X138630400Y-81415084D01*
X138622316Y-81407000D01*
X138630400Y-81398916D01*
X138694421Y-81303102D01*
X138738519Y-81196638D01*
X138761000Y-81083618D01*
X138761000Y-80968382D01*
X138738519Y-80855362D01*
X138694421Y-80748898D01*
X138674649Y-80719307D01*
X145515000Y-80719307D01*
X145515000Y-80824693D01*
X145535559Y-80928054D01*
X145575889Y-81025418D01*
X145634438Y-81113043D01*
X145708957Y-81187562D01*
X145796582Y-81246111D01*
X145893946Y-81286441D01*
X145997307Y-81307000D01*
X146102693Y-81307000D01*
X146206054Y-81286441D01*
X146303418Y-81246111D01*
X146391043Y-81187562D01*
X146465562Y-81113043D01*
X146524111Y-81025418D01*
X146564441Y-80928054D01*
X146585000Y-80824693D01*
X146585000Y-80719307D01*
X146564441Y-80615946D01*
X146524111Y-80518582D01*
X146465562Y-80430957D01*
X146391043Y-80356438D01*
X146303418Y-80297889D01*
X146206054Y-80257559D01*
X146102693Y-80237000D01*
X145997307Y-80237000D01*
X145893946Y-80257559D01*
X145796582Y-80297889D01*
X145708957Y-80356438D01*
X145634438Y-80430957D01*
X145575889Y-80518582D01*
X145535559Y-80615946D01*
X145515000Y-80719307D01*
X138674649Y-80719307D01*
X138630400Y-80653084D01*
X138548916Y-80571600D01*
X138453102Y-80507579D01*
X138346638Y-80463481D01*
X138233618Y-80441000D01*
X138118382Y-80441000D01*
X138005362Y-80463481D01*
X137898898Y-80507579D01*
X137803084Y-80571600D01*
X137721600Y-80653084D01*
X137657579Y-80748898D01*
X137613481Y-80855362D01*
X137591000Y-80968382D01*
X129185343Y-80968382D01*
X129210740Y-80840706D01*
X129210740Y-80695924D01*
X129182494Y-80553924D01*
X129127088Y-80420162D01*
X129046652Y-80299780D01*
X128944275Y-80197403D01*
X128823893Y-80116967D01*
X128690131Y-80061561D01*
X128548131Y-80033315D01*
X128403349Y-80033315D01*
X128261349Y-80061561D01*
X128127587Y-80116967D01*
X128007205Y-80197403D01*
X127904828Y-80299780D01*
X127824392Y-80420162D01*
X127768986Y-80553924D01*
X127740740Y-80695924D01*
X125174007Y-80695924D01*
X125195000Y-80590391D01*
X125195000Y-80445609D01*
X125166754Y-80303609D01*
X125111348Y-80169847D01*
X125030912Y-80049465D01*
X124928535Y-79947088D01*
X124808153Y-79866652D01*
X124674391Y-79811246D01*
X124532391Y-79783000D01*
X124387609Y-79783000D01*
X124245609Y-79811246D01*
X124111847Y-79866652D01*
X123991465Y-79947088D01*
X123889088Y-80049465D01*
X123808652Y-80169847D01*
X123753246Y-80303609D01*
X123725000Y-80445609D01*
X122762790Y-80445609D01*
X122739618Y-80441000D01*
X122624382Y-80441000D01*
X122511362Y-80463481D01*
X122404898Y-80507579D01*
X122309084Y-80571600D01*
X122227600Y-80653084D01*
X122163579Y-80748898D01*
X122119481Y-80855362D01*
X122097000Y-80968382D01*
X116700342Y-80968382D01*
X116702239Y-79108394D01*
X116748156Y-79164344D01*
X116890528Y-79281186D01*
X117052960Y-79368007D01*
X117229208Y-79421471D01*
X117366568Y-79435000D01*
X118158432Y-79435000D01*
X118295792Y-79421471D01*
X118381080Y-79395599D01*
X119402500Y-79395599D01*
X119402500Y-79604401D01*
X119443235Y-79809191D01*
X119523140Y-80002098D01*
X119639144Y-80175711D01*
X119786789Y-80323356D01*
X119960402Y-80439360D01*
X120153309Y-80519265D01*
X120358099Y-80560000D01*
X120566901Y-80560000D01*
X120771691Y-80519265D01*
X120964598Y-80439360D01*
X121138211Y-80323356D01*
X121285856Y-80175711D01*
X121401860Y-80002098D01*
X121481765Y-79809191D01*
X121522500Y-79604401D01*
X121522500Y-79395599D01*
X121481765Y-79190809D01*
X121428983Y-79063382D01*
X142036000Y-79063382D01*
X142036000Y-79178618D01*
X142058481Y-79291638D01*
X142102579Y-79398102D01*
X142166600Y-79493916D01*
X142248084Y-79575400D01*
X142343898Y-79639421D01*
X142450362Y-79683519D01*
X142563382Y-79706000D01*
X142678618Y-79706000D01*
X142791638Y-79683519D01*
X142898102Y-79639421D01*
X142993916Y-79575400D01*
X143075400Y-79493916D01*
X143139421Y-79398102D01*
X143183519Y-79291638D01*
X143206000Y-79178618D01*
X143206000Y-79063382D01*
X143183519Y-78950362D01*
X143139421Y-78843898D01*
X143075400Y-78748084D01*
X142993916Y-78666600D01*
X142898102Y-78602579D01*
X142791638Y-78558481D01*
X142678618Y-78536000D01*
X142563382Y-78536000D01*
X142450362Y-78558481D01*
X142343898Y-78602579D01*
X142248084Y-78666600D01*
X142166600Y-78748084D01*
X142102579Y-78843898D01*
X142058481Y-78950362D01*
X142036000Y-79063382D01*
X121428983Y-79063382D01*
X121401860Y-78997902D01*
X121285856Y-78824289D01*
X121138211Y-78676644D01*
X120964598Y-78560640D01*
X120771691Y-78480735D01*
X120566901Y-78440000D01*
X120358099Y-78440000D01*
X120153309Y-78480735D01*
X119960402Y-78560640D01*
X119786789Y-78676644D01*
X119639144Y-78824289D01*
X119523140Y-78997902D01*
X119443235Y-79190809D01*
X119402500Y-79395599D01*
X118381080Y-79395599D01*
X118472040Y-79368007D01*
X118634472Y-79281186D01*
X118776844Y-79164344D01*
X118893686Y-79021972D01*
X118980507Y-78859540D01*
X119033971Y-78683292D01*
X119052024Y-78500000D01*
X119033971Y-78316708D01*
X118986316Y-78159609D01*
X130837000Y-78159609D01*
X130837000Y-78304391D01*
X130865246Y-78446391D01*
X130920652Y-78580153D01*
X131001088Y-78700535D01*
X131103465Y-78802912D01*
X131223847Y-78883348D01*
X131357609Y-78938754D01*
X131499609Y-78967000D01*
X131644391Y-78967000D01*
X131786391Y-78938754D01*
X131920153Y-78883348D01*
X132040535Y-78802912D01*
X132142912Y-78700535D01*
X132223348Y-78580153D01*
X132278754Y-78446391D01*
X132307000Y-78304391D01*
X132307000Y-78174382D01*
X138353000Y-78174382D01*
X138353000Y-78289618D01*
X138375481Y-78402638D01*
X138419579Y-78509102D01*
X138483600Y-78604916D01*
X138565084Y-78686400D01*
X138660898Y-78750421D01*
X138767362Y-78794519D01*
X138880382Y-78817000D01*
X138995618Y-78817000D01*
X139108638Y-78794519D01*
X139215102Y-78750421D01*
X139310916Y-78686400D01*
X139392400Y-78604916D01*
X139456421Y-78509102D01*
X139500519Y-78402638D01*
X139523000Y-78289618D01*
X139523000Y-78174382D01*
X139500519Y-78061362D01*
X139456421Y-77954898D01*
X139392400Y-77859084D01*
X139310916Y-77777600D01*
X139215102Y-77713579D01*
X139108638Y-77669481D01*
X138995618Y-77647000D01*
X138880382Y-77647000D01*
X138767362Y-77669481D01*
X138660898Y-77713579D01*
X138565084Y-77777600D01*
X138483600Y-77859084D01*
X138419579Y-77954898D01*
X138375481Y-78061362D01*
X138353000Y-78174382D01*
X132307000Y-78174382D01*
X132307000Y-78159609D01*
X132278754Y-78017609D01*
X132223348Y-77883847D01*
X132142912Y-77763465D01*
X132040535Y-77661088D01*
X131920153Y-77580652D01*
X131786391Y-77525246D01*
X131644391Y-77497000D01*
X131499609Y-77497000D01*
X131357609Y-77525246D01*
X131223847Y-77580652D01*
X131103465Y-77661088D01*
X131001088Y-77763465D01*
X130920652Y-77883847D01*
X130865246Y-78017609D01*
X130837000Y-78159609D01*
X118986316Y-78159609D01*
X118980507Y-78140460D01*
X118893686Y-77978028D01*
X118776844Y-77835656D01*
X118634699Y-77719000D01*
X118867676Y-77719000D01*
X119357432Y-77621582D01*
X119818773Y-77430488D01*
X120233968Y-77153063D01*
X120587063Y-76799968D01*
X120856731Y-76396382D01*
X137083000Y-76396382D01*
X137083000Y-76511618D01*
X137105481Y-76624638D01*
X137149579Y-76731102D01*
X137213600Y-76826916D01*
X137295084Y-76908400D01*
X137390898Y-76972421D01*
X137497362Y-77016519D01*
X137610382Y-77039000D01*
X137725618Y-77039000D01*
X137838638Y-77016519D01*
X137945102Y-76972421D01*
X138040916Y-76908400D01*
X138122400Y-76826916D01*
X138186421Y-76731102D01*
X138230519Y-76624638D01*
X138253000Y-76511618D01*
X138253000Y-76396382D01*
X139242000Y-76396382D01*
X139242000Y-76511618D01*
X139264481Y-76624638D01*
X139308579Y-76731102D01*
X139372600Y-76826916D01*
X139454084Y-76908400D01*
X139549898Y-76972421D01*
X139656362Y-77016519D01*
X139769382Y-77039000D01*
X139884618Y-77039000D01*
X139997638Y-77016519D01*
X140104102Y-76972421D01*
X140199916Y-76908400D01*
X140281400Y-76826916D01*
X140335000Y-76746698D01*
X140388600Y-76826916D01*
X140470084Y-76908400D01*
X140565898Y-76972421D01*
X140672362Y-77016519D01*
X140785382Y-77039000D01*
X140900618Y-77039000D01*
X141013638Y-77016519D01*
X141120102Y-76972421D01*
X141215916Y-76908400D01*
X141297400Y-76826916D01*
X141361421Y-76731102D01*
X141405519Y-76624638D01*
X141428000Y-76511618D01*
X141428000Y-76396382D01*
X141405519Y-76283362D01*
X141361421Y-76176898D01*
X141297400Y-76081084D01*
X141215916Y-75999600D01*
X141120102Y-75935579D01*
X141013638Y-75891481D01*
X140900618Y-75869000D01*
X140803992Y-75869000D01*
X140859348Y-75786153D01*
X140914754Y-75652391D01*
X140943000Y-75510391D01*
X140943000Y-75365609D01*
X140914754Y-75223609D01*
X140859348Y-75089847D01*
X140778912Y-74969465D01*
X140676535Y-74867088D01*
X140556153Y-74786652D01*
X140422391Y-74731246D01*
X140280391Y-74703000D01*
X140135609Y-74703000D01*
X139993609Y-74731246D01*
X139859847Y-74786652D01*
X139739465Y-74867088D01*
X139637088Y-74969465D01*
X139556652Y-75089847D01*
X139501246Y-75223609D01*
X139473000Y-75365609D01*
X139473000Y-75510391D01*
X139501246Y-75652391D01*
X139556652Y-75786153D01*
X139633388Y-75900997D01*
X139549898Y-75935579D01*
X139454084Y-75999600D01*
X139372600Y-76081084D01*
X139308579Y-76176898D01*
X139264481Y-76283362D01*
X139242000Y-76396382D01*
X138253000Y-76396382D01*
X138230519Y-76283362D01*
X138186421Y-76176898D01*
X138122400Y-76081084D01*
X138040916Y-75999600D01*
X137945102Y-75935579D01*
X137838638Y-75891481D01*
X137725618Y-75869000D01*
X137610382Y-75869000D01*
X137497362Y-75891481D01*
X137390898Y-75935579D01*
X137295084Y-75999600D01*
X137213600Y-76081084D01*
X137149579Y-76176898D01*
X137105481Y-76283362D01*
X137083000Y-76396382D01*
X120856731Y-76396382D01*
X120864488Y-76384773D01*
X121055582Y-75923432D01*
X121153000Y-75433676D01*
X121153000Y-75111609D01*
X128805000Y-75111609D01*
X128805000Y-75256391D01*
X128833246Y-75398391D01*
X128888652Y-75532153D01*
X128969088Y-75652535D01*
X129071465Y-75754912D01*
X129191847Y-75835348D01*
X129325609Y-75890754D01*
X129467609Y-75919000D01*
X129612391Y-75919000D01*
X129754391Y-75890754D01*
X129888153Y-75835348D01*
X130008535Y-75754912D01*
X130110912Y-75652535D01*
X130175000Y-75556620D01*
X130239088Y-75652535D01*
X130341465Y-75754912D01*
X130461847Y-75835348D01*
X130595609Y-75890754D01*
X130737609Y-75919000D01*
X130882391Y-75919000D01*
X131024391Y-75890754D01*
X131158153Y-75835348D01*
X131278535Y-75754912D01*
X131380912Y-75652535D01*
X131461348Y-75532153D01*
X131516754Y-75398391D01*
X131545000Y-75256391D01*
X131545000Y-75111609D01*
X131516754Y-74969609D01*
X131461348Y-74835847D01*
X131380912Y-74715465D01*
X131278535Y-74613088D01*
X131158153Y-74532652D01*
X131024391Y-74477246D01*
X130882391Y-74449000D01*
X130737609Y-74449000D01*
X130595609Y-74477246D01*
X130461847Y-74532652D01*
X130341465Y-74613088D01*
X130239088Y-74715465D01*
X130175000Y-74811380D01*
X130110912Y-74715465D01*
X130008535Y-74613088D01*
X129888153Y-74532652D01*
X129754391Y-74477246D01*
X129612391Y-74449000D01*
X129467609Y-74449000D01*
X129325609Y-74477246D01*
X129191847Y-74532652D01*
X129071465Y-74613088D01*
X128969088Y-74715465D01*
X128888652Y-74835847D01*
X128833246Y-74969609D01*
X128805000Y-75111609D01*
X121153000Y-75111609D01*
X121153000Y-74934324D01*
X121055582Y-74444568D01*
X120864488Y-73983227D01*
X120587063Y-73568032D01*
X120277031Y-73258000D01*
X142104969Y-73258000D01*
X141794937Y-73568032D01*
%TA.AperFunction,Conductor*%
D19*
G36*
X141794937Y-73568032D02*
G01*
X141517512Y-73983227D01*
X141326418Y-74444568D01*
X141229000Y-74934324D01*
X141229000Y-75433676D01*
X141326418Y-75923432D01*
X141517512Y-76384773D01*
X141794937Y-76799968D01*
X142148032Y-77153063D01*
X142563227Y-77430488D01*
X143024568Y-77621582D01*
X143514324Y-77719000D01*
X144013676Y-77719000D01*
X144278205Y-77666382D01*
X145338000Y-77666382D01*
X145338000Y-77781618D01*
X145360481Y-77894638D01*
X145404579Y-78001102D01*
X145468600Y-78096916D01*
X145550084Y-78178400D01*
X145645898Y-78242421D01*
X145752362Y-78286519D01*
X145865382Y-78309000D01*
X145980618Y-78309000D01*
X146093638Y-78286519D01*
X146200102Y-78242421D01*
X146295916Y-78178400D01*
X146377400Y-78096916D01*
X146441421Y-78001102D01*
X146485519Y-77894638D01*
X146508000Y-77781618D01*
X146508000Y-77666382D01*
X146485519Y-77553362D01*
X146441421Y-77446898D01*
X146377400Y-77351084D01*
X146295916Y-77269600D01*
X146200102Y-77205579D01*
X146093638Y-77161481D01*
X145980618Y-77139000D01*
X145865382Y-77139000D01*
X145752362Y-77161481D01*
X145645898Y-77205579D01*
X145550084Y-77269600D01*
X145468600Y-77351084D01*
X145404579Y-77446898D01*
X145360481Y-77553362D01*
X145338000Y-77666382D01*
X144278205Y-77666382D01*
X144503432Y-77621582D01*
X144964773Y-77430488D01*
X145379968Y-77153063D01*
X145733063Y-76799968D01*
X146010488Y-76384773D01*
X146201582Y-75923432D01*
X146299000Y-75433676D01*
X146299000Y-74934324D01*
X146201582Y-74444568D01*
X146010488Y-73983227D01*
X145733063Y-73568032D01*
X145423031Y-73258000D01*
X152273000Y-73258000D01*
X152273000Y-75399302D01*
X152219400Y-75319084D01*
X152137916Y-75237600D01*
X152042102Y-75173579D01*
X151935638Y-75129481D01*
X151822618Y-75107000D01*
X151707382Y-75107000D01*
X151594362Y-75129481D01*
X151487898Y-75173579D01*
X151392084Y-75237600D01*
X151320500Y-75309184D01*
X151248916Y-75237600D01*
X151153102Y-75173579D01*
X151046638Y-75129481D01*
X150933618Y-75107000D01*
X150818382Y-75107000D01*
X150705362Y-75129481D01*
X150598898Y-75173579D01*
X150503084Y-75237600D01*
X150421600Y-75319084D01*
X150368000Y-75399302D01*
X150314400Y-75319084D01*
X150232916Y-75237600D01*
X150137102Y-75173579D01*
X150030638Y-75129481D01*
X149917618Y-75107000D01*
X149802382Y-75107000D01*
X149689362Y-75129481D01*
X149582898Y-75173579D01*
X149487084Y-75237600D01*
X149405600Y-75319084D01*
X149341579Y-75414898D01*
X149297481Y-75521362D01*
X149275000Y-75634382D01*
X149275000Y-75749618D01*
X149297481Y-75862638D01*
X149341579Y-75969102D01*
X149405600Y-76064916D01*
X149487084Y-76146400D01*
X149582898Y-76210421D01*
X149689362Y-76254519D01*
X149802382Y-76277000D01*
X149917618Y-76277000D01*
X150030638Y-76254519D01*
X150137102Y-76210421D01*
X150232916Y-76146400D01*
X150314400Y-76064916D01*
X150368000Y-75984698D01*
X150421600Y-76064916D01*
X150503084Y-76146400D01*
X150598898Y-76210421D01*
X150705362Y-76254519D01*
X150818382Y-76277000D01*
X150933618Y-76277000D01*
X151046638Y-76254519D01*
X151153102Y-76210421D01*
X151248916Y-76146400D01*
X151320500Y-76074816D01*
X151392084Y-76146400D01*
X151487898Y-76210421D01*
X151594362Y-76254519D01*
X151707382Y-76277000D01*
X151822618Y-76277000D01*
X151935638Y-76254519D01*
X152042102Y-76210421D01*
X152137916Y-76146400D01*
X152219400Y-76064916D01*
X152273000Y-75984698D01*
X152273000Y-78466038D01*
X152189638Y-78431509D01*
X152076618Y-78409028D01*
X151961382Y-78409028D01*
X151848362Y-78431509D01*
X151741898Y-78475607D01*
X151646084Y-78539628D01*
X151564600Y-78621112D01*
X151500579Y-78716926D01*
X151456481Y-78823390D01*
X151434000Y-78936410D01*
X151434000Y-79051646D01*
X151456481Y-79164666D01*
X151500579Y-79271130D01*
X151511000Y-79286726D01*
X151511000Y-79629000D01*
X150241000Y-79629000D01*
X150216224Y-79631440D01*
X150192399Y-79638667D01*
X150170443Y-79650403D01*
X150151197Y-79666197D01*
X150135403Y-79685443D01*
X150123667Y-79707399D01*
X150116440Y-79731224D01*
X150114000Y-79756000D01*
X150114000Y-81915000D01*
X149098000Y-81915000D01*
X149073224Y-81917440D01*
X149049399Y-81924667D01*
X149027443Y-81936403D01*
X149008197Y-81952197D01*
X148992403Y-81971443D01*
X148980667Y-81993399D01*
X148973440Y-82017224D01*
X148971000Y-82042000D01*
X148971000Y-83680784D01*
X148896675Y-83666000D01*
X148791289Y-83666000D01*
X148687928Y-83686559D01*
X148590564Y-83726889D01*
X148502939Y-83785438D01*
X148428420Y-83859957D01*
X148369871Y-83947582D01*
X148329541Y-84044946D01*
X148308982Y-84148307D01*
X148308982Y-84253693D01*
X148329541Y-84357054D01*
X148369871Y-84454418D01*
X148428420Y-84542043D01*
X148468377Y-84582000D01*
X146939000Y-84582000D01*
X146914224Y-84584440D01*
X146890399Y-84591667D01*
X146868443Y-84603403D01*
X146849197Y-84619197D01*
X146833403Y-84638443D01*
X146821667Y-84660399D01*
X146814440Y-84684224D01*
X146812000Y-84709000D01*
X146812000Y-84897684D01*
X146803916Y-84889600D01*
X146708102Y-84825579D01*
X146601638Y-84781481D01*
X146488618Y-84759000D01*
X146373382Y-84759000D01*
X146260362Y-84781481D01*
X146153898Y-84825579D01*
X146058084Y-84889600D01*
X145976600Y-84971084D01*
X145912579Y-85066898D01*
X145868481Y-85173362D01*
X145846000Y-85286382D01*
X145846000Y-85401618D01*
X145868481Y-85514638D01*
X145912579Y-85621102D01*
X145976600Y-85716916D01*
X146058084Y-85798400D01*
X146153898Y-85862421D01*
X146260362Y-85906519D01*
X146373382Y-85929000D01*
X146488618Y-85929000D01*
X146601638Y-85906519D01*
X146708102Y-85862421D01*
X146803916Y-85798400D01*
X146812000Y-85790316D01*
X146812000Y-90830604D01*
X145417959Y-90831072D01*
X145733063Y-90515968D01*
X146010488Y-90100773D01*
X146201582Y-89639432D01*
X146299000Y-89149676D01*
X146299000Y-88650324D01*
X146201582Y-88160568D01*
X146010488Y-87699227D01*
X145733063Y-87284032D01*
X145379968Y-86930937D01*
X144964773Y-86653512D01*
X144503432Y-86462418D01*
X144013676Y-86365000D01*
X143514324Y-86365000D01*
X143024568Y-86462418D01*
X142563227Y-86653512D01*
X142148032Y-86930937D01*
X141794937Y-87284032D01*
X141517512Y-87699227D01*
X141326418Y-88160568D01*
X141229000Y-88650324D01*
X141229000Y-89149676D01*
X141326418Y-89639432D01*
X141517512Y-90100773D01*
X141794937Y-90515968D01*
X142111151Y-90832182D01*
X120263516Y-90839515D01*
X120587063Y-90515968D01*
X120864488Y-90100773D01*
X121055582Y-89639432D01*
X121153000Y-89149676D01*
X121153000Y-88650324D01*
X121055582Y-88160568D01*
X121012170Y-88055760D01*
X124133000Y-88055760D01*
X124133000Y-88220240D01*
X124165089Y-88381560D01*
X124228033Y-88533521D01*
X124319413Y-88670281D01*
X124422132Y-88773000D01*
X124319413Y-88875719D01*
X124228033Y-89012479D01*
X124165089Y-89164440D01*
X124133000Y-89325760D01*
X124133000Y-89490240D01*
X124165089Y-89651560D01*
X124228033Y-89803521D01*
X124319413Y-89940281D01*
X124435719Y-90056587D01*
X124572479Y-90147967D01*
X124724440Y-90210911D01*
X124885760Y-90243000D01*
X125050240Y-90243000D01*
X125211560Y-90210911D01*
X125363521Y-90147967D01*
X125500281Y-90056587D01*
X125603000Y-89953868D01*
X125705719Y-90056587D01*
X125842479Y-90147967D01*
X125994440Y-90210911D01*
X126155760Y-90243000D01*
X126320240Y-90243000D01*
X126481560Y-90210911D01*
X126633521Y-90147967D01*
X126770281Y-90056587D01*
X126873000Y-89953868D01*
X126975719Y-90056587D01*
X127112479Y-90147967D01*
X127264440Y-90210911D01*
X127425760Y-90243000D01*
X127590240Y-90243000D01*
X127751560Y-90210911D01*
X127903521Y-90147967D01*
X128040281Y-90056587D01*
X128143000Y-89953868D01*
X128245719Y-90056587D01*
X128382479Y-90147967D01*
X128534440Y-90210911D01*
X128695760Y-90243000D01*
X128860240Y-90243000D01*
X129021560Y-90210911D01*
X129173521Y-90147967D01*
X129310281Y-90056587D01*
X129413000Y-89953868D01*
X129515719Y-90056587D01*
X129652479Y-90147967D01*
X129804440Y-90210911D01*
X129965760Y-90243000D01*
X130130240Y-90243000D01*
X130291560Y-90210911D01*
X130443521Y-90147967D01*
X130580281Y-90056587D01*
X130696587Y-89940281D01*
X130787967Y-89803521D01*
X130850911Y-89651560D01*
X130883000Y-89490240D01*
X130883000Y-89325760D01*
X130856605Y-89193066D01*
X130902494Y-89168537D01*
X130999185Y-89089185D01*
X131078537Y-88992494D01*
X131137502Y-88882180D01*
X131173812Y-88762482D01*
X131186072Y-88638000D01*
X131183000Y-88423750D01*
X131024250Y-88265000D01*
X130175000Y-88265000D01*
X130175000Y-88285000D01*
X129921000Y-88285000D01*
X129921000Y-88265000D01*
X129901000Y-88265000D01*
X129901000Y-88011000D01*
X129921000Y-88011000D01*
X129921000Y-87161750D01*
X130175000Y-87161750D01*
X130175000Y-88011000D01*
X131024250Y-88011000D01*
X131183000Y-87852250D01*
X131186072Y-87638000D01*
X131173812Y-87513518D01*
X131137502Y-87393820D01*
X131078537Y-87283506D01*
X130999185Y-87186815D01*
X130902494Y-87107463D01*
X130792180Y-87048498D01*
X130672482Y-87012188D01*
X130548000Y-86999928D01*
X130333750Y-87003000D01*
X130175000Y-87161750D01*
X129921000Y-87161750D01*
X129762250Y-87003000D01*
X129548000Y-86999928D01*
X129423518Y-87012188D01*
X129303820Y-87048498D01*
X129193506Y-87107463D01*
X129096815Y-87186815D01*
X129017463Y-87283506D01*
X128992934Y-87329395D01*
X128860240Y-87303000D01*
X128695760Y-87303000D01*
X128534440Y-87335089D01*
X128382479Y-87398033D01*
X128245719Y-87489413D01*
X128143000Y-87592132D01*
X128040281Y-87489413D01*
X127903521Y-87398033D01*
X127751560Y-87335089D01*
X127590240Y-87303000D01*
X127425760Y-87303000D01*
X127264440Y-87335089D01*
X127112479Y-87398033D01*
X126975719Y-87489413D01*
X126873000Y-87592132D01*
X126770281Y-87489413D01*
X126633521Y-87398033D01*
X126481560Y-87335089D01*
X126320240Y-87303000D01*
X126155760Y-87303000D01*
X125994440Y-87335089D01*
X125842479Y-87398033D01*
X125705719Y-87489413D01*
X125603000Y-87592132D01*
X125500281Y-87489413D01*
X125363521Y-87398033D01*
X125211560Y-87335089D01*
X125050240Y-87303000D01*
X124885760Y-87303000D01*
X124724440Y-87335089D01*
X124572479Y-87398033D01*
X124435719Y-87489413D01*
X124319413Y-87605719D01*
X124228033Y-87742479D01*
X124165089Y-87894440D01*
X124133000Y-88055760D01*
X121012170Y-88055760D01*
X120864488Y-87699227D01*
X120587063Y-87284032D01*
X120233968Y-86930937D01*
X119818773Y-86653512D01*
X119357432Y-86462418D01*
X118867676Y-86365000D01*
X118477666Y-86365000D01*
X118634472Y-86281186D01*
X118776844Y-86164344D01*
X118893686Y-86021972D01*
X118980507Y-85859540D01*
X119033971Y-85683292D01*
X119052024Y-85500000D01*
X119033971Y-85316708D01*
X118980507Y-85140460D01*
X118893686Y-84978028D01*
X118776844Y-84835656D01*
X118634472Y-84718814D01*
X118472040Y-84631993D01*
X118295792Y-84578529D01*
X118158432Y-84565000D01*
X117366568Y-84565000D01*
X117229208Y-84578529D01*
X117052960Y-84631993D01*
X116890528Y-84718814D01*
X116748156Y-84835656D01*
X116696337Y-84898797D01*
X116696849Y-84395599D01*
X119402500Y-84395599D01*
X119402500Y-84604401D01*
X119443235Y-84809191D01*
X119523140Y-85002098D01*
X119639144Y-85175711D01*
X119786789Y-85323356D01*
X119960402Y-85439360D01*
X120153309Y-85519265D01*
X120358099Y-85560000D01*
X120566901Y-85560000D01*
X120771691Y-85519265D01*
X120964598Y-85439360D01*
X121103663Y-85346440D01*
X121141652Y-85438153D01*
X121206028Y-85534500D01*
X121141652Y-85630847D01*
X121086246Y-85764609D01*
X121058000Y-85906609D01*
X121058000Y-86051391D01*
X121086246Y-86193391D01*
X121141652Y-86327153D01*
X121222088Y-86447535D01*
X121324465Y-86549912D01*
X121444847Y-86630348D01*
X121578609Y-86685754D01*
X121720609Y-86714000D01*
X121865391Y-86714000D01*
X122007391Y-86685754D01*
X122141153Y-86630348D01*
X122237500Y-86565972D01*
X122333847Y-86630348D01*
X122467609Y-86685754D01*
X122609609Y-86714000D01*
X122754391Y-86714000D01*
X122896391Y-86685754D01*
X123030153Y-86630348D01*
X123150535Y-86549912D01*
X123252912Y-86447535D01*
X123333348Y-86327153D01*
X123343608Y-86302382D01*
X123621000Y-86302382D01*
X123621000Y-86417618D01*
X123643481Y-86530638D01*
X123687579Y-86637102D01*
X123751600Y-86732916D01*
X123833084Y-86814400D01*
X123928898Y-86878421D01*
X124035362Y-86922519D01*
X124148382Y-86945000D01*
X124263618Y-86945000D01*
X124376638Y-86922519D01*
X124483102Y-86878421D01*
X124578916Y-86814400D01*
X124660400Y-86732916D01*
X124724421Y-86637102D01*
X124768519Y-86530638D01*
X124791000Y-86417618D01*
X124791000Y-86302382D01*
X124768519Y-86189362D01*
X124724421Y-86082898D01*
X124660400Y-85987084D01*
X124578916Y-85905600D01*
X124483102Y-85841579D01*
X124376638Y-85797481D01*
X124263618Y-85775000D01*
X124148382Y-85775000D01*
X124035362Y-85797481D01*
X123928898Y-85841579D01*
X123833084Y-85905600D01*
X123751600Y-85987084D01*
X123687579Y-86082898D01*
X123643481Y-86189362D01*
X123621000Y-86302382D01*
X123343608Y-86302382D01*
X123388754Y-86193391D01*
X123417000Y-86051391D01*
X123417000Y-85906609D01*
X123388754Y-85764609D01*
X123333348Y-85630847D01*
X123252912Y-85510465D01*
X123150535Y-85408088D01*
X123030153Y-85327652D01*
X122896391Y-85272246D01*
X122754391Y-85244000D01*
X122609609Y-85244000D01*
X122507736Y-85264264D01*
X122528000Y-85162391D01*
X122528000Y-85017609D01*
X122499754Y-84875609D01*
X122444348Y-84741847D01*
X122363912Y-84621465D01*
X122275664Y-84533217D01*
X122282473Y-84526408D01*
X122362909Y-84406026D01*
X122418315Y-84272264D01*
X122446561Y-84130264D01*
X122446561Y-83985482D01*
X122418315Y-83843482D01*
X122384723Y-83762382D01*
X123113000Y-83762382D01*
X123113000Y-83877618D01*
X123135481Y-83990638D01*
X123179579Y-84097102D01*
X123243600Y-84192916D01*
X123325084Y-84274400D01*
X123420898Y-84338421D01*
X123527362Y-84382519D01*
X123640382Y-84405000D01*
X123755618Y-84405000D01*
X123868638Y-84382519D01*
X123975102Y-84338421D01*
X124070916Y-84274400D01*
X124152400Y-84192916D01*
X124216421Y-84097102D01*
X124260519Y-83990638D01*
X124283000Y-83877618D01*
X124283000Y-83762382D01*
X124280062Y-83747609D01*
X125122000Y-83747609D01*
X125122000Y-83892391D01*
X125150246Y-84034391D01*
X125205652Y-84168153D01*
X125286088Y-84288535D01*
X125388465Y-84390912D01*
X125508847Y-84471348D01*
X125642609Y-84526754D01*
X125784609Y-84555000D01*
X125929391Y-84555000D01*
X126071391Y-84526754D01*
X126205153Y-84471348D01*
X126325535Y-84390912D01*
X126375065Y-84341382D01*
X134669978Y-84341382D01*
X134669978Y-84456618D01*
X134692459Y-84569638D01*
X134736557Y-84676102D01*
X134800578Y-84771916D01*
X134882062Y-84853400D01*
X134977876Y-84917421D01*
X135084340Y-84961519D01*
X135197360Y-84984000D01*
X135312596Y-84984000D01*
X135425616Y-84961519D01*
X135532080Y-84917421D01*
X135627894Y-84853400D01*
X135709378Y-84771916D01*
X135773399Y-84676102D01*
X135817497Y-84569638D01*
X135839978Y-84456618D01*
X135839978Y-84341382D01*
X135817497Y-84228362D01*
X135773399Y-84121898D01*
X135709378Y-84026084D01*
X135627894Y-83944600D01*
X135532080Y-83880579D01*
X135425616Y-83836481D01*
X135312596Y-83814000D01*
X135197360Y-83814000D01*
X135084340Y-83836481D01*
X134977876Y-83880579D01*
X134882062Y-83944600D01*
X134800578Y-84026084D01*
X134736557Y-84121898D01*
X134692459Y-84228362D01*
X134669978Y-84341382D01*
X126375065Y-84341382D01*
X126427912Y-84288535D01*
X126508348Y-84168153D01*
X126563754Y-84034391D01*
X126592000Y-83892391D01*
X126592000Y-83747609D01*
X126563754Y-83605609D01*
X126508348Y-83471847D01*
X126427912Y-83351465D01*
X126325535Y-83249088D01*
X126205153Y-83168652D01*
X126071391Y-83113246D01*
X125929391Y-83085000D01*
X125784609Y-83085000D01*
X125642609Y-83113246D01*
X125508847Y-83168652D01*
X125388465Y-83249088D01*
X125286088Y-83351465D01*
X125205652Y-83471847D01*
X125150246Y-83605609D01*
X125122000Y-83747609D01*
X124280062Y-83747609D01*
X124260519Y-83649362D01*
X124216421Y-83542898D01*
X124152400Y-83447084D01*
X124070916Y-83365600D01*
X123975102Y-83301579D01*
X123868638Y-83257481D01*
X123755618Y-83235000D01*
X123640382Y-83235000D01*
X123527362Y-83257481D01*
X123420898Y-83301579D01*
X123325084Y-83365600D01*
X123243600Y-83447084D01*
X123179579Y-83542898D01*
X123135481Y-83649362D01*
X123113000Y-83762382D01*
X122384723Y-83762382D01*
X122362909Y-83709720D01*
X122282473Y-83589338D01*
X122180096Y-83486961D01*
X122059714Y-83406525D01*
X121925952Y-83351119D01*
X121783952Y-83322873D01*
X121639170Y-83322873D01*
X121497170Y-83351119D01*
X121363408Y-83406525D01*
X121243026Y-83486961D01*
X121140649Y-83589338D01*
X121099567Y-83650823D01*
X120964598Y-83560640D01*
X120771691Y-83480735D01*
X120566901Y-83440000D01*
X120358099Y-83440000D01*
X120153309Y-83480735D01*
X119960402Y-83560640D01*
X119786789Y-83676644D01*
X119639144Y-83824289D01*
X119523140Y-83997902D01*
X119443235Y-84190809D01*
X119402500Y-84395599D01*
X116696849Y-84395599D01*
X116700342Y-80968382D01*
X122097000Y-80968382D01*
X122097000Y-81083618D01*
X122119481Y-81196638D01*
X122163579Y-81303102D01*
X122227600Y-81398916D01*
X122309084Y-81480400D01*
X122404898Y-81544421D01*
X122511362Y-81588519D01*
X122624382Y-81611000D01*
X122739618Y-81611000D01*
X122852638Y-81588519D01*
X122959102Y-81544421D01*
X123054916Y-81480400D01*
X123136400Y-81398916D01*
X123200421Y-81303102D01*
X123244519Y-81196638D01*
X123267000Y-81083618D01*
X123267000Y-80968382D01*
X123244519Y-80855362D01*
X123200421Y-80748898D01*
X123136400Y-80653084D01*
X123054916Y-80571600D01*
X122959102Y-80507579D01*
X122852638Y-80463481D01*
X122762790Y-80445609D01*
X123725000Y-80445609D01*
X123725000Y-80590391D01*
X123753246Y-80732391D01*
X123808652Y-80866153D01*
X123889088Y-80986535D01*
X123991465Y-81088912D01*
X124111847Y-81169348D01*
X124245609Y-81224754D01*
X124387609Y-81253000D01*
X124532391Y-81253000D01*
X124674391Y-81224754D01*
X124808153Y-81169348D01*
X124928535Y-81088912D01*
X125030912Y-80986535D01*
X125111348Y-80866153D01*
X125166754Y-80732391D01*
X125174007Y-80695924D01*
X127740740Y-80695924D01*
X127740740Y-80840706D01*
X127768986Y-80982706D01*
X127824392Y-81116468D01*
X127904828Y-81236850D01*
X128007205Y-81339227D01*
X128127587Y-81419663D01*
X128130576Y-81420901D01*
X128055465Y-81471088D01*
X127953088Y-81573465D01*
X127872652Y-81693847D01*
X127817246Y-81827609D01*
X127789000Y-81969609D01*
X127789000Y-82114391D01*
X127817246Y-82256391D01*
X127872652Y-82390153D01*
X127953088Y-82510535D01*
X128055465Y-82612912D01*
X128175847Y-82693348D01*
X128309609Y-82748754D01*
X128451609Y-82777000D01*
X128596391Y-82777000D01*
X128738391Y-82748754D01*
X128872153Y-82693348D01*
X128992535Y-82612912D01*
X129094912Y-82510535D01*
X129175348Y-82390153D01*
X129230754Y-82256391D01*
X129259000Y-82114391D01*
X129259000Y-81969609D01*
X129230754Y-81827609D01*
X129175348Y-81693847D01*
X129094912Y-81573465D01*
X128992535Y-81471088D01*
X128872153Y-81390652D01*
X128869164Y-81389414D01*
X128944275Y-81339227D01*
X129046652Y-81236850D01*
X129127088Y-81116468D01*
X129182494Y-80982706D01*
X129185343Y-80968382D01*
X137591000Y-80968382D01*
X137591000Y-81083618D01*
X137613481Y-81196638D01*
X137657579Y-81303102D01*
X137721600Y-81398916D01*
X137729684Y-81407000D01*
X137721600Y-81415084D01*
X137657579Y-81510898D01*
X137613481Y-81617362D01*
X137591000Y-81730382D01*
X137591000Y-81845618D01*
X137613481Y-81958638D01*
X137657579Y-82065102D01*
X137721600Y-82160916D01*
X137729684Y-82169000D01*
X137721600Y-82177084D01*
X137657579Y-82272898D01*
X137613481Y-82379362D01*
X137591000Y-82492382D01*
X137591000Y-82607618D01*
X137613481Y-82720638D01*
X137657579Y-82827102D01*
X137721600Y-82922916D01*
X137803084Y-83004400D01*
X137898898Y-83068421D01*
X138005362Y-83112519D01*
X138118382Y-83135000D01*
X138233618Y-83135000D01*
X138346638Y-83112519D01*
X138453102Y-83068421D01*
X138531760Y-83015863D01*
X141197000Y-83015863D01*
X141197000Y-83121249D01*
X141217559Y-83224610D01*
X141257889Y-83321974D01*
X141316438Y-83409599D01*
X141390957Y-83484118D01*
X141478582Y-83542667D01*
X141575946Y-83582997D01*
X141679307Y-83603556D01*
X141784693Y-83603556D01*
X141888054Y-83582997D01*
X141985418Y-83542667D01*
X142073043Y-83484118D01*
X142147562Y-83409599D01*
X142206111Y-83321974D01*
X142246441Y-83224610D01*
X142267000Y-83121249D01*
X142267000Y-83015863D01*
X142246441Y-82912502D01*
X142206111Y-82815138D01*
X142147562Y-82727513D01*
X142073043Y-82652994D01*
X141985418Y-82594445D01*
X141888054Y-82554115D01*
X141784693Y-82533556D01*
X141679307Y-82533556D01*
X141575946Y-82554115D01*
X141478582Y-82594445D01*
X141390957Y-82652994D01*
X141316438Y-82727513D01*
X141257889Y-82815138D01*
X141217559Y-82912502D01*
X141197000Y-83015863D01*
X138531760Y-83015863D01*
X138548916Y-83004400D01*
X138630400Y-82922916D01*
X138694421Y-82827102D01*
X138738519Y-82720638D01*
X138761000Y-82607618D01*
X138761000Y-82492382D01*
X138738519Y-82379362D01*
X138694421Y-82272898D01*
X138630400Y-82177084D01*
X138622316Y-82169000D01*
X138630400Y-82160916D01*
X138694421Y-82065102D01*
X138738519Y-81958638D01*
X138761000Y-81845618D01*
X138761000Y-81730382D01*
X138738519Y-81617362D01*
X138694421Y-81510898D01*
X138630400Y-81415084D01*
X138622316Y-81407000D01*
X138630400Y-81398916D01*
X138694421Y-81303102D01*
X138738519Y-81196638D01*
X138761000Y-81083618D01*
X138761000Y-80968382D01*
X138738519Y-80855362D01*
X138694421Y-80748898D01*
X138674649Y-80719307D01*
X145515000Y-80719307D01*
X145515000Y-80824693D01*
X145535559Y-80928054D01*
X145575889Y-81025418D01*
X145634438Y-81113043D01*
X145708957Y-81187562D01*
X145796582Y-81246111D01*
X145893946Y-81286441D01*
X145997307Y-81307000D01*
X146102693Y-81307000D01*
X146206054Y-81286441D01*
X146303418Y-81246111D01*
X146391043Y-81187562D01*
X146465562Y-81113043D01*
X146524111Y-81025418D01*
X146564441Y-80928054D01*
X146585000Y-80824693D01*
X146585000Y-80719307D01*
X146564441Y-80615946D01*
X146524111Y-80518582D01*
X146465562Y-80430957D01*
X146391043Y-80356438D01*
X146303418Y-80297889D01*
X146206054Y-80257559D01*
X146102693Y-80237000D01*
X145997307Y-80237000D01*
X145893946Y-80257559D01*
X145796582Y-80297889D01*
X145708957Y-80356438D01*
X145634438Y-80430957D01*
X145575889Y-80518582D01*
X145535559Y-80615946D01*
X145515000Y-80719307D01*
X138674649Y-80719307D01*
X138630400Y-80653084D01*
X138548916Y-80571600D01*
X138453102Y-80507579D01*
X138346638Y-80463481D01*
X138233618Y-80441000D01*
X138118382Y-80441000D01*
X138005362Y-80463481D01*
X137898898Y-80507579D01*
X137803084Y-80571600D01*
X137721600Y-80653084D01*
X137657579Y-80748898D01*
X137613481Y-80855362D01*
X137591000Y-80968382D01*
X129185343Y-80968382D01*
X129210740Y-80840706D01*
X129210740Y-80695924D01*
X129182494Y-80553924D01*
X129127088Y-80420162D01*
X129046652Y-80299780D01*
X128944275Y-80197403D01*
X128823893Y-80116967D01*
X128690131Y-80061561D01*
X128548131Y-80033315D01*
X128403349Y-80033315D01*
X128261349Y-80061561D01*
X128127587Y-80116967D01*
X128007205Y-80197403D01*
X127904828Y-80299780D01*
X127824392Y-80420162D01*
X127768986Y-80553924D01*
X127740740Y-80695924D01*
X125174007Y-80695924D01*
X125195000Y-80590391D01*
X125195000Y-80445609D01*
X125166754Y-80303609D01*
X125111348Y-80169847D01*
X125030912Y-80049465D01*
X124928535Y-79947088D01*
X124808153Y-79866652D01*
X124674391Y-79811246D01*
X124532391Y-79783000D01*
X124387609Y-79783000D01*
X124245609Y-79811246D01*
X124111847Y-79866652D01*
X123991465Y-79947088D01*
X123889088Y-80049465D01*
X123808652Y-80169847D01*
X123753246Y-80303609D01*
X123725000Y-80445609D01*
X122762790Y-80445609D01*
X122739618Y-80441000D01*
X122624382Y-80441000D01*
X122511362Y-80463481D01*
X122404898Y-80507579D01*
X122309084Y-80571600D01*
X122227600Y-80653084D01*
X122163579Y-80748898D01*
X122119481Y-80855362D01*
X122097000Y-80968382D01*
X116700342Y-80968382D01*
X116702239Y-79108394D01*
X116748156Y-79164344D01*
X116890528Y-79281186D01*
X117052960Y-79368007D01*
X117229208Y-79421471D01*
X117366568Y-79435000D01*
X118158432Y-79435000D01*
X118295792Y-79421471D01*
X118381080Y-79395599D01*
X119402500Y-79395599D01*
X119402500Y-79604401D01*
X119443235Y-79809191D01*
X119523140Y-80002098D01*
X119639144Y-80175711D01*
X119786789Y-80323356D01*
X119960402Y-80439360D01*
X120153309Y-80519265D01*
X120358099Y-80560000D01*
X120566901Y-80560000D01*
X120771691Y-80519265D01*
X120964598Y-80439360D01*
X121138211Y-80323356D01*
X121285856Y-80175711D01*
X121401860Y-80002098D01*
X121481765Y-79809191D01*
X121522500Y-79604401D01*
X121522500Y-79395599D01*
X121481765Y-79190809D01*
X121428983Y-79063382D01*
X142036000Y-79063382D01*
X142036000Y-79178618D01*
X142058481Y-79291638D01*
X142102579Y-79398102D01*
X142166600Y-79493916D01*
X142248084Y-79575400D01*
X142343898Y-79639421D01*
X142450362Y-79683519D01*
X142563382Y-79706000D01*
X142678618Y-79706000D01*
X142791638Y-79683519D01*
X142898102Y-79639421D01*
X142993916Y-79575400D01*
X143075400Y-79493916D01*
X143139421Y-79398102D01*
X143183519Y-79291638D01*
X143206000Y-79178618D01*
X143206000Y-79063382D01*
X143183519Y-78950362D01*
X143139421Y-78843898D01*
X143075400Y-78748084D01*
X142993916Y-78666600D01*
X142898102Y-78602579D01*
X142791638Y-78558481D01*
X142678618Y-78536000D01*
X142563382Y-78536000D01*
X142450362Y-78558481D01*
X142343898Y-78602579D01*
X142248084Y-78666600D01*
X142166600Y-78748084D01*
X142102579Y-78843898D01*
X142058481Y-78950362D01*
X142036000Y-79063382D01*
X121428983Y-79063382D01*
X121401860Y-78997902D01*
X121285856Y-78824289D01*
X121138211Y-78676644D01*
X120964598Y-78560640D01*
X120771691Y-78480735D01*
X120566901Y-78440000D01*
X120358099Y-78440000D01*
X120153309Y-78480735D01*
X119960402Y-78560640D01*
X119786789Y-78676644D01*
X119639144Y-78824289D01*
X119523140Y-78997902D01*
X119443235Y-79190809D01*
X119402500Y-79395599D01*
X118381080Y-79395599D01*
X118472040Y-79368007D01*
X118634472Y-79281186D01*
X118776844Y-79164344D01*
X118893686Y-79021972D01*
X118980507Y-78859540D01*
X119033971Y-78683292D01*
X119052024Y-78500000D01*
X119033971Y-78316708D01*
X118986316Y-78159609D01*
X130837000Y-78159609D01*
X130837000Y-78304391D01*
X130865246Y-78446391D01*
X130920652Y-78580153D01*
X131001088Y-78700535D01*
X131103465Y-78802912D01*
X131223847Y-78883348D01*
X131357609Y-78938754D01*
X131499609Y-78967000D01*
X131644391Y-78967000D01*
X131786391Y-78938754D01*
X131920153Y-78883348D01*
X132040535Y-78802912D01*
X132142912Y-78700535D01*
X132223348Y-78580153D01*
X132278754Y-78446391D01*
X132307000Y-78304391D01*
X132307000Y-78174382D01*
X138353000Y-78174382D01*
X138353000Y-78289618D01*
X138375481Y-78402638D01*
X138419579Y-78509102D01*
X138483600Y-78604916D01*
X138565084Y-78686400D01*
X138660898Y-78750421D01*
X138767362Y-78794519D01*
X138880382Y-78817000D01*
X138995618Y-78817000D01*
X139108638Y-78794519D01*
X139215102Y-78750421D01*
X139310916Y-78686400D01*
X139392400Y-78604916D01*
X139456421Y-78509102D01*
X139500519Y-78402638D01*
X139523000Y-78289618D01*
X139523000Y-78174382D01*
X139500519Y-78061362D01*
X139456421Y-77954898D01*
X139392400Y-77859084D01*
X139310916Y-77777600D01*
X139215102Y-77713579D01*
X139108638Y-77669481D01*
X138995618Y-77647000D01*
X138880382Y-77647000D01*
X138767362Y-77669481D01*
X138660898Y-77713579D01*
X138565084Y-77777600D01*
X138483600Y-77859084D01*
X138419579Y-77954898D01*
X138375481Y-78061362D01*
X138353000Y-78174382D01*
X132307000Y-78174382D01*
X132307000Y-78159609D01*
X132278754Y-78017609D01*
X132223348Y-77883847D01*
X132142912Y-77763465D01*
X132040535Y-77661088D01*
X131920153Y-77580652D01*
X131786391Y-77525246D01*
X131644391Y-77497000D01*
X131499609Y-77497000D01*
X131357609Y-77525246D01*
X131223847Y-77580652D01*
X131103465Y-77661088D01*
X131001088Y-77763465D01*
X130920652Y-77883847D01*
X130865246Y-78017609D01*
X130837000Y-78159609D01*
X118986316Y-78159609D01*
X118980507Y-78140460D01*
X118893686Y-77978028D01*
X118776844Y-77835656D01*
X118634699Y-77719000D01*
X118867676Y-77719000D01*
X119357432Y-77621582D01*
X119818773Y-77430488D01*
X120233968Y-77153063D01*
X120587063Y-76799968D01*
X120856731Y-76396382D01*
X137083000Y-76396382D01*
X137083000Y-76511618D01*
X137105481Y-76624638D01*
X137149579Y-76731102D01*
X137213600Y-76826916D01*
X137295084Y-76908400D01*
X137390898Y-76972421D01*
X137497362Y-77016519D01*
X137610382Y-77039000D01*
X137725618Y-77039000D01*
X137838638Y-77016519D01*
X137945102Y-76972421D01*
X138040916Y-76908400D01*
X138122400Y-76826916D01*
X138186421Y-76731102D01*
X138230519Y-76624638D01*
X138253000Y-76511618D01*
X138253000Y-76396382D01*
X139242000Y-76396382D01*
X139242000Y-76511618D01*
X139264481Y-76624638D01*
X139308579Y-76731102D01*
X139372600Y-76826916D01*
X139454084Y-76908400D01*
X139549898Y-76972421D01*
X139656362Y-77016519D01*
X139769382Y-77039000D01*
X139884618Y-77039000D01*
X139997638Y-77016519D01*
X140104102Y-76972421D01*
X140199916Y-76908400D01*
X140281400Y-76826916D01*
X140335000Y-76746698D01*
X140388600Y-76826916D01*
X140470084Y-76908400D01*
X140565898Y-76972421D01*
X140672362Y-77016519D01*
X140785382Y-77039000D01*
X140900618Y-77039000D01*
X141013638Y-77016519D01*
X141120102Y-76972421D01*
X141215916Y-76908400D01*
X141297400Y-76826916D01*
X141361421Y-76731102D01*
X141405519Y-76624638D01*
X141428000Y-76511618D01*
X141428000Y-76396382D01*
X141405519Y-76283362D01*
X141361421Y-76176898D01*
X141297400Y-76081084D01*
X141215916Y-75999600D01*
X141120102Y-75935579D01*
X141013638Y-75891481D01*
X140900618Y-75869000D01*
X140803992Y-75869000D01*
X140859348Y-75786153D01*
X140914754Y-75652391D01*
X140943000Y-75510391D01*
X140943000Y-75365609D01*
X140914754Y-75223609D01*
X140859348Y-75089847D01*
X140778912Y-74969465D01*
X140676535Y-74867088D01*
X140556153Y-74786652D01*
X140422391Y-74731246D01*
X140280391Y-74703000D01*
X140135609Y-74703000D01*
X139993609Y-74731246D01*
X139859847Y-74786652D01*
X139739465Y-74867088D01*
X139637088Y-74969465D01*
X139556652Y-75089847D01*
X139501246Y-75223609D01*
X139473000Y-75365609D01*
X139473000Y-75510391D01*
X139501246Y-75652391D01*
X139556652Y-75786153D01*
X139633388Y-75900997D01*
X139549898Y-75935579D01*
X139454084Y-75999600D01*
X139372600Y-76081084D01*
X139308579Y-76176898D01*
X139264481Y-76283362D01*
X139242000Y-76396382D01*
X138253000Y-76396382D01*
X138230519Y-76283362D01*
X138186421Y-76176898D01*
X138122400Y-76081084D01*
X138040916Y-75999600D01*
X137945102Y-75935579D01*
X137838638Y-75891481D01*
X137725618Y-75869000D01*
X137610382Y-75869000D01*
X137497362Y-75891481D01*
X137390898Y-75935579D01*
X137295084Y-75999600D01*
X137213600Y-76081084D01*
X137149579Y-76176898D01*
X137105481Y-76283362D01*
X137083000Y-76396382D01*
X120856731Y-76396382D01*
X120864488Y-76384773D01*
X121055582Y-75923432D01*
X121153000Y-75433676D01*
X121153000Y-75111609D01*
X128805000Y-75111609D01*
X128805000Y-75256391D01*
X128833246Y-75398391D01*
X128888652Y-75532153D01*
X128969088Y-75652535D01*
X129071465Y-75754912D01*
X129191847Y-75835348D01*
X129325609Y-75890754D01*
X129467609Y-75919000D01*
X129612391Y-75919000D01*
X129754391Y-75890754D01*
X129888153Y-75835348D01*
X130008535Y-75754912D01*
X130110912Y-75652535D01*
X130175000Y-75556620D01*
X130239088Y-75652535D01*
X130341465Y-75754912D01*
X130461847Y-75835348D01*
X130595609Y-75890754D01*
X130737609Y-75919000D01*
X130882391Y-75919000D01*
X131024391Y-75890754D01*
X131158153Y-75835348D01*
X131278535Y-75754912D01*
X131380912Y-75652535D01*
X131461348Y-75532153D01*
X131516754Y-75398391D01*
X131545000Y-75256391D01*
X131545000Y-75111609D01*
X131516754Y-74969609D01*
X131461348Y-74835847D01*
X131380912Y-74715465D01*
X131278535Y-74613088D01*
X131158153Y-74532652D01*
X131024391Y-74477246D01*
X130882391Y-74449000D01*
X130737609Y-74449000D01*
X130595609Y-74477246D01*
X130461847Y-74532652D01*
X130341465Y-74613088D01*
X130239088Y-74715465D01*
X130175000Y-74811380D01*
X130110912Y-74715465D01*
X130008535Y-74613088D01*
X129888153Y-74532652D01*
X129754391Y-74477246D01*
X129612391Y-74449000D01*
X129467609Y-74449000D01*
X129325609Y-74477246D01*
X129191847Y-74532652D01*
X129071465Y-74613088D01*
X128969088Y-74715465D01*
X128888652Y-74835847D01*
X128833246Y-74969609D01*
X128805000Y-75111609D01*
X121153000Y-75111609D01*
X121153000Y-74934324D01*
X121055582Y-74444568D01*
X120864488Y-73983227D01*
X120587063Y-73568032D01*
X120277031Y-73258000D01*
X142104969Y-73258000D01*
X141794937Y-73568032D01*
G37*
%TD.AperFunction*%
M02*
