%TF.GenerationSoftware,KiCad,Pcbnew,(5.1.12)-1*%
%TF.CreationDate,2022-02-05T21:00:18-05:00*%
%TF.ProjectId,usb-rf,7573622d-7266-42e6-9b69-6361645f7063,rev?*%
%TF.SameCoordinates,Original*%
%TF.FileFunction,Soldermask,Top*%
%TF.FilePolarity,Negative*%
%FSLAX46Y46*%
G04 Gerber Fmt 4.6, Leading zero omitted, Abs format (unit mm)*
G04 Created by KiCad (PCBNEW (5.1.12)-1) date 2022-02-05 21:00:18*
%MOMM*%
%LPD*%
G01*
G04 APERTURE LIST*
%ADD10C,1.270000*%
%ADD11R,3.600000X1.270000*%
%ADD12R,4.200000X1.350000*%
%ADD13R,1.900000X1.200000*%
%ADD14O,1.900000X1.200000*%
%ADD15R,1.900000X1.500000*%
%ADD16C,1.450000*%
%ADD17R,1.350000X0.400000*%
%ADD18R,3.450000X3.450000*%
%ADD19O,1.000000X1.000000*%
%ADD20R,1.000000X1.000000*%
%ADD21C,4.400000*%
%ADD22R,1.400000X1.200000*%
%ADD23R,2.500000X2.500000*%
%ADD24R,1.060000X0.650000*%
%ADD25R,0.800000X0.900000*%
G04 APERTURE END LIST*
D10*
X153543000Y-79248000D02*
X153543000Y-73660000D01*
X153543000Y-73660000D02*
X159766000Y-73660000D01*
X162306000Y-76073000D02*
X162306000Y-77343000D01*
X162306000Y-86233000D02*
X162306000Y-87884000D01*
X153543000Y-90424000D02*
X159766000Y-90424000D01*
X153543000Y-90424000D02*
X153543000Y-84074000D01*
X162306000Y-87884000D02*
G75*
G02*
X159766000Y-90424000I-2540000J0D01*
G01*
X159766000Y-73660000D02*
G75*
G02*
X162306000Y-76200000I0J-2540000D01*
G01*
D11*
X161236000Y-81788000D03*
D12*
X161036000Y-78963000D03*
X161036000Y-84613000D03*
D13*
X117762500Y-79100000D03*
X117762500Y-84900000D03*
D14*
X117762500Y-85500000D03*
X117762500Y-78500000D03*
D15*
X117762500Y-81000000D03*
D16*
X120462500Y-84500000D03*
D17*
X120462500Y-82000000D03*
X120462500Y-82650000D03*
X120462500Y-83300000D03*
X120462500Y-80700000D03*
X120462500Y-81350000D03*
D16*
X120462500Y-79500000D03*
D15*
X117762500Y-83000000D03*
D18*
X138176000Y-81788000D03*
G36*
G01*
X140238500Y-79913000D02*
X140988500Y-79913000D01*
G75*
G02*
X141051000Y-79975500I0J-62500D01*
G01*
X141051000Y-80100500D01*
G75*
G02*
X140988500Y-80163000I-62500J0D01*
G01*
X140238500Y-80163000D01*
G75*
G02*
X140176000Y-80100500I0J62500D01*
G01*
X140176000Y-79975500D01*
G75*
G02*
X140238500Y-79913000I62500J0D01*
G01*
G37*
G36*
G01*
X140238500Y-80413000D02*
X140988500Y-80413000D01*
G75*
G02*
X141051000Y-80475500I0J-62500D01*
G01*
X141051000Y-80600500D01*
G75*
G02*
X140988500Y-80663000I-62500J0D01*
G01*
X140238500Y-80663000D01*
G75*
G02*
X140176000Y-80600500I0J62500D01*
G01*
X140176000Y-80475500D01*
G75*
G02*
X140238500Y-80413000I62500J0D01*
G01*
G37*
G36*
G01*
X140238500Y-80913000D02*
X140988500Y-80913000D01*
G75*
G02*
X141051000Y-80975500I0J-62500D01*
G01*
X141051000Y-81100500D01*
G75*
G02*
X140988500Y-81163000I-62500J0D01*
G01*
X140238500Y-81163000D01*
G75*
G02*
X140176000Y-81100500I0J62500D01*
G01*
X140176000Y-80975500D01*
G75*
G02*
X140238500Y-80913000I62500J0D01*
G01*
G37*
G36*
G01*
X140238500Y-81413000D02*
X140988500Y-81413000D01*
G75*
G02*
X141051000Y-81475500I0J-62500D01*
G01*
X141051000Y-81600500D01*
G75*
G02*
X140988500Y-81663000I-62500J0D01*
G01*
X140238500Y-81663000D01*
G75*
G02*
X140176000Y-81600500I0J62500D01*
G01*
X140176000Y-81475500D01*
G75*
G02*
X140238500Y-81413000I62500J0D01*
G01*
G37*
G36*
G01*
X140238500Y-81913000D02*
X140988500Y-81913000D01*
G75*
G02*
X141051000Y-81975500I0J-62500D01*
G01*
X141051000Y-82100500D01*
G75*
G02*
X140988500Y-82163000I-62500J0D01*
G01*
X140238500Y-82163000D01*
G75*
G02*
X140176000Y-82100500I0J62500D01*
G01*
X140176000Y-81975500D01*
G75*
G02*
X140238500Y-81913000I62500J0D01*
G01*
G37*
G36*
G01*
X140238500Y-82413000D02*
X140988500Y-82413000D01*
G75*
G02*
X141051000Y-82475500I0J-62500D01*
G01*
X141051000Y-82600500D01*
G75*
G02*
X140988500Y-82663000I-62500J0D01*
G01*
X140238500Y-82663000D01*
G75*
G02*
X140176000Y-82600500I0J62500D01*
G01*
X140176000Y-82475500D01*
G75*
G02*
X140238500Y-82413000I62500J0D01*
G01*
G37*
G36*
G01*
X140238500Y-82913000D02*
X140988500Y-82913000D01*
G75*
G02*
X141051000Y-82975500I0J-62500D01*
G01*
X141051000Y-83100500D01*
G75*
G02*
X140988500Y-83163000I-62500J0D01*
G01*
X140238500Y-83163000D01*
G75*
G02*
X140176000Y-83100500I0J62500D01*
G01*
X140176000Y-82975500D01*
G75*
G02*
X140238500Y-82913000I62500J0D01*
G01*
G37*
G36*
G01*
X140238500Y-83413000D02*
X140988500Y-83413000D01*
G75*
G02*
X141051000Y-83475500I0J-62500D01*
G01*
X141051000Y-83600500D01*
G75*
G02*
X140988500Y-83663000I-62500J0D01*
G01*
X140238500Y-83663000D01*
G75*
G02*
X140176000Y-83600500I0J62500D01*
G01*
X140176000Y-83475500D01*
G75*
G02*
X140238500Y-83413000I62500J0D01*
G01*
G37*
G36*
G01*
X139863500Y-83788000D02*
X139988500Y-83788000D01*
G75*
G02*
X140051000Y-83850500I0J-62500D01*
G01*
X140051000Y-84600500D01*
G75*
G02*
X139988500Y-84663000I-62500J0D01*
G01*
X139863500Y-84663000D01*
G75*
G02*
X139801000Y-84600500I0J62500D01*
G01*
X139801000Y-83850500D01*
G75*
G02*
X139863500Y-83788000I62500J0D01*
G01*
G37*
G36*
G01*
X139363500Y-83788000D02*
X139488500Y-83788000D01*
G75*
G02*
X139551000Y-83850500I0J-62500D01*
G01*
X139551000Y-84600500D01*
G75*
G02*
X139488500Y-84663000I-62500J0D01*
G01*
X139363500Y-84663000D01*
G75*
G02*
X139301000Y-84600500I0J62500D01*
G01*
X139301000Y-83850500D01*
G75*
G02*
X139363500Y-83788000I62500J0D01*
G01*
G37*
G36*
G01*
X138863500Y-83788000D02*
X138988500Y-83788000D01*
G75*
G02*
X139051000Y-83850500I0J-62500D01*
G01*
X139051000Y-84600500D01*
G75*
G02*
X138988500Y-84663000I-62500J0D01*
G01*
X138863500Y-84663000D01*
G75*
G02*
X138801000Y-84600500I0J62500D01*
G01*
X138801000Y-83850500D01*
G75*
G02*
X138863500Y-83788000I62500J0D01*
G01*
G37*
G36*
G01*
X138363500Y-83788000D02*
X138488500Y-83788000D01*
G75*
G02*
X138551000Y-83850500I0J-62500D01*
G01*
X138551000Y-84600500D01*
G75*
G02*
X138488500Y-84663000I-62500J0D01*
G01*
X138363500Y-84663000D01*
G75*
G02*
X138301000Y-84600500I0J62500D01*
G01*
X138301000Y-83850500D01*
G75*
G02*
X138363500Y-83788000I62500J0D01*
G01*
G37*
G36*
G01*
X137863500Y-83788000D02*
X137988500Y-83788000D01*
G75*
G02*
X138051000Y-83850500I0J-62500D01*
G01*
X138051000Y-84600500D01*
G75*
G02*
X137988500Y-84663000I-62500J0D01*
G01*
X137863500Y-84663000D01*
G75*
G02*
X137801000Y-84600500I0J62500D01*
G01*
X137801000Y-83850500D01*
G75*
G02*
X137863500Y-83788000I62500J0D01*
G01*
G37*
G36*
G01*
X137363500Y-83788000D02*
X137488500Y-83788000D01*
G75*
G02*
X137551000Y-83850500I0J-62500D01*
G01*
X137551000Y-84600500D01*
G75*
G02*
X137488500Y-84663000I-62500J0D01*
G01*
X137363500Y-84663000D01*
G75*
G02*
X137301000Y-84600500I0J62500D01*
G01*
X137301000Y-83850500D01*
G75*
G02*
X137363500Y-83788000I62500J0D01*
G01*
G37*
G36*
G01*
X136863500Y-83788000D02*
X136988500Y-83788000D01*
G75*
G02*
X137051000Y-83850500I0J-62500D01*
G01*
X137051000Y-84600500D01*
G75*
G02*
X136988500Y-84663000I-62500J0D01*
G01*
X136863500Y-84663000D01*
G75*
G02*
X136801000Y-84600500I0J62500D01*
G01*
X136801000Y-83850500D01*
G75*
G02*
X136863500Y-83788000I62500J0D01*
G01*
G37*
G36*
G01*
X136363500Y-83788000D02*
X136488500Y-83788000D01*
G75*
G02*
X136551000Y-83850500I0J-62500D01*
G01*
X136551000Y-84600500D01*
G75*
G02*
X136488500Y-84663000I-62500J0D01*
G01*
X136363500Y-84663000D01*
G75*
G02*
X136301000Y-84600500I0J62500D01*
G01*
X136301000Y-83850500D01*
G75*
G02*
X136363500Y-83788000I62500J0D01*
G01*
G37*
G36*
G01*
X135363500Y-83413000D02*
X136113500Y-83413000D01*
G75*
G02*
X136176000Y-83475500I0J-62500D01*
G01*
X136176000Y-83600500D01*
G75*
G02*
X136113500Y-83663000I-62500J0D01*
G01*
X135363500Y-83663000D01*
G75*
G02*
X135301000Y-83600500I0J62500D01*
G01*
X135301000Y-83475500D01*
G75*
G02*
X135363500Y-83413000I62500J0D01*
G01*
G37*
G36*
G01*
X135363500Y-82913000D02*
X136113500Y-82913000D01*
G75*
G02*
X136176000Y-82975500I0J-62500D01*
G01*
X136176000Y-83100500D01*
G75*
G02*
X136113500Y-83163000I-62500J0D01*
G01*
X135363500Y-83163000D01*
G75*
G02*
X135301000Y-83100500I0J62500D01*
G01*
X135301000Y-82975500D01*
G75*
G02*
X135363500Y-82913000I62500J0D01*
G01*
G37*
G36*
G01*
X135363500Y-82413000D02*
X136113500Y-82413000D01*
G75*
G02*
X136176000Y-82475500I0J-62500D01*
G01*
X136176000Y-82600500D01*
G75*
G02*
X136113500Y-82663000I-62500J0D01*
G01*
X135363500Y-82663000D01*
G75*
G02*
X135301000Y-82600500I0J62500D01*
G01*
X135301000Y-82475500D01*
G75*
G02*
X135363500Y-82413000I62500J0D01*
G01*
G37*
G36*
G01*
X135363500Y-81913000D02*
X136113500Y-81913000D01*
G75*
G02*
X136176000Y-81975500I0J-62500D01*
G01*
X136176000Y-82100500D01*
G75*
G02*
X136113500Y-82163000I-62500J0D01*
G01*
X135363500Y-82163000D01*
G75*
G02*
X135301000Y-82100500I0J62500D01*
G01*
X135301000Y-81975500D01*
G75*
G02*
X135363500Y-81913000I62500J0D01*
G01*
G37*
G36*
G01*
X135363500Y-81413000D02*
X136113500Y-81413000D01*
G75*
G02*
X136176000Y-81475500I0J-62500D01*
G01*
X136176000Y-81600500D01*
G75*
G02*
X136113500Y-81663000I-62500J0D01*
G01*
X135363500Y-81663000D01*
G75*
G02*
X135301000Y-81600500I0J62500D01*
G01*
X135301000Y-81475500D01*
G75*
G02*
X135363500Y-81413000I62500J0D01*
G01*
G37*
G36*
G01*
X135363500Y-80913000D02*
X136113500Y-80913000D01*
G75*
G02*
X136176000Y-80975500I0J-62500D01*
G01*
X136176000Y-81100500D01*
G75*
G02*
X136113500Y-81163000I-62500J0D01*
G01*
X135363500Y-81163000D01*
G75*
G02*
X135301000Y-81100500I0J62500D01*
G01*
X135301000Y-80975500D01*
G75*
G02*
X135363500Y-80913000I62500J0D01*
G01*
G37*
G36*
G01*
X135363500Y-80413000D02*
X136113500Y-80413000D01*
G75*
G02*
X136176000Y-80475500I0J-62500D01*
G01*
X136176000Y-80600500D01*
G75*
G02*
X136113500Y-80663000I-62500J0D01*
G01*
X135363500Y-80663000D01*
G75*
G02*
X135301000Y-80600500I0J62500D01*
G01*
X135301000Y-80475500D01*
G75*
G02*
X135363500Y-80413000I62500J0D01*
G01*
G37*
G36*
G01*
X135363500Y-79913000D02*
X136113500Y-79913000D01*
G75*
G02*
X136176000Y-79975500I0J-62500D01*
G01*
X136176000Y-80100500D01*
G75*
G02*
X136113500Y-80163000I-62500J0D01*
G01*
X135363500Y-80163000D01*
G75*
G02*
X135301000Y-80100500I0J62500D01*
G01*
X135301000Y-79975500D01*
G75*
G02*
X135363500Y-79913000I62500J0D01*
G01*
G37*
G36*
G01*
X136363500Y-78913000D02*
X136488500Y-78913000D01*
G75*
G02*
X136551000Y-78975500I0J-62500D01*
G01*
X136551000Y-79725500D01*
G75*
G02*
X136488500Y-79788000I-62500J0D01*
G01*
X136363500Y-79788000D01*
G75*
G02*
X136301000Y-79725500I0J62500D01*
G01*
X136301000Y-78975500D01*
G75*
G02*
X136363500Y-78913000I62500J0D01*
G01*
G37*
G36*
G01*
X136863500Y-78913000D02*
X136988500Y-78913000D01*
G75*
G02*
X137051000Y-78975500I0J-62500D01*
G01*
X137051000Y-79725500D01*
G75*
G02*
X136988500Y-79788000I-62500J0D01*
G01*
X136863500Y-79788000D01*
G75*
G02*
X136801000Y-79725500I0J62500D01*
G01*
X136801000Y-78975500D01*
G75*
G02*
X136863500Y-78913000I62500J0D01*
G01*
G37*
G36*
G01*
X137363500Y-78913000D02*
X137488500Y-78913000D01*
G75*
G02*
X137551000Y-78975500I0J-62500D01*
G01*
X137551000Y-79725500D01*
G75*
G02*
X137488500Y-79788000I-62500J0D01*
G01*
X137363500Y-79788000D01*
G75*
G02*
X137301000Y-79725500I0J62500D01*
G01*
X137301000Y-78975500D01*
G75*
G02*
X137363500Y-78913000I62500J0D01*
G01*
G37*
G36*
G01*
X137863500Y-78913000D02*
X137988500Y-78913000D01*
G75*
G02*
X138051000Y-78975500I0J-62500D01*
G01*
X138051000Y-79725500D01*
G75*
G02*
X137988500Y-79788000I-62500J0D01*
G01*
X137863500Y-79788000D01*
G75*
G02*
X137801000Y-79725500I0J62500D01*
G01*
X137801000Y-78975500D01*
G75*
G02*
X137863500Y-78913000I62500J0D01*
G01*
G37*
G36*
G01*
X138363500Y-78913000D02*
X138488500Y-78913000D01*
G75*
G02*
X138551000Y-78975500I0J-62500D01*
G01*
X138551000Y-79725500D01*
G75*
G02*
X138488500Y-79788000I-62500J0D01*
G01*
X138363500Y-79788000D01*
G75*
G02*
X138301000Y-79725500I0J62500D01*
G01*
X138301000Y-78975500D01*
G75*
G02*
X138363500Y-78913000I62500J0D01*
G01*
G37*
G36*
G01*
X138863500Y-78913000D02*
X138988500Y-78913000D01*
G75*
G02*
X139051000Y-78975500I0J-62500D01*
G01*
X139051000Y-79725500D01*
G75*
G02*
X138988500Y-79788000I-62500J0D01*
G01*
X138863500Y-79788000D01*
G75*
G02*
X138801000Y-79725500I0J62500D01*
G01*
X138801000Y-78975500D01*
G75*
G02*
X138863500Y-78913000I62500J0D01*
G01*
G37*
G36*
G01*
X139363500Y-78913000D02*
X139488500Y-78913000D01*
G75*
G02*
X139551000Y-78975500I0J-62500D01*
G01*
X139551000Y-79725500D01*
G75*
G02*
X139488500Y-79788000I-62500J0D01*
G01*
X139363500Y-79788000D01*
G75*
G02*
X139301000Y-79725500I0J62500D01*
G01*
X139301000Y-78975500D01*
G75*
G02*
X139363500Y-78913000I62500J0D01*
G01*
G37*
G36*
G01*
X139863500Y-78913000D02*
X139988500Y-78913000D01*
G75*
G02*
X140051000Y-78975500I0J-62500D01*
G01*
X140051000Y-79725500D01*
G75*
G02*
X139988500Y-79788000I-62500J0D01*
G01*
X139863500Y-79788000D01*
G75*
G02*
X139801000Y-79725500I0J62500D01*
G01*
X139801000Y-78975500D01*
G75*
G02*
X139863500Y-78913000I62500J0D01*
G01*
G37*
G36*
G01*
X125126000Y-73911750D02*
X125126000Y-74424250D01*
G75*
G02*
X124907250Y-74643000I-218750J0D01*
G01*
X124469750Y-74643000D01*
G75*
G02*
X124251000Y-74424250I0J218750D01*
G01*
X124251000Y-73911750D01*
G75*
G02*
X124469750Y-73693000I218750J0D01*
G01*
X124907250Y-73693000D01*
G75*
G02*
X125126000Y-73911750I0J-218750D01*
G01*
G37*
G36*
G01*
X126701000Y-73911750D02*
X126701000Y-74424250D01*
G75*
G02*
X126482250Y-74643000I-218750J0D01*
G01*
X126044750Y-74643000D01*
G75*
G02*
X125826000Y-74424250I0J218750D01*
G01*
X125826000Y-73911750D01*
G75*
G02*
X126044750Y-73693000I218750J0D01*
G01*
X126482250Y-73693000D01*
G75*
G02*
X126701000Y-73911750I0J-218750D01*
G01*
G37*
D19*
X124968000Y-89408000D03*
X124968000Y-88138000D03*
X126238000Y-89408000D03*
X126238000Y-88138000D03*
X127508000Y-89408000D03*
X127508000Y-88138000D03*
X128778000Y-89408000D03*
X128778000Y-88138000D03*
X130048000Y-89408000D03*
D20*
X130048000Y-88138000D03*
D21*
X143764000Y-75184000D03*
X143764000Y-88900000D03*
X118618000Y-88900000D03*
X118618000Y-75184000D03*
G36*
G01*
X128099000Y-73893000D02*
X128099000Y-74443000D01*
G75*
G02*
X127899000Y-74643000I-200000J0D01*
G01*
X127499000Y-74643000D01*
G75*
G02*
X127299000Y-74443000I0J200000D01*
G01*
X127299000Y-73893000D01*
G75*
G02*
X127499000Y-73693000I200000J0D01*
G01*
X127899000Y-73693000D01*
G75*
G02*
X128099000Y-73893000I0J-200000D01*
G01*
G37*
G36*
G01*
X129749000Y-73893000D02*
X129749000Y-74443000D01*
G75*
G02*
X129549000Y-74643000I-200000J0D01*
G01*
X129149000Y-74643000D01*
G75*
G02*
X128949000Y-74443000I0J200000D01*
G01*
X128949000Y-73893000D01*
G75*
G02*
X129149000Y-73693000I200000J0D01*
G01*
X129549000Y-73693000D01*
G75*
G02*
X129749000Y-73893000I0J-200000D01*
G01*
G37*
G36*
G01*
X124851000Y-77841000D02*
X124851000Y-76591000D01*
G75*
G02*
X125101000Y-76341000I250000J0D01*
G01*
X125851000Y-76341000D01*
G75*
G02*
X126101000Y-76591000I0J-250000D01*
G01*
X126101000Y-77841000D01*
G75*
G02*
X125851000Y-78091000I-250000J0D01*
G01*
X125101000Y-78091000D01*
G75*
G02*
X124851000Y-77841000I0J250000D01*
G01*
G37*
G36*
G01*
X122051000Y-77841000D02*
X122051000Y-76591000D01*
G75*
G02*
X122301000Y-76341000I250000J0D01*
G01*
X123051000Y-76341000D01*
G75*
G02*
X123301000Y-76591000I0J-250000D01*
G01*
X123301000Y-77841000D01*
G75*
G02*
X123051000Y-78091000I-250000J0D01*
G01*
X122301000Y-78091000D01*
G75*
G02*
X122051000Y-77841000I0J250000D01*
G01*
G37*
D22*
X150220000Y-87334000D03*
X148020000Y-87334000D03*
X148020000Y-85634000D03*
X150220000Y-85634000D03*
D23*
X149120000Y-80734000D03*
G36*
G01*
X147995000Y-79146500D02*
X147995000Y-78446500D01*
G75*
G02*
X148057500Y-78384000I62500J0D01*
G01*
X148182500Y-78384000D01*
G75*
G02*
X148245000Y-78446500I0J-62500D01*
G01*
X148245000Y-79146500D01*
G75*
G02*
X148182500Y-79209000I-62500J0D01*
G01*
X148057500Y-79209000D01*
G75*
G02*
X147995000Y-79146500I0J62500D01*
G01*
G37*
G36*
G01*
X148495000Y-79146500D02*
X148495000Y-78446500D01*
G75*
G02*
X148557500Y-78384000I62500J0D01*
G01*
X148682500Y-78384000D01*
G75*
G02*
X148745000Y-78446500I0J-62500D01*
G01*
X148745000Y-79146500D01*
G75*
G02*
X148682500Y-79209000I-62500J0D01*
G01*
X148557500Y-79209000D01*
G75*
G02*
X148495000Y-79146500I0J62500D01*
G01*
G37*
G36*
G01*
X148995000Y-79146500D02*
X148995000Y-78446500D01*
G75*
G02*
X149057500Y-78384000I62500J0D01*
G01*
X149182500Y-78384000D01*
G75*
G02*
X149245000Y-78446500I0J-62500D01*
G01*
X149245000Y-79146500D01*
G75*
G02*
X149182500Y-79209000I-62500J0D01*
G01*
X149057500Y-79209000D01*
G75*
G02*
X148995000Y-79146500I0J62500D01*
G01*
G37*
G36*
G01*
X149495000Y-79146500D02*
X149495000Y-78446500D01*
G75*
G02*
X149557500Y-78384000I62500J0D01*
G01*
X149682500Y-78384000D01*
G75*
G02*
X149745000Y-78446500I0J-62500D01*
G01*
X149745000Y-79146500D01*
G75*
G02*
X149682500Y-79209000I-62500J0D01*
G01*
X149557500Y-79209000D01*
G75*
G02*
X149495000Y-79146500I0J62500D01*
G01*
G37*
G36*
G01*
X149995000Y-79146500D02*
X149995000Y-78446500D01*
G75*
G02*
X150057500Y-78384000I62500J0D01*
G01*
X150182500Y-78384000D01*
G75*
G02*
X150245000Y-78446500I0J-62500D01*
G01*
X150245000Y-79146500D01*
G75*
G02*
X150182500Y-79209000I-62500J0D01*
G01*
X150057500Y-79209000D01*
G75*
G02*
X149995000Y-79146500I0J62500D01*
G01*
G37*
G36*
G01*
X150645000Y-79796500D02*
X150645000Y-79671500D01*
G75*
G02*
X150707500Y-79609000I62500J0D01*
G01*
X151407500Y-79609000D01*
G75*
G02*
X151470000Y-79671500I0J-62500D01*
G01*
X151470000Y-79796500D01*
G75*
G02*
X151407500Y-79859000I-62500J0D01*
G01*
X150707500Y-79859000D01*
G75*
G02*
X150645000Y-79796500I0J62500D01*
G01*
G37*
G36*
G01*
X150645000Y-80296500D02*
X150645000Y-80171500D01*
G75*
G02*
X150707500Y-80109000I62500J0D01*
G01*
X151407500Y-80109000D01*
G75*
G02*
X151470000Y-80171500I0J-62500D01*
G01*
X151470000Y-80296500D01*
G75*
G02*
X151407500Y-80359000I-62500J0D01*
G01*
X150707500Y-80359000D01*
G75*
G02*
X150645000Y-80296500I0J62500D01*
G01*
G37*
G36*
G01*
X150645000Y-80796500D02*
X150645000Y-80671500D01*
G75*
G02*
X150707500Y-80609000I62500J0D01*
G01*
X151407500Y-80609000D01*
G75*
G02*
X151470000Y-80671500I0J-62500D01*
G01*
X151470000Y-80796500D01*
G75*
G02*
X151407500Y-80859000I-62500J0D01*
G01*
X150707500Y-80859000D01*
G75*
G02*
X150645000Y-80796500I0J62500D01*
G01*
G37*
G36*
G01*
X150645000Y-81296500D02*
X150645000Y-81171500D01*
G75*
G02*
X150707500Y-81109000I62500J0D01*
G01*
X151407500Y-81109000D01*
G75*
G02*
X151470000Y-81171500I0J-62500D01*
G01*
X151470000Y-81296500D01*
G75*
G02*
X151407500Y-81359000I-62500J0D01*
G01*
X150707500Y-81359000D01*
G75*
G02*
X150645000Y-81296500I0J62500D01*
G01*
G37*
G36*
G01*
X150645000Y-81796500D02*
X150645000Y-81671500D01*
G75*
G02*
X150707500Y-81609000I62500J0D01*
G01*
X151407500Y-81609000D01*
G75*
G02*
X151470000Y-81671500I0J-62500D01*
G01*
X151470000Y-81796500D01*
G75*
G02*
X151407500Y-81859000I-62500J0D01*
G01*
X150707500Y-81859000D01*
G75*
G02*
X150645000Y-81796500I0J62500D01*
G01*
G37*
G36*
G01*
X149995000Y-83021500D02*
X149995000Y-82321500D01*
G75*
G02*
X150057500Y-82259000I62500J0D01*
G01*
X150182500Y-82259000D01*
G75*
G02*
X150245000Y-82321500I0J-62500D01*
G01*
X150245000Y-83021500D01*
G75*
G02*
X150182500Y-83084000I-62500J0D01*
G01*
X150057500Y-83084000D01*
G75*
G02*
X149995000Y-83021500I0J62500D01*
G01*
G37*
G36*
G01*
X149495000Y-83021500D02*
X149495000Y-82321500D01*
G75*
G02*
X149557500Y-82259000I62500J0D01*
G01*
X149682500Y-82259000D01*
G75*
G02*
X149745000Y-82321500I0J-62500D01*
G01*
X149745000Y-83021500D01*
G75*
G02*
X149682500Y-83084000I-62500J0D01*
G01*
X149557500Y-83084000D01*
G75*
G02*
X149495000Y-83021500I0J62500D01*
G01*
G37*
G36*
G01*
X148995000Y-83021500D02*
X148995000Y-82321500D01*
G75*
G02*
X149057500Y-82259000I62500J0D01*
G01*
X149182500Y-82259000D01*
G75*
G02*
X149245000Y-82321500I0J-62500D01*
G01*
X149245000Y-83021500D01*
G75*
G02*
X149182500Y-83084000I-62500J0D01*
G01*
X149057500Y-83084000D01*
G75*
G02*
X148995000Y-83021500I0J62500D01*
G01*
G37*
G36*
G01*
X148495000Y-83021500D02*
X148495000Y-82321500D01*
G75*
G02*
X148557500Y-82259000I62500J0D01*
G01*
X148682500Y-82259000D01*
G75*
G02*
X148745000Y-82321500I0J-62500D01*
G01*
X148745000Y-83021500D01*
G75*
G02*
X148682500Y-83084000I-62500J0D01*
G01*
X148557500Y-83084000D01*
G75*
G02*
X148495000Y-83021500I0J62500D01*
G01*
G37*
G36*
G01*
X147995000Y-83021500D02*
X147995000Y-82321500D01*
G75*
G02*
X148057500Y-82259000I62500J0D01*
G01*
X148182500Y-82259000D01*
G75*
G02*
X148245000Y-82321500I0J-62500D01*
G01*
X148245000Y-83021500D01*
G75*
G02*
X148182500Y-83084000I-62500J0D01*
G01*
X148057500Y-83084000D01*
G75*
G02*
X147995000Y-83021500I0J62500D01*
G01*
G37*
G36*
G01*
X146770000Y-81796500D02*
X146770000Y-81671500D01*
G75*
G02*
X146832500Y-81609000I62500J0D01*
G01*
X147532500Y-81609000D01*
G75*
G02*
X147595000Y-81671500I0J-62500D01*
G01*
X147595000Y-81796500D01*
G75*
G02*
X147532500Y-81859000I-62500J0D01*
G01*
X146832500Y-81859000D01*
G75*
G02*
X146770000Y-81796500I0J62500D01*
G01*
G37*
G36*
G01*
X146770000Y-81296500D02*
X146770000Y-81171500D01*
G75*
G02*
X146832500Y-81109000I62500J0D01*
G01*
X147532500Y-81109000D01*
G75*
G02*
X147595000Y-81171500I0J-62500D01*
G01*
X147595000Y-81296500D01*
G75*
G02*
X147532500Y-81359000I-62500J0D01*
G01*
X146832500Y-81359000D01*
G75*
G02*
X146770000Y-81296500I0J62500D01*
G01*
G37*
G36*
G01*
X146770000Y-80796500D02*
X146770000Y-80671500D01*
G75*
G02*
X146832500Y-80609000I62500J0D01*
G01*
X147532500Y-80609000D01*
G75*
G02*
X147595000Y-80671500I0J-62500D01*
G01*
X147595000Y-80796500D01*
G75*
G02*
X147532500Y-80859000I-62500J0D01*
G01*
X146832500Y-80859000D01*
G75*
G02*
X146770000Y-80796500I0J62500D01*
G01*
G37*
G36*
G01*
X146770000Y-80296500D02*
X146770000Y-80171500D01*
G75*
G02*
X146832500Y-80109000I62500J0D01*
G01*
X147532500Y-80109000D01*
G75*
G02*
X147595000Y-80171500I0J-62500D01*
G01*
X147595000Y-80296500D01*
G75*
G02*
X147532500Y-80359000I-62500J0D01*
G01*
X146832500Y-80359000D01*
G75*
G02*
X146770000Y-80296500I0J62500D01*
G01*
G37*
G36*
G01*
X146770000Y-79796500D02*
X146770000Y-79671500D01*
G75*
G02*
X146832500Y-79609000I62500J0D01*
G01*
X147532500Y-79609000D01*
G75*
G02*
X147595000Y-79671500I0J-62500D01*
G01*
X147595000Y-79796500D01*
G75*
G02*
X147532500Y-79859000I-62500J0D01*
G01*
X146832500Y-79859000D01*
G75*
G02*
X146770000Y-79796500I0J62500D01*
G01*
G37*
D24*
X124630000Y-83820000D03*
X124630000Y-84770000D03*
X124630000Y-82870000D03*
X126830000Y-82870000D03*
X126830000Y-83820000D03*
X126830000Y-84770000D03*
D25*
X128524000Y-79264000D03*
X129474000Y-81264000D03*
X127574000Y-81264000D03*
G36*
G01*
X150130000Y-84016000D02*
X150130000Y-84386000D01*
G75*
G02*
X149995000Y-84521000I-135000J0D01*
G01*
X149725000Y-84521000D01*
G75*
G02*
X149590000Y-84386000I0J135000D01*
G01*
X149590000Y-84016000D01*
G75*
G02*
X149725000Y-83881000I135000J0D01*
G01*
X149995000Y-83881000D01*
G75*
G02*
X150130000Y-84016000I0J-135000D01*
G01*
G37*
G36*
G01*
X151150000Y-84016000D02*
X151150000Y-84386000D01*
G75*
G02*
X151015000Y-84521000I-135000J0D01*
G01*
X150745000Y-84521000D01*
G75*
G02*
X150610000Y-84386000I0J135000D01*
G01*
X150610000Y-84016000D01*
G75*
G02*
X150745000Y-83881000I135000J0D01*
G01*
X151015000Y-83881000D01*
G75*
G02*
X151150000Y-84016000I0J-135000D01*
G01*
G37*
G36*
G01*
X151055000Y-76734000D02*
X150685000Y-76734000D01*
G75*
G02*
X150550000Y-76599000I0J135000D01*
G01*
X150550000Y-76329000D01*
G75*
G02*
X150685000Y-76194000I135000J0D01*
G01*
X151055000Y-76194000D01*
G75*
G02*
X151190000Y-76329000I0J-135000D01*
G01*
X151190000Y-76599000D01*
G75*
G02*
X151055000Y-76734000I-135000J0D01*
G01*
G37*
G36*
G01*
X151055000Y-77754000D02*
X150685000Y-77754000D01*
G75*
G02*
X150550000Y-77619000I0J135000D01*
G01*
X150550000Y-77349000D01*
G75*
G02*
X150685000Y-77214000I135000J0D01*
G01*
X151055000Y-77214000D01*
G75*
G02*
X151190000Y-77349000I0J-135000D01*
G01*
X151190000Y-77619000D01*
G75*
G02*
X151055000Y-77754000I-135000J0D01*
G01*
G37*
G36*
G01*
X139617000Y-74443000D02*
X139617000Y-73893000D01*
G75*
G02*
X139817000Y-73693000I200000J0D01*
G01*
X140217000Y-73693000D01*
G75*
G02*
X140417000Y-73893000I0J-200000D01*
G01*
X140417000Y-74443000D01*
G75*
G02*
X140217000Y-74643000I-200000J0D01*
G01*
X139817000Y-74643000D01*
G75*
G02*
X139617000Y-74443000I0J200000D01*
G01*
G37*
G36*
G01*
X137967000Y-74443000D02*
X137967000Y-73893000D01*
G75*
G02*
X138167000Y-73693000I200000J0D01*
G01*
X138567000Y-73693000D01*
G75*
G02*
X138767000Y-73893000I0J-200000D01*
G01*
X138767000Y-74443000D01*
G75*
G02*
X138567000Y-74643000I-200000J0D01*
G01*
X138167000Y-74643000D01*
G75*
G02*
X137967000Y-74443000I0J200000D01*
G01*
G37*
G36*
G01*
X131464000Y-73893000D02*
X131464000Y-74443000D01*
G75*
G02*
X131264000Y-74643000I-200000J0D01*
G01*
X130864000Y-74643000D01*
G75*
G02*
X130664000Y-74443000I0J200000D01*
G01*
X130664000Y-73893000D01*
G75*
G02*
X130864000Y-73693000I200000J0D01*
G01*
X131264000Y-73693000D01*
G75*
G02*
X131464000Y-73893000I0J-200000D01*
G01*
G37*
G36*
G01*
X133114000Y-73893000D02*
X133114000Y-74443000D01*
G75*
G02*
X132914000Y-74643000I-200000J0D01*
G01*
X132514000Y-74643000D01*
G75*
G02*
X132314000Y-74443000I0J200000D01*
G01*
X132314000Y-73893000D01*
G75*
G02*
X132514000Y-73693000I200000J0D01*
G01*
X132914000Y-73693000D01*
G75*
G02*
X133114000Y-73893000I0J-200000D01*
G01*
G37*
G36*
G01*
X142044000Y-79389000D02*
X141674000Y-79389000D01*
G75*
G02*
X141539000Y-79254000I0J135000D01*
G01*
X141539000Y-78984000D01*
G75*
G02*
X141674000Y-78849000I135000J0D01*
G01*
X142044000Y-78849000D01*
G75*
G02*
X142179000Y-78984000I0J-135000D01*
G01*
X142179000Y-79254000D01*
G75*
G02*
X142044000Y-79389000I-135000J0D01*
G01*
G37*
G36*
G01*
X142044000Y-80409000D02*
X141674000Y-80409000D01*
G75*
G02*
X141539000Y-80274000I0J135000D01*
G01*
X141539000Y-80004000D01*
G75*
G02*
X141674000Y-79869000I135000J0D01*
G01*
X142044000Y-79869000D01*
G75*
G02*
X142179000Y-80004000I0J-135000D01*
G01*
X142179000Y-80274000D01*
G75*
G02*
X142044000Y-80409000I-135000J0D01*
G01*
G37*
G36*
G01*
X153447500Y-82189000D02*
X153792500Y-82189000D01*
G75*
G02*
X153940000Y-82336500I0J-147500D01*
G01*
X153940000Y-82631500D01*
G75*
G02*
X153792500Y-82779000I-147500J0D01*
G01*
X153447500Y-82779000D01*
G75*
G02*
X153300000Y-82631500I0J147500D01*
G01*
X153300000Y-82336500D01*
G75*
G02*
X153447500Y-82189000I147500J0D01*
G01*
G37*
G36*
G01*
X153447500Y-81219000D02*
X153792500Y-81219000D01*
G75*
G02*
X153940000Y-81366500I0J-147500D01*
G01*
X153940000Y-81661500D01*
G75*
G02*
X153792500Y-81809000I-147500J0D01*
G01*
X153447500Y-81809000D01*
G75*
G02*
X153300000Y-81661500I0J147500D01*
G01*
X153300000Y-81366500D01*
G75*
G02*
X153447500Y-81219000I147500J0D01*
G01*
G37*
G36*
G01*
X152447500Y-81189000D02*
X152792500Y-81189000D01*
G75*
G02*
X152940000Y-81336500I0J-147500D01*
G01*
X152940000Y-81631500D01*
G75*
G02*
X152792500Y-81779000I-147500J0D01*
G01*
X152447500Y-81779000D01*
G75*
G02*
X152300000Y-81631500I0J147500D01*
G01*
X152300000Y-81336500D01*
G75*
G02*
X152447500Y-81189000I147500J0D01*
G01*
G37*
G36*
G01*
X152447500Y-80219000D02*
X152792500Y-80219000D01*
G75*
G02*
X152940000Y-80366500I0J-147500D01*
G01*
X152940000Y-80661500D01*
G75*
G02*
X152792500Y-80809000I-147500J0D01*
G01*
X152447500Y-80809000D01*
G75*
G02*
X152300000Y-80661500I0J147500D01*
G01*
X152300000Y-80366500D01*
G75*
G02*
X152447500Y-80219000I147500J0D01*
G01*
G37*
G36*
G01*
X154295000Y-80656500D02*
X154295000Y-80311500D01*
G75*
G02*
X154442500Y-80164000I147500J0D01*
G01*
X154737500Y-80164000D01*
G75*
G02*
X154885000Y-80311500I0J-147500D01*
G01*
X154885000Y-80656500D01*
G75*
G02*
X154737500Y-80804000I-147500J0D01*
G01*
X154442500Y-80804000D01*
G75*
G02*
X154295000Y-80656500I0J147500D01*
G01*
G37*
G36*
G01*
X153325000Y-80656500D02*
X153325000Y-80311500D01*
G75*
G02*
X153472500Y-80164000I147500J0D01*
G01*
X153767500Y-80164000D01*
G75*
G02*
X153915000Y-80311500I0J-147500D01*
G01*
X153915000Y-80656500D01*
G75*
G02*
X153767500Y-80804000I-147500J0D01*
G01*
X153472500Y-80804000D01*
G75*
G02*
X153325000Y-80656500I0J147500D01*
G01*
G37*
G36*
G01*
X127899000Y-76834750D02*
X127899000Y-77597250D01*
G75*
G02*
X127680250Y-77816000I-218750J0D01*
G01*
X127242750Y-77816000D01*
G75*
G02*
X127024000Y-77597250I0J218750D01*
G01*
X127024000Y-76834750D01*
G75*
G02*
X127242750Y-76616000I218750J0D01*
G01*
X127680250Y-76616000D01*
G75*
G02*
X127899000Y-76834750I0J-218750D01*
G01*
G37*
G36*
G01*
X130024000Y-76834750D02*
X130024000Y-77597250D01*
G75*
G02*
X129805250Y-77816000I-218750J0D01*
G01*
X129367750Y-77816000D01*
G75*
G02*
X129149000Y-77597250I0J218750D01*
G01*
X129149000Y-76834750D01*
G75*
G02*
X129367750Y-76616000I218750J0D01*
G01*
X129805250Y-76616000D01*
G75*
G02*
X130024000Y-76834750I0J-218750D01*
G01*
G37*
G36*
G01*
X136014750Y-77058000D02*
X136527250Y-77058000D01*
G75*
G02*
X136746000Y-77276750I0J-218750D01*
G01*
X136746000Y-77714250D01*
G75*
G02*
X136527250Y-77933000I-218750J0D01*
G01*
X136014750Y-77933000D01*
G75*
G02*
X135796000Y-77714250I0J218750D01*
G01*
X135796000Y-77276750D01*
G75*
G02*
X136014750Y-77058000I218750J0D01*
G01*
G37*
G36*
G01*
X136014750Y-75483000D02*
X136527250Y-75483000D01*
G75*
G02*
X136746000Y-75701750I0J-218750D01*
G01*
X136746000Y-76139250D01*
G75*
G02*
X136527250Y-76358000I-218750J0D01*
G01*
X136014750Y-76358000D01*
G75*
G02*
X135796000Y-76139250I0J218750D01*
G01*
X135796000Y-75701750D01*
G75*
G02*
X136014750Y-75483000I218750J0D01*
G01*
G37*
G36*
G01*
X134363750Y-77058000D02*
X134876250Y-77058000D01*
G75*
G02*
X135095000Y-77276750I0J-218750D01*
G01*
X135095000Y-77714250D01*
G75*
G02*
X134876250Y-77933000I-218750J0D01*
G01*
X134363750Y-77933000D01*
G75*
G02*
X134145000Y-77714250I0J218750D01*
G01*
X134145000Y-77276750D01*
G75*
G02*
X134363750Y-77058000I218750J0D01*
G01*
G37*
G36*
G01*
X134363750Y-75483000D02*
X134876250Y-75483000D01*
G75*
G02*
X135095000Y-75701750I0J-218750D01*
G01*
X135095000Y-76139250D01*
G75*
G02*
X134876250Y-76358000I-218750J0D01*
G01*
X134363750Y-76358000D01*
G75*
G02*
X134145000Y-76139250I0J218750D01*
G01*
X134145000Y-75701750D01*
G75*
G02*
X134363750Y-75483000I218750J0D01*
G01*
G37*
G36*
G01*
X146261000Y-86814000D02*
X146601000Y-86814000D01*
G75*
G02*
X146741000Y-86954000I0J-140000D01*
G01*
X146741000Y-87234000D01*
G75*
G02*
X146601000Y-87374000I-140000J0D01*
G01*
X146261000Y-87374000D01*
G75*
G02*
X146121000Y-87234000I0J140000D01*
G01*
X146121000Y-86954000D01*
G75*
G02*
X146261000Y-86814000I140000J0D01*
G01*
G37*
G36*
G01*
X146261000Y-85854000D02*
X146601000Y-85854000D01*
G75*
G02*
X146741000Y-85994000I0J-140000D01*
G01*
X146741000Y-86274000D01*
G75*
G02*
X146601000Y-86414000I-140000J0D01*
G01*
X146261000Y-86414000D01*
G75*
G02*
X146121000Y-86274000I0J140000D01*
G01*
X146121000Y-85994000D01*
G75*
G02*
X146261000Y-85854000I140000J0D01*
G01*
G37*
G36*
G01*
X151935000Y-86442000D02*
X151595000Y-86442000D01*
G75*
G02*
X151455000Y-86302000I0J140000D01*
G01*
X151455000Y-86022000D01*
G75*
G02*
X151595000Y-85882000I140000J0D01*
G01*
X151935000Y-85882000D01*
G75*
G02*
X152075000Y-86022000I0J-140000D01*
G01*
X152075000Y-86302000D01*
G75*
G02*
X151935000Y-86442000I-140000J0D01*
G01*
G37*
G36*
G01*
X151935000Y-87402000D02*
X151595000Y-87402000D01*
G75*
G02*
X151455000Y-87262000I0J140000D01*
G01*
X151455000Y-86982000D01*
G75*
G02*
X151595000Y-86842000I140000J0D01*
G01*
X151935000Y-86842000D01*
G75*
G02*
X152075000Y-86982000I0J-140000D01*
G01*
X152075000Y-87262000D01*
G75*
G02*
X151935000Y-87402000I-140000J0D01*
G01*
G37*
G36*
G01*
X154900000Y-82314000D02*
X154900000Y-82654000D01*
G75*
G02*
X154760000Y-82794000I-140000J0D01*
G01*
X154480000Y-82794000D01*
G75*
G02*
X154340000Y-82654000I0J140000D01*
G01*
X154340000Y-82314000D01*
G75*
G02*
X154480000Y-82174000I140000J0D01*
G01*
X154760000Y-82174000D01*
G75*
G02*
X154900000Y-82314000I0J-140000D01*
G01*
G37*
G36*
G01*
X155860000Y-82314000D02*
X155860000Y-82654000D01*
G75*
G02*
X155720000Y-82794000I-140000J0D01*
G01*
X155440000Y-82794000D01*
G75*
G02*
X155300000Y-82654000I0J140000D01*
G01*
X155300000Y-82314000D01*
G75*
G02*
X155440000Y-82174000I140000J0D01*
G01*
X155720000Y-82174000D01*
G75*
G02*
X155860000Y-82314000I0J-140000D01*
G01*
G37*
G36*
G01*
X154900000Y-83314000D02*
X154900000Y-83654000D01*
G75*
G02*
X154760000Y-83794000I-140000J0D01*
G01*
X154480000Y-83794000D01*
G75*
G02*
X154340000Y-83654000I0J140000D01*
G01*
X154340000Y-83314000D01*
G75*
G02*
X154480000Y-83174000I140000J0D01*
G01*
X154760000Y-83174000D01*
G75*
G02*
X154900000Y-83314000I0J-140000D01*
G01*
G37*
G36*
G01*
X155860000Y-83314000D02*
X155860000Y-83654000D01*
G75*
G02*
X155720000Y-83794000I-140000J0D01*
G01*
X155440000Y-83794000D01*
G75*
G02*
X155300000Y-83654000I0J140000D01*
G01*
X155300000Y-83314000D01*
G75*
G02*
X155440000Y-83174000I140000J0D01*
G01*
X155720000Y-83174000D01*
G75*
G02*
X155860000Y-83314000I0J-140000D01*
G01*
G37*
G36*
G01*
X157450000Y-80204000D02*
X157790000Y-80204000D01*
G75*
G02*
X157930000Y-80344000I0J-140000D01*
G01*
X157930000Y-80624000D01*
G75*
G02*
X157790000Y-80764000I-140000J0D01*
G01*
X157450000Y-80764000D01*
G75*
G02*
X157310000Y-80624000I0J140000D01*
G01*
X157310000Y-80344000D01*
G75*
G02*
X157450000Y-80204000I140000J0D01*
G01*
G37*
G36*
G01*
X157450000Y-79244000D02*
X157790000Y-79244000D01*
G75*
G02*
X157930000Y-79384000I0J-140000D01*
G01*
X157930000Y-79664000D01*
G75*
G02*
X157790000Y-79804000I-140000J0D01*
G01*
X157450000Y-79804000D01*
G75*
G02*
X157310000Y-79664000I0J140000D01*
G01*
X157310000Y-79384000D01*
G75*
G02*
X157450000Y-79244000I140000J0D01*
G01*
G37*
G36*
G01*
X155900000Y-80314000D02*
X155900000Y-80654000D01*
G75*
G02*
X155760000Y-80794000I-140000J0D01*
G01*
X155480000Y-80794000D01*
G75*
G02*
X155340000Y-80654000I0J140000D01*
G01*
X155340000Y-80314000D01*
G75*
G02*
X155480000Y-80174000I140000J0D01*
G01*
X155760000Y-80174000D01*
G75*
G02*
X155900000Y-80314000I0J-140000D01*
G01*
G37*
G36*
G01*
X156860000Y-80314000D02*
X156860000Y-80654000D01*
G75*
G02*
X156720000Y-80794000I-140000J0D01*
G01*
X156440000Y-80794000D01*
G75*
G02*
X156300000Y-80654000I0J140000D01*
G01*
X156300000Y-80314000D01*
G75*
G02*
X156440000Y-80174000I140000J0D01*
G01*
X156720000Y-80174000D01*
G75*
G02*
X156860000Y-80314000I0J-140000D01*
G01*
G37*
G36*
G01*
X147170000Y-77314000D02*
X147170000Y-77654000D01*
G75*
G02*
X147030000Y-77794000I-140000J0D01*
G01*
X146750000Y-77794000D01*
G75*
G02*
X146610000Y-77654000I0J140000D01*
G01*
X146610000Y-77314000D01*
G75*
G02*
X146750000Y-77174000I140000J0D01*
G01*
X147030000Y-77174000D01*
G75*
G02*
X147170000Y-77314000I0J-140000D01*
G01*
G37*
G36*
G01*
X148130000Y-77314000D02*
X148130000Y-77654000D01*
G75*
G02*
X147990000Y-77794000I-140000J0D01*
G01*
X147710000Y-77794000D01*
G75*
G02*
X147570000Y-77654000I0J140000D01*
G01*
X147570000Y-77314000D01*
G75*
G02*
X147710000Y-77174000I140000J0D01*
G01*
X147990000Y-77174000D01*
G75*
G02*
X148130000Y-77314000I0J-140000D01*
G01*
G37*
G36*
G01*
X147675000Y-84371000D02*
X147675000Y-84031000D01*
G75*
G02*
X147815000Y-83891000I140000J0D01*
G01*
X148095000Y-83891000D01*
G75*
G02*
X148235000Y-84031000I0J-140000D01*
G01*
X148235000Y-84371000D01*
G75*
G02*
X148095000Y-84511000I-140000J0D01*
G01*
X147815000Y-84511000D01*
G75*
G02*
X147675000Y-84371000I0J140000D01*
G01*
G37*
G36*
G01*
X146715000Y-84371000D02*
X146715000Y-84031000D01*
G75*
G02*
X146855000Y-83891000I140000J0D01*
G01*
X147135000Y-83891000D01*
G75*
G02*
X147275000Y-84031000I0J-140000D01*
G01*
X147275000Y-84371000D01*
G75*
G02*
X147135000Y-84511000I-140000J0D01*
G01*
X146855000Y-84511000D01*
G75*
G02*
X146715000Y-84371000I0J140000D01*
G01*
G37*
G36*
G01*
X152040000Y-76804000D02*
X151700000Y-76804000D01*
G75*
G02*
X151560000Y-76664000I0J140000D01*
G01*
X151560000Y-76384000D01*
G75*
G02*
X151700000Y-76244000I140000J0D01*
G01*
X152040000Y-76244000D01*
G75*
G02*
X152180000Y-76384000I0J-140000D01*
G01*
X152180000Y-76664000D01*
G75*
G02*
X152040000Y-76804000I-140000J0D01*
G01*
G37*
G36*
G01*
X152040000Y-77764000D02*
X151700000Y-77764000D01*
G75*
G02*
X151560000Y-77624000I0J140000D01*
G01*
X151560000Y-77344000D01*
G75*
G02*
X151700000Y-77204000I140000J0D01*
G01*
X152040000Y-77204000D01*
G75*
G02*
X152180000Y-77344000I0J-140000D01*
G01*
X152180000Y-77624000D01*
G75*
G02*
X152040000Y-77764000I-140000J0D01*
G01*
G37*
G36*
G01*
X149570000Y-76654000D02*
X149570000Y-76314000D01*
G75*
G02*
X149710000Y-76174000I140000J0D01*
G01*
X149990000Y-76174000D01*
G75*
G02*
X150130000Y-76314000I0J-140000D01*
G01*
X150130000Y-76654000D01*
G75*
G02*
X149990000Y-76794000I-140000J0D01*
G01*
X149710000Y-76794000D01*
G75*
G02*
X149570000Y-76654000I0J140000D01*
G01*
G37*
G36*
G01*
X148610000Y-76654000D02*
X148610000Y-76314000D01*
G75*
G02*
X148750000Y-76174000I140000J0D01*
G01*
X149030000Y-76174000D01*
G75*
G02*
X149170000Y-76314000I0J-140000D01*
G01*
X149170000Y-76654000D01*
G75*
G02*
X149030000Y-76794000I-140000J0D01*
G01*
X148750000Y-76794000D01*
G75*
G02*
X148610000Y-76654000I0J140000D01*
G01*
G37*
G36*
G01*
X149570000Y-77654000D02*
X149570000Y-77314000D01*
G75*
G02*
X149710000Y-77174000I140000J0D01*
G01*
X149990000Y-77174000D01*
G75*
G02*
X150130000Y-77314000I0J-140000D01*
G01*
X150130000Y-77654000D01*
G75*
G02*
X149990000Y-77794000I-140000J0D01*
G01*
X149710000Y-77794000D01*
G75*
G02*
X149570000Y-77654000I0J140000D01*
G01*
G37*
G36*
G01*
X148610000Y-77654000D02*
X148610000Y-77314000D01*
G75*
G02*
X148750000Y-77174000I140000J0D01*
G01*
X149030000Y-77174000D01*
G75*
G02*
X149170000Y-77314000I0J-140000D01*
G01*
X149170000Y-77654000D01*
G75*
G02*
X149030000Y-77794000I-140000J0D01*
G01*
X148750000Y-77794000D01*
G75*
G02*
X148610000Y-77654000I0J140000D01*
G01*
G37*
G36*
G01*
X135718000Y-85301000D02*
X135718000Y-85641000D01*
G75*
G02*
X135578000Y-85781000I-140000J0D01*
G01*
X135298000Y-85781000D01*
G75*
G02*
X135158000Y-85641000I0J140000D01*
G01*
X135158000Y-85301000D01*
G75*
G02*
X135298000Y-85161000I140000J0D01*
G01*
X135578000Y-85161000D01*
G75*
G02*
X135718000Y-85301000I0J-140000D01*
G01*
G37*
G36*
G01*
X136678000Y-85301000D02*
X136678000Y-85641000D01*
G75*
G02*
X136538000Y-85781000I-140000J0D01*
G01*
X136258000Y-85781000D01*
G75*
G02*
X136118000Y-85641000I0J140000D01*
G01*
X136118000Y-85301000D01*
G75*
G02*
X136258000Y-85161000I140000J0D01*
G01*
X136538000Y-85161000D01*
G75*
G02*
X136678000Y-85301000I0J-140000D01*
G01*
G37*
G36*
G01*
X137965000Y-77524000D02*
X137625000Y-77524000D01*
G75*
G02*
X137485000Y-77384000I0J140000D01*
G01*
X137485000Y-77104000D01*
G75*
G02*
X137625000Y-76964000I140000J0D01*
G01*
X137965000Y-76964000D01*
G75*
G02*
X138105000Y-77104000I0J-140000D01*
G01*
X138105000Y-77384000D01*
G75*
G02*
X137965000Y-77524000I-140000J0D01*
G01*
G37*
G36*
G01*
X137965000Y-78484000D02*
X137625000Y-78484000D01*
G75*
G02*
X137485000Y-78344000I0J140000D01*
G01*
X137485000Y-78064000D01*
G75*
G02*
X137625000Y-77924000I140000J0D01*
G01*
X137965000Y-77924000D01*
G75*
G02*
X138105000Y-78064000I0J-140000D01*
G01*
X138105000Y-78344000D01*
G75*
G02*
X137965000Y-78484000I-140000J0D01*
G01*
G37*
G36*
G01*
X139997000Y-77524000D02*
X139657000Y-77524000D01*
G75*
G02*
X139517000Y-77384000I0J140000D01*
G01*
X139517000Y-77104000D01*
G75*
G02*
X139657000Y-76964000I140000J0D01*
G01*
X139997000Y-76964000D01*
G75*
G02*
X140137000Y-77104000I0J-140000D01*
G01*
X140137000Y-77384000D01*
G75*
G02*
X139997000Y-77524000I-140000J0D01*
G01*
G37*
G36*
G01*
X139997000Y-78484000D02*
X139657000Y-78484000D01*
G75*
G02*
X139517000Y-78344000I0J140000D01*
G01*
X139517000Y-78064000D01*
G75*
G02*
X139657000Y-77924000I140000J0D01*
G01*
X139997000Y-77924000D01*
G75*
G02*
X140137000Y-78064000I0J-140000D01*
G01*
X140137000Y-78344000D01*
G75*
G02*
X139997000Y-78484000I-140000J0D01*
G01*
G37*
G36*
G01*
X141013000Y-77524000D02*
X140673000Y-77524000D01*
G75*
G02*
X140533000Y-77384000I0J140000D01*
G01*
X140533000Y-77104000D01*
G75*
G02*
X140673000Y-76964000I140000J0D01*
G01*
X141013000Y-76964000D01*
G75*
G02*
X141153000Y-77104000I0J-140000D01*
G01*
X141153000Y-77384000D01*
G75*
G02*
X141013000Y-77524000I-140000J0D01*
G01*
G37*
G36*
G01*
X141013000Y-78484000D02*
X140673000Y-78484000D01*
G75*
G02*
X140533000Y-78344000I0J140000D01*
G01*
X140533000Y-78064000D01*
G75*
G02*
X140673000Y-77924000I140000J0D01*
G01*
X141013000Y-77924000D01*
G75*
G02*
X141153000Y-78064000I0J-140000D01*
G01*
X141153000Y-78344000D01*
G75*
G02*
X141013000Y-78484000I-140000J0D01*
G01*
G37*
G36*
G01*
X123106000Y-87430000D02*
X122766000Y-87430000D01*
G75*
G02*
X122626000Y-87290000I0J140000D01*
G01*
X122626000Y-87010000D01*
G75*
G02*
X122766000Y-86870000I140000J0D01*
G01*
X123106000Y-86870000D01*
G75*
G02*
X123246000Y-87010000I0J-140000D01*
G01*
X123246000Y-87290000D01*
G75*
G02*
X123106000Y-87430000I-140000J0D01*
G01*
G37*
G36*
G01*
X123106000Y-88390000D02*
X122766000Y-88390000D01*
G75*
G02*
X122626000Y-88250000I0J140000D01*
G01*
X122626000Y-87970000D01*
G75*
G02*
X122766000Y-87830000I140000J0D01*
G01*
X123106000Y-87830000D01*
G75*
G02*
X123246000Y-87970000I0J-140000D01*
G01*
X123246000Y-88250000D01*
G75*
G02*
X123106000Y-88390000I-140000J0D01*
G01*
G37*
G36*
G01*
X131822000Y-79672000D02*
X131322000Y-79672000D01*
G75*
G02*
X131097000Y-79447000I0J225000D01*
G01*
X131097000Y-78997000D01*
G75*
G02*
X131322000Y-78772000I225000J0D01*
G01*
X131822000Y-78772000D01*
G75*
G02*
X132047000Y-78997000I0J-225000D01*
G01*
X132047000Y-79447000D01*
G75*
G02*
X131822000Y-79672000I-225000J0D01*
G01*
G37*
G36*
G01*
X131822000Y-81222000D02*
X131322000Y-81222000D01*
G75*
G02*
X131097000Y-80997000I0J225000D01*
G01*
X131097000Y-80547000D01*
G75*
G02*
X131322000Y-80322000I225000J0D01*
G01*
X131822000Y-80322000D01*
G75*
G02*
X132047000Y-80547000I0J-225000D01*
G01*
X132047000Y-80997000D01*
G75*
G02*
X131822000Y-81222000I-225000J0D01*
G01*
G37*
G36*
G01*
X125226000Y-80322000D02*
X125726000Y-80322000D01*
G75*
G02*
X125951000Y-80547000I0J-225000D01*
G01*
X125951000Y-80997000D01*
G75*
G02*
X125726000Y-81222000I-225000J0D01*
G01*
X125226000Y-81222000D01*
G75*
G02*
X125001000Y-80997000I0J225000D01*
G01*
X125001000Y-80547000D01*
G75*
G02*
X125226000Y-80322000I225000J0D01*
G01*
G37*
G36*
G01*
X125226000Y-78772000D02*
X125726000Y-78772000D01*
G75*
G02*
X125951000Y-78997000I0J-225000D01*
G01*
X125951000Y-79447000D01*
G75*
G02*
X125726000Y-79672000I-225000J0D01*
G01*
X125226000Y-79672000D01*
G75*
G02*
X125001000Y-79447000I0J225000D01*
G01*
X125001000Y-78997000D01*
G75*
G02*
X125226000Y-78772000I225000J0D01*
G01*
G37*
M02*
